SplineFontDB: 3.0
FontName: Untitled2
FullName: Untitled2
FamilyName: Untitled2
Weight: Regular
Copyright: Copyright (c) 2017, David Oranchak
UComments: "2017-11-11: Created with FontForge (http://fontforge.org)"
Version: 001.000
ItalicAngle: 0
UnderlinePosition: -100
UnderlineWidth: 50
Ascent: 800
Descent: 200
InvalidEm: 0
LayerCount: 2
Layer: 0 0 "Back" 1
Layer: 1 0 "Fore" 0
XUID: [1021 204 -544064099 5085066]
StyleMap: 0x0000
FSType: 0
OS2Version: 0
OS2_WeightWidthSlopeOnly: 0
OS2_UseTypoMetrics: 1
CreationTime: 1510439278
ModificationTime: 1510492076
OS2TypoAscent: 0
OS2TypoAOffset: 1
OS2TypoDescent: 0
OS2TypoDOffset: 1
OS2TypoLinegap: 90
OS2WinAscent: 0
OS2WinAOffset: 1
OS2WinDescent: 0
OS2WinDOffset: 1
HheadAscent: 0
HheadAOffset: 1
HheadDescent: 0
HheadDOffset: 1
DEI: 91125
Encoding: ISO8859-1
UnicodeInterp: none
NameList: AGL For New Fonts
DisplaySize: -48
AntiAlias: 1
FitToEm: 0
WinInfo: 0 21 8
BeginChars: 256 73

StartChar: b
Encoding: 98 98 0
Width: 554
Flags: HW
LayerCount: 2
Fore
SplineSet
371 260 m 1
 361 258 347.666666667 256.333333333 331 255 c 0
 329.666666667 255 328 254.666666667 326 254 c 0
 294.666666667 250.666666667 272.333333333 247.333333333 259 244 c 0
 239.666666667 238.666666667 224 231 212 221 c 0
 211.333333333 221 211 220.666666667 211 220 c 0
 209.666666667 216.666666667 209 211.333333333 209 204 c 0
 209 198 209 198 209 189 c 0
 209 181 209 181 209 179 c 0
 209 155.666666667 214.333333333 138 225 126 c 0
 233.666666667 115.333333333 248 107.666666667 268 103 c 128
 288 98.3333333333 313 96.3333333333 343 97 c 0
 351.666666667 97 360.333333333 97.6666666667 369 99 c 1
 369 107 369.333333333 116 370 126 c 0
 370 163.333333333 370.333333333 208 371 260 c 1
379 527 m 1
 375.666666667 527.666666667 369.666666667 528 361 528 c 0
 357 527.333333333 353.666666667 527 351 527 c 0
 307.666666667 527 273.666666667 516.333333333 249 495 c 0
 230.333333333 478.333333333 221.333333333 459 222 437 c 0
 222.666666667 417.666666667 232.333333333 402 251 390 c 0
 278.333333333 373.333333333 318 369.333333333 370 378 c 0
 372 378 372 378 374 378 c 0
 375.333333333 418 376.333333333 453 377 483 c 0
 377.666666667 501.666666667 378.333333333 516.333333333 379 527 c 1
179 319 m 1
 143 349.666666667 124 388 122 434 c 0
 120 486.666666667 140 531.666666667 182 569 c 0
 225.333333333 607.666666667 281.666666667 627 351 627 c 0
 353 627 356 627.333333333 360 628 c 0
 378 628 391.666666667 627.333333333 401 626 c 0
 408.333333333 624.666666667 415.333333333 622.666666667 422 620 c 1
 430.666666667 621.333333333 439.333333333 620.666666667 448 618 c 0
 459.333333333 614.666666667 468.166666667 607.833333333 474.5 597.5 c 128
 480.833333333 587.166666667 483.333333333 576 482 564 c 1
 486 552 485 540 479 528 c 1
 478.333333333 514.666666667 477.666666667 498.333333333 477 479 c 0
 475.666666667 430.333333333 474 371.333333333 472 302 c 0
 470.666666667 232.666666667 470 173.666666667 470 125 c 0
 469.333333333 110.333333333 469 97.3333333333 469 86 c 1
 475 78.6666666667 478.666666667 70.6666666667 480 62 c 0
 482 46 477.666666667 32.3333333333 467 21 c 1
 461.666666667 9 453 0.333333333333 441 -5 c 0
 423.666666667 -12.3333333333 407.333333333 -10.6666666667 392 0 c 1
 376 -1.33333333333 360.666666667 -2.33333333333 346 -3 c 0
 306.666666667 -4.33333333333 272.666666667 -1.33333333333 244 6 c 0
 204 16 172.333333333 34 149 60 c 0
 122.333333333 90.6666666667 109 130.333333333 109 179 c 0
 109 182 109 182 109 188 c 0
 109 200 109 200 109 206 c 0
 109.666666667 222.666666667 111.666666667 237 115 249 c 0
 121.666666667 269 132.333333333 285.333333333 147 298 c 0
 157 306 167.666666667 313 179 319 c 1
EndSplineSet
Validated: 524321
EndChar

StartChar: A
Encoding: 65 65 1
Width: 630
Flags: HW
LayerCount: 2
Fore
SplineSet
377 269 m 1
 373.666666667 280.333333333 369.666666667 294.333333333 365 311 c 0
 365 311.666666667 364.666666667 312.333333333 364 313 c 0
 352 357 342.666666667 389.666666667 336 411 c 0
 334 416.333333333 332.333333333 421.666666667 331 427 c 1
 326.333333333 419 321.666666667 410.666666667 317 402 c 0
 303.666666667 377.333333333 284.666666667 340.666666667 260 292 c 0
 256.666666667 286 254.333333333 282 253 280 c 0
 252 278 252 278 251 276 c 1
 291.666666667 269.333333333 333.666666667 267 377 269 c 1
395 541 m 0
 407.666666667 511.666666667 419.666666667 478 431 440 c 0
 438.333333333 418 448.333333333 384.666666667 461 340 c 0
 461 339 461 339 461 338 c 0
 477.666666667 278 491 233.333333333 501 204 c 0
 517.666666667 157.333333333 535.333333333 117.333333333 554 84 c 0
 561.333333333 72 563.166666667 59.3333333333 559.5 46 c 128
 555.833333333 32.6666666667 548 22.5 536 15.5 c 128
 524 8.5 511.333333333 6.83333333333 498 10.5 c 128
 484.666666667 14.1666666667 474.333333333 22 467 34 c 0
 445 73.3333333333 425 119 407 171 c 1
 341.666666667 165.666666667 278.333333333 168.666666667 217 180 c 0
 212.333333333 180.666666667 208 182.333333333 204 185 c 1
 200 177.666666667 196.333333333 170.666666667 193 164 c 0
 169 120.666666667 145.666666667 82.3333333333 123 49 c 0
 115 37.6666666667 104.333333333 30.8333333333 91 28.5 c 128
 77.6666666667 26.1666666667 65.1666666667 28.8333333333 53.5 36.5 c 128
 41.8333333333 44.1666666667 34.8333333333 54.8333333333 32.5 68.5 c 128
 30.1666666667 82.1666666667 32.6666666667 94.6666666667 40 106 c 0
 61.3333333333 136.666666667 83 172 105 212 c 0
 119.666666667 238.666666667 139.333333333 276.333333333 164 325 c 0
 165.333333333 327 167.333333333 331 170 337 c 0
 195.333333333 387 215 424.666666667 229 450 c 0
 252.333333333 492 274.666666667 529 296 561 c 0
 303.333333333 572.333333333 313.833333333 579.333333333 327.5 582 c 128
 341.166666667 584.666666667 353.666666667 582.333333333 365 575 c 0
 370.333333333 571.666666667 374.666666667 567.333333333 378 562 c 0
 386 556.666666667 391.666666667 549.666666667 395 541 c 0
EndSplineSet
Validated: 524321
EndChar

StartChar: B
Encoding: 66 66 2
Width: 592
Flags: HW
LayerCount: 2
Fore
SplineSet
310 244 m 0
 287.333333333 242.666666667 263.333333333 243.333333333 238 246 c 1
 237.333333333 233.333333333 237 214.666666667 237 190 c 0
 235.666666667 148.666666667 235 118.666666667 235 100 c 1
 238.333333333 100.666666667 241.666666667 101 245 101 c 0
 245.666666667 101 248.166666667 101.166666667 252.5 101.5 c 128
 256.833333333 101.833333333 259.333333333 102 260 102 c 0
 302.666666667 105.333333333 337.666666667 111.666666667 365 121 c 0
 385.666666667 127.666666667 400.333333333 135.666666667 409 145 c 0
 413 149 415 153 415 157 c 0
 415 162.333333333 412.666666667 169 408 177 c 0
 392.666666667 201.666666667 367 221.333333333 331 236 c 0
 324.333333333 239.333333333 317.333333333 242 310 244 c 0
320 344 m 1
 352.666666667 346.666666667 378.666666667 353.666666667 398 365 c 0
 409.333333333 371.666666667 416.666666667 379 420 387 c 0
 422.666666667 392.333333333 423 398.333333333 421 405 c 0
 418.333333333 415.666666667 411 426 399 436 c 0
 384.333333333 450 364.333333333 461.666666667 339 471 c 0
 307.666666667 482.333333333 271.666666667 489.666666667 231 493 c 1
 235 451 237.333333333 403 238 349 c 1
 264 352.333333333 291.333333333 350.666666667 320 344 c 1
81 588 m 0
 196.333333333 602.666666667 294 594.666666667 374 564 c 0
 411.333333333 550 442.333333333 531.833333333 467 509.5 c 128
 491.666666667 487.166666667 508.333333333 462 517 434 c 0
 526.333333333 404 524.833333333 375.166666667 512.5 347.5 c 128
 500.166666667 319.833333333 479.333333333 297 450 279 c 1
 467.333333333 263.666666667 481.666666667 247.333333333 493 230 c 0
 508.333333333 205.333333333 515.666666667 180 515 154 c 0
 514.333333333 124.666666667 503 98.3333333333 481 75 c 0
 441.666666667 34.3333333333 370.666666667 10.3333333333 268 3 c 0
 266.666666667 3 263.833333333 2.83333333333 259.5 2.5 c 128
 255.166666667 2.16666666667 252.666666667 1.66666666667 252 1 c 0
 222 -1 197.333333333 -1.66666666667 178 -1 c 0
 124 -0.333333333333 81.6666666667 10.3333333333 51 31 c 0
 39.6666666667 38.3333333333 32.6666666667 48.8333333333 30 62.5 c 128
 27.3333333333 76.1666666667 29.8333333333 88.6666666667 37.5 100 c 128
 45.1666666667 111.333333333 55.8333333333 118.5 69.5 121.5 c 128
 83.1666666667 124.5 95.6666666667 122 107 114 c 0
 113.666666667 109.333333333 123 105.666666667 135 103 c 1
 135 121.666666667 135.666666667 151 137 191 c 0
 137.666666667 233.666666667 138 266 138 288 c 0
 138.666666667 370 136 438 130 492 c 1
 118 491.333333333 106 490.333333333 94 489 c 0
 80 487 67.5 490.333333333 56.5 499 c 128
 45.5 507.666666667 39.1666666667 518.833333333 37.5 532.5 c 128
 35.8333333333 546.166666667 39.3333333333 558.333333333 48 569 c 128
 56.6666666667 579.666666667 67.6666666667 586 81 588 c 0
EndSplineSet
Validated: 524321
EndChar

StartChar: C
Encoding: 67 67 3
Width: 574
Flags: HW
LayerCount: 2
Fore
SplineSet
431 472 m 0
 381 498 329.333333333 499.333333333 276 476 c 0
 252 465.333333333 229.833333333 450.5 209.5 431.5 c 128
 189.166666667 412.5 172.666666667 391.333333333 160 368 c 0
 134 320.666666667 129 279 145 243 c 0
 152.333333333 225 165.666666667 209.666666667 185 197 c 0
 209 181.666666667 240.333333333 170.666666667 279 164 c 0
 314.333333333 158.666666667 342 156.666666667 362 158 c 0
 386.666666667 159.333333333 406 165.666666667 420 177 c 0
 430.666666667 185 442.833333333 188.333333333 456.5 187 c 128
 470.166666667 185.666666667 481.333333333 179.666666667 490 169 c 128
 498.666666667 158.333333333 502.166666667 146 500.5 132 c 128
 498.833333333 118 492.666666667 106.666666667 482 98 c 0
 452 74 414 60.6666666667 368 58 c 0
 340.666666667 56.6666666667 306 59.3333333333 264 66 c 0
 156 82.6666666667 85.6666666667 128.333333333 53 203 c 0
 39 236.333333333 33.8333333333 271.166666667 37.5 307.5 c 128
 41.1666666667 343.833333333 52.6666666667 379.666666667 72 415 c 0
 90 448.333333333 113.333333333 478.333333333 142 505 c 128
 170.666666667 531.666666667 202 552.666666667 236 568 c 0
 318.666666667 604 399 601.666666667 477 561 c 0
 489.666666667 555 498 545.333333333 502 532 c 128
 506 518.666666667 504.833333333 505.833333333 498.5 493.5 c 128
 492.166666667 481.166666667 482.5 473 469.5 469 c 128
 456.5 465 443.666666667 466 431 472 c 0
EndSplineSet
Validated: 524321
EndChar

StartChar: D
Encoding: 68 68 4
Width: 546
Flags: HW
LayerCount: 2
Fore
SplineSet
203 99 m 1
 231.666666667 99.6666666667 257.666666667 107 281 121 c 0
 321.666666667 145 350 183.333333333 366 236 c 0
 381.333333333 288 380 337 362 383 c 0
 343.333333333 431 309.666666667 463 261 479 c 0
 246.333333333 484.333333333 223.333333333 485.333333333 192 482 c 1
 182.666666667 334.666666667 186.333333333 207 203 99 c 1
111 577 m 0
 122.333333333 576.333333333 141.666666667 577.333333333 169 580 c 0
 173 580.666666667 176 581 178 581 c 0
 200 583 217.666666667 584 231 584 c 0
 253.666666667 583.333333333 274 580 292 574 c 0
 330.666666667 561.333333333 363.833333333 541.666666667 391.5 515 c 128
 419.166666667 488.333333333 440.333333333 456.666666667 455 420 c 0
 481.666666667 352 483.666666667 281 461 207 c 0
 438.333333333 129.666666667 395.333333333 72.3333333333 332 35 c 0
 260.666666667 -7 179 -12.6666666667 87 18 c 0
 73.6666666667 22 64 30.1666666667 58 42.5 c 128
 52 54.8333333333 51 67.6666666667 55 81 c 0
 58.3333333333 91 64.1666666667 99 72.5 105 c 128
 80.8333333333 111 90 114.333333333 100 115 c 1
 86.6666666667 221.666666667 84 343.333333333 92 480 c 1
 80.6666666667 483.333333333 71.6666666667 489.833333333 65 499.5 c 128
 58.3333333333 509.166666667 55.6666666667 520 57 532 c 0
 58.3333333333 545.333333333 64.1666666667 556.5 74.5 565.5 c 128
 84.8333333333 574.5 97 578.333333333 111 577 c 0
EndSplineSet
Validated: 524321
EndChar

StartChar: E
Encoding: 69 69 5
Width: 637
Flags: HW
LayerCount: 2
Fore
SplineSet
479 487 m 1
 443.666666667 498.333333333 390.333333333 502.666666667 319 500 c 0
 290.333333333 498.666666667 254 496 210 492 c 0
 208.666666667 491.333333333 202.666666667 490.666666667 192 490 c 1
 189.333333333 470.666666667 187.333333333 449.666666667 186 427 c 0
 185.333333333 405.666666667 184.666666667 377.333333333 184 342 c 1
 206 334.666666667 239.666666667 333.666666667 285 339 c 0
 291 339.666666667 300 341 312 343 c 0
 352.666666667 348.333333333 382.666666667 351 402 351 c 0
 416 351 427.833333333 346.166666667 437.5 336.5 c 128
 447.166666667 326.833333333 452 315 452 301 c 128
 452 287 447.166666667 275.166666667 437.5 265.5 c 128
 427.833333333 255.833333333 416 251 402 251 c 0
 387.333333333 251 362 248.333333333 326 243 c 0
 313.333333333 241.666666667 303.666666667 240.666666667 297 240 c 0
 263.666666667 236 235.333333333 234.666666667 212 236 c 0
 201.333333333 236.666666667 191.333333333 237.666666667 182 239 c 1
 182 235.666666667 181.666666667 232.333333333 181 229 c 0
 181 224.333333333 180.833333333 219.666666667 180.5 215 c 128
 180.166666667 210.333333333 179.333333333 202.333333333 178 191 c 2
 177 184 l 2
 176.333333333 180 175.666666667 175.666666667 175 171 c 128
 174.333333333 166.333333333 173.666666667 163 173 161 c 0
 171.666666667 151.666666667 170.666666667 143.666666667 170 137 c 0
 168.666666667 125 167.666666667 115 167 107 c 1
 174.333333333 106.333333333 182.666666667 105.666666667 192 105 c 0
 222 103 262.666666667 102.333333333 314 103 c 0
 340.666666667 103.666666667 372.333333333 104.333333333 409 105 c 0
 413 105 422.5 105.333333333 437.5 106 c 128
 452.5 106.666666667 461 107 463 107 c 0
 481 107.666666667 493.333333333 108 500 108 c 0
 514 108 525.833333333 103 535.5 93 c 128
 545.166666667 83 550 71.1666666667 550 57.5 c 128
 550 43.8333333333 545.166666667 32 535.5 22 c 128
 525.833333333 12 514 7 500 7 c 0
 491 7 491 7 466 7 c 0
 464 7 455.5 6.66666666667 440.5 6 c 128
 425.5 5.33333333333 415.666666667 5 411 5 c 0
 374.333333333 4.33333333333 342.666666667 3.66666666667 316 3 c 0
 262 2.33333333333 219 3 187 5 c 0
 166.333333333 6.33333333333 149.333333333 8 136 10 c 0
 127.333333333 11.3333333333 120 13.3333333333 114 16 c 0
 102 20 92.6666666667 26 86 34 c 0
 77.3333333333 43.3333333333 71.6666666667 55 69 69 c 0
 67.6666666667 77 67 86 67 96 c 0
 67 110 68.3333333333 127.666666667 71 149 c 0
 71.6666666667 157 72.6666666667 166 74 176 c 0
 74.6666666667 177.333333333 75.1666666667 179.833333333 75.5 183.5 c 128
 75.8333333333 187.166666667 76.3333333333 190.5 77 193.5 c 128
 77.6666666667 196.5 78 199.333333333 78 202 c 2
 79 206 l 2
 80.3333333333 214 81 218.666666667 81 220 c 0
 81 224.666666667 81.3333333333 229 82 233 c 0
 82.6666666667 253 83.3333333333 283.333333333 84 324 c 0
 84.6666666667 372 85.6666666667 408.333333333 87 433 c 0
 89 473.666666667 93 510.666666667 99 544 c 0
 99.6666666667 547.333333333 100.666666667 551 102 555 c 0
 104.666666667 561.666666667 108.833333333 567.5 114.5 572.5 c 128
 120.166666667 577.5 126.333333333 581.333333333 133 584 c 0
 139 585 139 585 145 586 c 0
 149.666666667 586 160 586.833333333 176 588.5 c 128
 192 590.166666667 200.333333333 591 201 591 c 0
 246.333333333 595.666666667 284.333333333 598.666666667 315 600 c 0
 399 603.333333333 464.333333333 597.333333333 511 582 c 0
 517 580 517 580 520 579 c 0
 530 575.666666667 538.333333333 571.333333333 545 566 c 0
 563 551.333333333 570.333333333 532.666666667 567 510 c 0
 564.333333333 496.666666667 557.5 486 546.5 478 c 128
 535.5 470 523 467 509 469 c 0
 497 471 487 477 479 487 c 1
EndSplineSet
Validated: 524321
EndChar

StartChar: F
Encoding: 70 70 6
Width: 601
Flags: HW
LayerCount: 2
Fore
SplineSet
112 587 m 0
 162.666666667 579.666666667 228 576.666666667 308 578 c 0
 323.333333333 578 346.333333333 578.333333333 377 579 c 0
 423.666666667 580.333333333 458.666666667 581 482 581 c 0
 495.333333333 581 507 576.166666667 517 566.5 c 128
 527 556.833333333 532 545 532 531 c 128
 532 517 527 505.166666667 517 495.5 c 128
 507 485.833333333 495.333333333 481 482 481 c 0
 459.333333333 481 425 480.333333333 379 479 c 0
 348.333333333 478.333333333 325 478 309 478 c 0
 253.666666667 477.333333333 206.666666667 478.333333333 168 481 c 1
 173.333333333 439 177 395 179 349 c 1
 210 349 210 349 276 349 c 0
 330 348.333333333 370.333333333 348 397 348 c 0
 410.333333333 348 422 343.166666667 432 333.5 c 128
 442 323.833333333 447 312.166666667 447 298.5 c 128
 447 284.833333333 442 273 432 263 c 128
 422 253 410.333333333 248 397 248 c 0
 369.666666667 248 329.333333333 248.333333333 276 249 c 0
 210 249 210 249 180 249 c 1
 178.666666667 181.666666667 173 119.666666667 163 63 c 0
 161 49 154.333333333 38 143 30 c 128
 131.666666667 22 119.333333333 19.1666666667 106 21.5 c 128
 92.6666666667 23.8333333333 81.8333333333 30.6666666667 73.5 42 c 128
 65.1666666667 53.3333333333 62.3333333333 65.6666666667 65 79 c 0
 75.6666666667 144.333333333 80.8333333333 216.333333333 80.5 295 c 128
 80.1666666667 373.666666667 74 446 62 512 c 1
 56 522 54 533 56 545 c 0
 57.3333333333 558.333333333 63.6666666667 569.166666667 75 577.5 c 128
 86.3333333333 585.833333333 98.6666666667 589 112 587 c 0
EndSplineSet
Validated: 524321
EndChar

StartChar: G
Encoding: 71 71 7
Width: 593
Flags: HW
LayerCount: 2
Fore
SplineSet
176 206 m 1
 184.666666667 164.666666667 204.666666667 135.666666667 236 119 c 0
 277.333333333 97 315.666666667 93 351 107 c 0
 381.666666667 119 403.666666667 139.666666667 417 169 c 0
 426.333333333 189.666666667 426.333333333 205 417 215 c 0
 411.666666667 220.333333333 402.666666667 224 390 226 c 0
 370.666666667 230 346 229 316 223 c 0
 305.333333333 221 287.333333333 220 262 220 c 2
 248 220 l 2
 234 219.333333333 223.666666667 218.666666667 217 218 c 0
 216 218 216 218 214 218 c 2
 213 217 l 2
 202.333333333 208.333333333 190 204.666666667 176 206 c 1
403 489 m 0
 357.666666667 501 315.666666667 493.666666667 277 467 c 0
 239.666666667 441 211.333333333 402.666666667 192 352 c 0
 186.666666667 338.666666667 182.333333333 325 179 311 c 1
 185.666666667 313 193 314.666666667 201 316 c 0
 213 318 228.333333333 319.333333333 247 320 c 2
 263 320 l 2
 281 320 292 320.333333333 296 321 c 0
 384.666666667 338.333333333 449.333333333 325.666666667 490 283 c 0
 508.666666667 263 519.5 239 522.5 211 c 128
 525.5 183 520.666666667 155.333333333 508 128 c 0
 496.666666667 102.666666667 480.5 80 459.5 60 c 128
 438.5 40 414.666666667 24.6666666667 388 14 c 0
 323.333333333 -11.3333333333 257 -5.66666666667 189 31 c 0
 128.333333333 63.6666666667 91 117.333333333 77 192 c 0
 65 255.333333333 72.3333333333 321 99 389 c 0
 125.666666667 458.333333333 166 511.666666667 220 549 c 0
 283.333333333 593 352.666666667 605.333333333 428 586 c 0
 441.333333333 582.666666667 451.5 575 458.5 563 c 128
 465.5 551 467.333333333 538.333333333 464 525 c 128
 460.666666667 511.666666667 453 501.5 441 494.5 c 128
 429 487.5 416.333333333 485.666666667 403 489 c 0
EndSplineSet
Validated: 524321
EndChar

StartChar: H
Encoding: 72 72 8
Width: 581
Flags: HW
LayerCount: 2
Fore
SplineSet
473 570 m 0
 481 524 487 473 491 417 c 0
 493.666666667 381.666666667 496.333333333 329 499 259 c 0
 503 165.666666667 507 96 511 50 c 0
 512.333333333 36 508.666666667 23.6666666667 500 13 c 128
 491.333333333 2.33333333333 480.166666667 -3.66666666667 466.5 -5 c 128
 452.833333333 -6.33333333333 440.666666667 -2.66666666667 430 6 c 128
 419.333333333 14.6666666667 413.333333333 26 412 40 c 0
 407.333333333 88 403 157.666666667 399 249 c 1
 341.666666667 248.333333333 268.333333333 246.333333333 179 243 c 1
 182.333333333 164.333333333 187 100.666666667 193 52 c 0
 195 38 191.666666667 25.6666666667 183 15 c 128
 174.333333333 4.33333333333 163.166666667 -1.83333333333 149.5 -3.5 c 128
 135.833333333 -5.16666666667 123.5 -1.83333333333 112.5 6.5 c 128
 101.5 14.8333333333 95.3333333333 26 94 40 c 0
 86 104 80.3333333333 184.666666667 77 282 c 0
 77 285 77 285 77 289 c 128
 77 293 77 293 77 297 c 0
 77 303 77 303 77 308 c 0
 74.3333333333 437.333333333 79.6666666667 527 93 577 c 0
 97 590.333333333 105 600.333333333 117 607 c 128
 129 613.666666667 141.666666667 615.166666667 155 611.5 c 128
 168.333333333 607.833333333 178.333333333 600 185 588 c 128
 191.666666667 576 193.333333333 563.333333333 190 550 c 0
 180 514 175.333333333 445 176 343 c 1
 264.666666667 346.333333333 337.666666667 348.333333333 395 349 c 1
 393.666666667 369.666666667 392.333333333 390 391 410 c 0
 387.666666667 462.666666667 382.333333333 510.333333333 375 553 c 0
 372.333333333 567 375.166666667 579.666666667 383.5 591 c 128
 391.833333333 602.333333333 402.666666667 609 416 611 c 128
 429.333333333 613 441.666666667 610 453 602 c 128
 464.333333333 594 471 583.333333333 473 570 c 0
EndSplineSet
Validated: 524321
EndChar

StartChar: I
Encoding: 73 73 9
Width: 715
Flags: HW
LayerCount: 2
Fore
SplineSet
10.0003404058 40.1845005889 m 0
 10.1008402385 67.4199552497 32.9490459281 90.1001594269 60.1845005889 89.9996595942 c 2
 602.184500589 87.9996595942 l 2
 606.582905038 87.9834293194 614.471650978 86.4503740297 616.04541939 85.9868062082 c 0
 646.224688057 83.727200795 665.893954099 59.4264299193 663.860438218 32.2668109241 c 0
 662.147605043 9.39022712302 633.726660829 -11.9610750432 632.484990986 -12.1128311498 c 2
 59.8154994111 -9.99965959417 l 2
 32.5800447503 -9.89915976147 9.89984057314 12.9490459281 10.0003404058 40.1845005889 c 0
59 582 m 0
 65.6666666667 586 75 589 87 591 c 0
 93 592.333333333 101 593.666666667 111 595 c 0
 127 596.333333333 148.333333333 597.333333333 175 598 c 0
 221.666666667 599.333333333 280 599.666666667 350 599 c 0
 412 598.333333333 468.666666667 597 520 595 c 0
 544 594.333333333 563 593.666666667 577 593 c 0
 585 592.333333333 591 591.666666667 595 591 c 0
 609 589.666666667 617.5 588.166666667 620.5 586.5 c 128
 623.5 584.833333333 628.333333333 579.666666667 635 571 c 0
 643.666666667 560.333333333 647.166666667 548.166666667 645.5 534.5 c 128
 643.833333333 520.833333333 637.666666667 509.666666667 627 501 c 0
 613.666666667 490.333333333 599 487.333333333 583 492 c 0
 582 492 582 492 582 492 c 1
 572 494.666666667 563.666666667 500.333333333 557 509 c 1
 559 506.333333333 560.833333333 503.666666667 562.5 501 c 128
 564.166666667 498.333333333 565.166666667 496.833333333 565.5 496.5 c 128
 565.833333333 496.166666667 567 495.5 569 494.5 c 128
 571 493.5 572.666666667 493 574 493 c 128
 575.333333333 493 578 492.666666667 582 492 c 1
 578.666666667 492 574.666666667 492.333333333 570 493 c 0
 557.333333333 493.666666667 539.333333333 494.333333333 516 495 c 0
 474.666666667 497 428.333333333 498.333333333 377 499 c 1
 378.333333333 473.666666667 379 445.666666667 379 415 c 0
 379 390.333333333 378 354 376 306 c 0
 376 305 376 305 376 303 c 0
 376 302 376 302 376 301 c 0
 374 244.333333333 373.333333333 201.666666667 374 173 c 0
 374.666666667 127.666666667 377.666666667 87.3333333333 383 52 c 0
 385.666666667 38.6666666667 383 26.3333333333 375 15 c 128
 367 3.66666666667 356.166666667 -3.16666666667 342.5 -5.5 c 128
 328.833333333 -7.83333333333 316.333333333 -4.83333333333 305 3.5 c 128
 293.666666667 11.8333333333 287 22.6666666667 285 36 c 0
 278.333333333 76 274.666666667 121 274 171 c 0
 273.333333333 201.666666667 274 246.333333333 276 305 c 0
 276 306 276 306 276 309 c 0
 278 356.333333333 279 391.666666667 279 415 c 0
 279 446.333333333 278.333333333 474.333333333 277 499 c 1
 239 499 206 498.666666667 178 498 c 0
 153.333333333 497.333333333 134 496.333333333 120 495 c 0
 113.333333333 494.333333333 108.333333333 493.666666667 105 493 c 0
 93.6666666667 488.333333333 82 487.833333333 70 491.5 c 128
 58 495.166666667 48.6666666667 502.333333333 42 513 c 0
 35.3333333333 524.333333333 33.5 536.833333333 36.5 550.5 c 128
 39.5 564.166666667 47 574.666666667 59 582 c 0
582 492 m 1
 582 492 l 1
 582 492 582 492 582 492 c 129
 582 492 582 492 582 492 c 1
EndSplineSet
Validated: 524325
EndChar

StartChar: J
Encoding: 74 74 10
Width: 585
Flags: HW
LayerCount: 2
Fore
SplineSet
103 605 m 0
 115.666666667 603.666666667 134 601.666666667 158 599 c 0
 202.666666667 593.666666667 235.666666667 590.333333333 257 589 c 0
 336.333333333 581.666666667 404 581.666666667 460 589 c 0
 473.333333333 590.333333333 485.5 586.833333333 496.5 578.5 c 128
 507.5 570.166666667 513.666666667 559 515 545 c 0
 516.333333333 535.666666667 515 526.666666667 511 518 c 1
 509 499.333333333 508.333333333 462.666666667 509 408 c 0
 509 372 508.666666667 344.333333333 508 325 c 0
 507.333333333 279 504 239.666666667 498 207 c 0
 490.666666667 163 478.333333333 126.666666667 461 98 c 0
 415 19.3333333333 338.333333333 -8 231 16 c 0
 215 20 198 26.6666666667 180 36 c 0
 170 42 157 50.6666666667 141 62 c 0
 121 75.3333333333 107.333333333 84 100 88 c 0
 88 94 79.8333333333 103.5 75.5 116.5 c 128
 71.1666666667 129.5 72 142.166666667 78 154.5 c 128
 84 166.833333333 93.5 175.166666667 106.5 179.5 c 128
 119.5 183.833333333 132.333333333 183 145 177 c 0
 156.333333333 171 174 160 198 144 c 0
 223.333333333 126 241.666666667 116 253 114 c 0
 287 106 314.666666667 106 336 114 c 0
 352 120 365 131.666666667 375 149 c 0
 395 183 406 242.333333333 408 327 c 0
 408.666666667 345 409 372 409 408 c 0
 409 428 409 428 409 454.5 c 128
 409 481 409 481 409 484 c 1
 363 482 309.666666667 483.666666667 249 489 c 0
 226.333333333 491 192.333333333 494.333333333 147 499 c 0
 111 503 111 503 93 505 c 0
 79.6666666667 506.333333333 68.5 512.5 59.5 523.5 c 128
 50.5 534.5 46.8333333333 546.833333333 48.5 560.5 c 128
 50.1666666667 574.166666667 56.3333333333 585.333333333 67 594 c 128
 77.6666666667 602.666666667 89.6666666667 606.333333333 103 605 c 0
EndSplineSet
Validated: 524321
EndChar

StartChar: K
Encoding: 75 75 11
Width: 612
Flags: HW
LayerCount: 2
Fore
SplineSet
201 562 m 0
 204.333333333 534 206.333333333 501.666666667 207 465 c 0
 207 433 207 433 207 370 c 1
 222.333333333 382 238 396.333333333 254 413 c 0
 271.333333333 430.333333333 295 456 325 490 c 0
 325.666666667 490.666666667 327 492.166666667 329 494.5 c 128
 331 496.833333333 333.166666667 499.166666667 335.5 501.5 c 128
 337.833333333 503.833333333 339.333333333 505.666666667 340 507 c 0
 369.333333333 540.333333333 393 566.333333333 411 585 c 0
 421 594.333333333 432.833333333 599 446.5 599 c 128
 460.166666667 599 472 594.166666667 482 584.5 c 128
 492 574.833333333 497 563 497 549 c 128
 497 535 492 523.333333333 482 514 c 0
 465.333333333 497.333333333 443 473 415 441 c 0
 414.333333333 439.666666667 412.833333333 437.833333333 410.5 435.5 c 128
 408.166666667 433.166666667 406 430.833333333 404 428.5 c 128
 402 426.166666667 401 424.666666667 401 424 c 0
 369 388 343.666666667 360.666666667 325 342 c 0
 314 331 314 331 304 321 c 1
 308 317.666666667 312 313.666666667 316 309 c 0
 318 307 318 307 322 303 c 128
 324.666666667 300.333333333 327.333333333 297.5 330 294.5 c 128
 332.666666667 291.5 335.666666667 288.5 339 285.5 c 128
 342.333333333 282.5 345.333333333 279.5 348 276.5 c 128
 350.666666667 273.5 353.166666667 270.833333333 355.5 268.5 c 128
 357.833333333 266.166666667 359.666666667 264 361 262 c 2
 363 260 l 2
 395 227.333333333 421.333333333 201.666666667 442 183 c 0
 470 157 496 136 520 120 c 0
 531.333333333 112 538.5 101.333333333 541.5 88 c 128
 544.5 74.6666666667 542.166666667 62.1666666667 534.5 50.5 c 128
 526.833333333 38.8333333333 516.166666667 31.6666666667 502.5 29 c 128
 488.833333333 26.3333333333 476.333333333 29 465 37 c 0
 436.333333333 55.6666666667 406 79.6666666667 374 109 c 0
 352 129 324.666666667 156.333333333 292 191 c 2
 288 195 l 2
 284 199 284 199 278 205 c 128
 272 211 272 211 265.5 217.5 c 128
 261.166666667 221.833333333 257.166666667 226 253.5 230 c 128
 249.833333333 234 247 237 245 239 c 0
 233 251 233 251 223 261 c 1
 218.333333333 259 213.333333333 258 208 258 c 1
 209 238 209 238 210 218 c 0
 212.666666667 174 217.666666667 135.666666667 225 103 c 0
 226.333333333 98.3333333333 227 93.3333333333 227 88 c 0
 227 87 227 87 227 86 c 0
 234.333333333 72.6666666667 235.666666667 59.3333333333 231 46 c 128
 226.333333333 32.6666666667 217.833333333 23 205.5 17 c 128
 193.166666667 11 180.666666667 10 168 14 c 0
 156.666666667 18 147.333333333 24.6666666667 140 34 c 0
 134.666666667 40.6666666667 131 48.3333333333 129 57 c 0
 127.666666667 63 127 70.6666666667 127 80 c 2
 127 81 l 1
 119 117.666666667 113.333333333 161.333333333 110 212 c 0
 108 245.333333333 107 289.666666667 107 345 c 0
 107 353 107 353 107 369 c 0
 107.666666667 452.333333333 106 513.333333333 102 552 c 0
 100.666666667 565.333333333 104.333333333 577.333333333 113 588 c 128
 121.666666667 598.666666667 132.833333333 604.666666667 146.5 606 c 128
 160.166666667 607.333333333 172.333333333 603.666666667 183 595 c 128
 193.666666667 586.333333333 199.666666667 575.333333333 201 562 c 0
EndSplineSet
Validated: 524321
EndChar

StartChar: L
Encoding: 76 76 12
Width: 644
Flags: HW
LayerCount: 2
Fore
SplineSet
221 532 m 0
 211.666666667 492.666666667 205.333333333 441 202 377 c 0
 200 348.333333333 198.333333333 303.333333333 197 242 c 0
 197 236 197 236 197 231 c 0
 196.333333333 223.666666667 194.666666667 206.666666667 192 180 c 0
 190.666666667 168 190 158.333333333 190 151 c 0
 188.666666667 135.666666667 188 123 188 113 c 1
 224.666666667 105.666666667 277 104 345 108 c 0
 357.666666667 108.666666667 375.666666667 110 399 112 c 0
 457 116.666666667 498.666666667 119 524 119 c 0
 538 119 549.833333333 114.166666667 559.5 104.5 c 128
 569.166666667 94.8333333333 574 83 574 69 c 128
 574 55 569.166666667 43.1666666667 559.5 33.5 c 128
 549.833333333 23.8333333333 538 19 524 19 c 0
 501.333333333 19 462.333333333 17 407 13 c 0
 383 11 364.333333333 9.33333333333 351 8 c 0
 308.333333333 5.33333333333 272 4.66666666667 242 6 c 0
 202 8 166.666666667 13.6666666667 136 23 c 0
 131.333333333 24.3333333333 126.666666667 26.3333333333 122 29 c 0
 112.666666667 34.3333333333 105.666666667 42 101 52 c 0
 93.6666666667 66 89.6666666667 84 89 106 c 0
 88.3333333333 120.666666667 88.6666666667 138 90 158 c 0
 90.6666666667 166.666666667 91.6666666667 177.333333333 93 190 c 0
 95.6666666667 214 97 228.666666667 97 234 c 0
 97 238 97 238 97 245 c 0
 98.3333333333 307 100 353 102 383 c 0
 106 453 113.333333333 510.333333333 124 555 c 0
 127.333333333 568.333333333 134.833333333 578.666666667 146.5 586 c 128
 158.166666667 593.333333333 170.666666667 595.333333333 184 592 c 128
 197.333333333 588.666666667 207.666666667 581.166666667 215 569.5 c 128
 222.333333333 557.833333333 224.333333333 545.333333333 221 532 c 0
EndSplineSet
Validated: 524321
EndChar

StartChar: M
Encoding: 77 77 13
Width: 618
Flags: HW
LayerCount: 2
Fore
SplineSet
541 537 m 0
 547.666666667 469.666666667 550 384 548 280 c 0
 548 262 547.666666667 235.666666667 547 201 c 0
 545.666666667 139.666666667 545 93.6666666667 545 63 c 0
 545 49.6666666667 540.166666667 38 530.5 28 c 128
 520.833333333 18 509 13 495 13 c 128
 481 13 469.166666667 18 459.5 28 c 128
 449.833333333 38 445 49.6666666667 445 63 c 0
 445 94.3333333333 445.666666667 141 447 203 c 0
 447.666666667 237.666666667 448 263.666666667 448 281 c 0
 449.333333333 337.666666667 449.333333333 386 448 426 c 1
 445.333333333 424 442.5 421.333333333 439.5 418 c 128
 436.5 414.666666667 434.166666667 412.166666667 432.5 410.5 c 128
 430.833333333 408.833333333 429.666666667 408 429 408 c 0
 428.333333333 407.333333333 427.666666667 406.333333333 427 405 c 0
 397.666666667 376.333333333 375.666666667 354.666666667 361 340 c 0
 350.333333333 330.666666667 341.666666667 323.333333333 335 318 c 0
 331 314 327.166666667 310.833333333 323.5 308.5 c 128
 319.833333333 306.166666667 316.333333333 304.333333333 313 303 c 0
 301.666666667 298.333333333 290.333333333 297.666666667 279 301 c 0
 268.333333333 303.666666667 257.666666667 310 247 320 c 0
 241.666666667 324.666666667 235.666666667 331 229 339 c 0
 226.333333333 341.666666667 224 344.666666667 222 348 c 0
 219 351 219 351 214 356 c 2
 211 361 l 2
 209 363 209 363 208 364 c 0
 204.666666667 368.666666667 202.333333333 371.333333333 201 372 c 0
 183 390 168.333333333 405.666666667 157 419 c 1
 157 417 157 417 157 413 c 0
 160.333333333 374.333333333 162 346 162 328 c 0
 162 298 159.666666667 254 155 196 c 0
 150.333333333 140.666666667 148 99.3333333333 148 72 c 0
 148 58.6666666667 143.166666667 47 133.5 37 c 128
 123.833333333 27 112.166666667 22 98.5 22 c 128
 84.8333333333 22 73 27 63 37 c 128
 53 47 48 58.6666666667 48 72 c 0
 48 102 50.6666666667 146 56 204 c 0
 60 259.333333333 62 300.666666667 62 328 c 0
 62 343.333333333 60.6666666667 368.666666667 58 404 c 0
 57.3333333333 411.333333333 56.6666666667 417 56 421 c 0
 51.3333333333 474.333333333 51.3333333333 516.333333333 56 547 c 0
 58.6666666667 561 65.5 572 76.5 580 c 128
 87.5 588 100 591 114 589 c 0
 118.666666667 587.666666667 123.333333333 586 128 584 c 1
 138.666666667 586 149.166666667 584.5 159.5 579.5 c 128
 169.833333333 574.5 177.333333333 566.666666667 182 556 c 0
 190 539.333333333 202.666666667 520.333333333 220 499 c 0
 232.666666667 483.666666667 250 465 272 443 c 0
 275.333333333 439.666666667 279.666666667 434.666666667 285 428 c 0
 287 426 287 426 289 424 c 0
 290.333333333 421.333333333 291.333333333 420 292 420 c 0
 293.333333333 418 294.333333333 416.666666667 295 416 c 0
 309 429.333333333 329.333333333 449.333333333 356 476 c 0
 356.666666667 476.666666667 357.666666667 477.333333333 359 478 c 0
 359 478.666666667 363.166666667 483.166666667 371.5 491.5 c 128
 384 504 384 504 397.5 517.5 c 128
 411 531 411 531 416 536 c 0
 435.333333333 556 448.333333333 568.333333333 455 573 c 0
 463.666666667 580.333333333 473.5 584.333333333 484.5 585 c 128
 495.5 585.666666667 505.666666667 583 515 577 c 0
 530.333333333 568.333333333 539 555 541 537 c 0
EndSplineSet
Validated: 524321
EndChar

StartChar: N
Encoding: 78 78 14
Width: 583
Flags: HW
LayerCount: 2
Fore
SplineSet
72 82 m 0
 68.6666666667 168.666666667 67.3333333333 238.333333333 68 291 c 0
 68 369.666666667 72 440.333333333 80 503 c 0
 80.6666666667 510.333333333 82 517 84 523 c 0
 88 533 93.6666666667 541.333333333 101 548 c 0
 111.666666667 556.666666667 123.333333333 561.333333333 136 562 c 0
 145.333333333 562 154.666666667 560 164 556 c 0
 178.666666667 549.333333333 195 534.666666667 213 512 c 0
 235.666666667 483.333333333 266 436.333333333 304 371 c 0
 310 360.333333333 316.333333333 349.333333333 323 338 c 0
 334.333333333 318.666666667 346.666666667 296.666666667 360 272 c 0
 365.333333333 262.666666667 371.333333333 252.333333333 378 241 c 0
 378 240.333333333 380.166666667 235.833333333 384.5 227.5 c 128
 388.833333333 219.166666667 391.666666667 214 393 212 c 0
 401 198.666666667 407.333333333 187.333333333 412 178 c 1
 412.666666667 183.333333333 413 189 413 195 c 0
 413.666666667 211 413.666666667 232.333333333 413 259 c 0
 412.333333333 274.333333333 412 284 412 288 c 0
 412 293.333333333 412.333333333 301.666666667 413 313 c 0
 413 347 412.666666667 372.666666667 412 390 c 0
 411.333333333 436.666666667 408.666666667 476.666666667 404 510 c 0
 402 523.333333333 405.166666667 535.5 413.5 546.5 c 128
 421.833333333 557.5 432.833333333 564 446.5 566 c 128
 460.166666667 568 472.5 564.833333333 483.5 556.5 c 128
 494.5 548.166666667 501 537.333333333 503 524 c 0
 508.333333333 486.666666667 511.333333333 442.666666667 512 392 c 0
 512.666666667 374 513 347.666666667 513 313 c 0
 512.333333333 301.666666667 512 293.333333333 512 288 c 0
 512 284.666666667 512.333333333 275.666666667 513 261 c 0
 513.666666667 232.333333333 513.666666667 209.333333333 513 192 c 0
 512.333333333 168 510.666666667 147.333333333 508 130 c 0
 504.666666667 105.333333333 499 86 491 72 c 0
 483.666666667 58.6666666667 474 48.6666666667 462 42 c 0
 446 33.3333333333 429 31.3333333333 411 36 c 0
 390.333333333 42.6666666667 369.666666667 60 349 88 c 0
 343.666666667 96 329.333333333 121.333333333 306 164 c 0
 304.666666667 166 301.833333333 171 297.5 179 c 128
 293.166666667 187 290.666666667 191.333333333 290 192 c 0
 283.333333333 204 277.666666667 214.333333333 273 223 c 0
 259 247.666666667 246.666666667 269.333333333 236 288 c 0
 230 299.333333333 224 310.333333333 218 321 c 0
 200 351 184.333333333 376.666666667 171 398 c 1
 169 364.666666667 168 328.666666667 168 290 c 0
 167.333333333 238.666666667 168.666666667 170.333333333 172 85 c 0
 172 71 167.333333333 59 158 49 c 128
 148.666666667 39 137.166666667 33.8333333333 123.5 33.5 c 128
 109.833333333 33.1666666667 97.8333333333 37.6666666667 87.5 47 c 128
 77.1666666667 56.3333333333 72 68 72 82 c 0
EndSplineSet
Validated: 524321
EndChar

StartChar: O
Encoding: 79 79 15
Width: 631
Flags: HW
LayerCount: 2
Fore
SplineSet
294 112 m 1
 309.333333333 119.333333333 324.333333333 119.333333333 339 112 c 0
 349.666666667 106.666666667 359.666666667 105.333333333 369 108 c 0
 379 110.666666667 389.333333333 118.333333333 400 131 c 0
 427.333333333 161.666666667 446 206 456 264 c 0
 466.666666667 324 463.666666667 375 447 417 c 0
 432.333333333 454.333333333 408.333333333 474.333333333 375 477 c 0
 307.666666667 481.666666667 255.333333333 467 218 433 c 0
 185.333333333 403.666666667 168 364.333333333 166 315 c 0
 164.666666667 265 179 219.666666667 209 179 c 0
 231 149 259.333333333 126.666666667 294 112 c 1
325 0 m 0
 242.333333333 14.6666666667 177 54.3333333333 129 119 c 0
 84.3333333333 178.333333333 63.3333333333 245 66 319 c 0
 69.3333333333 395.666666667 97.3333333333 458.333333333 150 507 c 0
 208.666666667 560.333333333 286 583.666666667 382 577 c 0
 419.333333333 574.333333333 451.5 562.166666667 478.5 540.5 c 128
 505.5 518.833333333 526 489.666666667 540 453 c 0
 563.333333333 393.666666667 568.333333333 325 555 247 c 0
 541.666666667 170.333333333 515.333333333 109.666666667 476 65 c 0
 452 37.6666666667 425.333333333 20 396 12 c 0
 384 8.66666666667 372 7 360 7 c 1
 348.666666667 0.333333333333 337 -2 325 0 c 0
EndSplineSet
Validated: 524321
EndChar

StartChar: P
Encoding: 80 80 16
Width: 577
Flags: HW
LayerCount: 2
Fore
SplineSet
235 304 m 0
 235.666666667 303.333333333 236.666666667 303 238 303 c 0
 259.333333333 301.666666667 275 301 285 301 c 0
 314.333333333 301 340 305.333333333 362 314 c 0
 395.333333333 327.333333333 410.333333333 350 407 382 c 0
 405.666666667 398 399.666666667 412.666666667 389 426 c 128
 378.333333333 439.333333333 364.666666667 449.333333333 348 456 c 0
 328 463.333333333 304.333333333 468.333333333 277 471 c 0
 261 472.333333333 240.333333333 473 215 473 c 1
 215.666666667 462.333333333 217.666666667 448.666666667 221 432 c 0
 221 428.666666667 221.666666667 424.333333333 223 419 c 0
 229 385 232.333333333 359 233 341 c 0
 233.666666667 329 234.333333333 316.666666667 235 304 c 0
118 574 m 0
 134.666666667 572.666666667 158.666666667 572.333333333 190 573 c 2
 194 573 l 2
 234 573 264.333333333 572 285 570 c 0
 321.666666667 567.333333333 354.666666667 560.333333333 384 549 c 0
 418 536.333333333 446.166666667 515.833333333 468.5 487.5 c 128
 490.833333333 459.166666667 503.666666667 427.333333333 507 392 c 0
 511 355.333333333 503.333333333 321.5 484 290.5 c 128
 464.666666667 259.5 436.666666667 236.333333333 400 221 c 0
 365.333333333 207 326.666666667 200.333333333 284 201 c 0
 272.666666667 201 256.333333333 201.666666667 235 203 c 1
 235 197 235 197 235 191 c 0
 235 181.666666667 234.666666667 167.333333333 234 148 c 0
 233.333333333 106 233 74.3333333333 233 53 c 0
 233 39.6666666667 228.166666667 28 218.5 18 c 128
 208.833333333 8 197.166666667 3 183.5 3 c 128
 169.833333333 3 158 8 148 18 c 128
 138 28 133 39.6666666667 133 53 c 0
 133 74.3333333333 133.333333333 106.333333333 134 149 c 0
 134.666666667 168.333333333 135 183 135 193 c 0
 135 214 135 214 135 232 c 1
 131 239.333333333 129 247.333333333 129 256 c 0
 129 264 131 271.666666667 135 279 c 1
 135 299.666666667 134.333333333 319 133 337 c 0
 132.333333333 349.666666667 129.333333333 371.333333333 124 402 c 0
 123.333333333 407.333333333 122.666666667 411.666666667 122 415 c 0
 118 437 115.666666667 455.333333333 115 470 c 0
 114.333333333 471.333333333 114 472.666666667 114 474 c 1
 113 474 113 474 112 474 c 0
 98 475.333333333 86.5 481.166666667 77.5 491.5 c 128
 68.5 501.833333333 64.5 513.833333333 65.5 527.5 c 128
 66.5 541.166666667 72.1666666667 552.5 82.5 561.5 c 128
 92.8333333333 570.5 104.666666667 574.666666667 118 574 c 0
EndSplineSet
Validated: 524321
EndChar

StartChar: R
Encoding: 82 82 17
Width: 578
Flags: HW
LayerCount: 2
Fore
SplineSet
305 246 m 1
 317.666666667 238 325.333333333 233.333333333 328 232 c 0
 368 206.666666667 399 185 421 167 c 0
 455.666666667 139.666666667 482 112.333333333 500 85 c 0
 507.333333333 73.6666666667 509.666666667 61.1666666667 507 47.5 c 128
 504.333333333 33.8333333333 497.333333333 23.1666666667 486 15.5 c 128
 474.666666667 7.83333333333 462.166666667 5.5 448.5 8.5 c 128
 434.833333333 11.5 424.333333333 18.6666666667 417 30 c 0
 404.333333333 48.6666666667 385 68.3333333333 359 89 c 0
 339 104.333333333 311 123.666666667 275 147 c 0
 272.333333333 149 265 153.666666667 253 161 c 128
 241 168.333333333 234 172.666666667 232 174 c 0
 215.333333333 184.666666667 201.666666667 193.666666667 191 201 c 0
 188.333333333 203 186 204.666666667 184 206 c 1
 188 137.333333333 190 82.6666666667 190 42 c 0
 190 28 185.166666667 16.1666666667 175.5 6.5 c 128
 165.833333333 -3.16666666667 154 -8 140 -8 c 128
 126 -8 114.166666667 -3.16666666667 104.5 6.5 c 128
 94.8333333333 16.1666666667 90 28 90 42 c 0
 90 83.3333333333 87.3333333333 146.333333333 82 231 c 0
 78.6666666667 286.333333333 76.3333333333 327.666666667 75 355 c 0
 73 399.666666667 72.6666666667 440 74 476 c 1
 64 476 54.6666666667 479 46 485 c 128
 37.3333333333 491 31.3333333333 499 28 509 c 0
 23.3333333333 521.666666667 24 534.333333333 30 547 c 128
 36 559.666666667 45.3333333333 568.333333333 58 573 c 0
 73.3333333333 578.333333333 90.3333333333 582.333333333 109 585 c 0
 117 588.333333333 125 589.666666667 133 589 c 0
 134.333333333 589 135.666666667 588.666666667 137 588 c 0
 165.666666667 590 195 588.666666667 225 584 c 0
 263 578.666666667 311.666666667 565.666666667 371 545 c 0
 403.666666667 533.666666667 429.5 516.666666667 448.5 494 c 128
 467.5 471.333333333 478.333333333 447.333333333 481 422 c 128
 483.666666667 396.666666667 478.166666667 371 464.5 345 c 128
 450.833333333 319 429.333333333 296.666666667 400 278 c 0
 374.666666667 262.666666667 343 252 305 246 c 1
197 347 m 0
 221 341.666666667 247.833333333 340.5 277.5 343.5 c 128
 307.166666667 346.5 330.333333333 353 347 363 c 0
 361 371.666666667 370.666666667 381 376 391 c 0
 380 398.333333333 381.666666667 405.166666667 381 411.5 c 128
 380.333333333 417.833333333 377.333333333 424 372 430 c 0
 364 438.666666667 353 445.333333333 339 450 c 0
 285 468.666666667 242 480.666666667 210 486 c 0
 198.666666667 487.333333333 187 488.333333333 175 489 c 1
 173 451 173 407.666666667 175 359 c 1
 179 357.666666667 183 355.666666667 187 353 c 0
 189 351.666666667 191.666666667 350 195 348 c 0
 195.666666667 347.333333333 196.333333333 347 197 347 c 0
EndSplineSet
Validated: 524321
EndChar

StartChar: S
Encoding: 83 83 18
Width: 555
Flags: HW
LayerCount: 2
Fore
SplineSet
432 486 m 0
 363.333333333 490 306.666666667 485 262 471 c 0
 246.666666667 466.333333333 234.833333333 460.666666667 226.5 454 c 128
 218.166666667 447.333333333 211 438 205 426 c 0
 203.666666667 422.666666667 202.666666667 419.666666667 202 417 c 2
 202 416 l 2
 202 415.333333333 202.666666667 414.333333333 204 413 c 0
 212 404.333333333 232 393 264 379 c 0
 265.333333333 379 272.5 376.166666667 285.5 370.5 c 128
 298.5 364.833333333 307 361.333333333 311 360 c 0
 333.666666667 350 352.666666667 340.666666667 368 332 c 0
 390 319.333333333 408.333333333 306 423 292 c 0
 463.666666667 253.333333333 482.333333333 206.666666667 479 152 c 0
 477 122.666666667 465.666666667 94.3333333333 445 67 c 0
 428.333333333 44.3333333333 408 25.6666666667 384 11 c 0
 346.666666667 -11.6666666667 299 -18.3333333333 241 -9 c 0
 202.333333333 -3 161.666666667 9 119 27 c 0
 106.333333333 33 97.5 42.3333333333 92.5 55 c 128
 87.5 67.6666666667 87.6666666667 80.3333333333 93 93 c 128
 98.3333333333 105.666666667 107.5 114.5 120.5 119.5 c 128
 133.5 124.5 146.333333333 124.333333333 159 119 c 0
 195.666666667 103.666666667 229.5 93.8333333333 260.5 89.5 c 128
 291.5 85.1666666667 315.333333333 87.6666666667 332 97 c 0
 344.666666667 105 355.5 114.833333333 364.5 126.5 c 128
 373.5 138.166666667 378.333333333 148.666666667 379 158 c 0
 380.333333333 181.333333333 373 201 357 217 c 128
 341 233 312.333333333 250 271 268 c 0
 267.666666667 269.333333333 259.5 272.833333333 246.5 278.5 c 128
 233.5 284.166666667 226 287.333333333 224 288 c 0
 204 296.666666667 188 304.333333333 176 311 c 0
 157.333333333 321.666666667 142.333333333 332.666666667 131 344 c 0
 97.6666666667 380 92.3333333333 421.666666667 115 469 c 0
 137.666666667 517 177 549.666666667 233 567 c 128
 289 584.333333333 357.333333333 590.666666667 438 586 c 0
 452 584.666666667 463.5 578.833333333 472.5 568.5 c 128
 481.5 558.166666667 485.666666667 546.166666667 485 532.5 c 128
 484.333333333 518.833333333 478.833333333 507.5 468.5 498.5 c 128
 458.166666667 489.5 446 485.333333333 432 486 c 0
EndSplineSet
Validated: 524321
EndChar

StartChar: T
Encoding: 84 84 19
Width: 715
Flags: HW
LayerCount: 2
Fore
SplineSet
59 582 m 0
 65.6666666667 586 75 589 87 591 c 0
 93 592.333333333 101 593.666666667 111 595 c 0
 127 596.333333333 148.333333333 597.333333333 175 598 c 0
 221.666666667 599.333333333 280 599.666666667 350 599 c 0
 412 598.333333333 468.666666667 597 520 595 c 0
 544 594.333333333 563 593.666666667 577 593 c 0
 585 592.333333333 591 591.666666667 595 591 c 0
 609 589.666666667 617.5 588.166666667 620.5 586.5 c 128
 623.5 584.833333333 628.333333333 579.666666667 635 571 c 0
 643.666666667 560.333333333 647.166666667 548.166666667 645.5 534.5 c 128
 643.833333333 520.833333333 637.666666667 509.666666667 627 501 c 0
 613.666666667 490.333333333 599 487.333333333 583 492 c 0
 582 492 582 492 582 492 c 1
 572 494.666666667 563.666666667 500.333333333 557 509 c 1
 559 506.333333333 560.833333333 503.666666667 562.5 501 c 128
 564.166666667 498.333333333 565.166666667 496.833333333 565.5 496.5 c 128
 565.833333333 496.166666667 567 495.5 569 494.5 c 128
 571 493.5 572.666666667 493 574 493 c 128
 575.333333333 493 578 492.666666667 582 492 c 1
 578.666666667 492 574.666666667 492.333333333 570 493 c 0
 557.333333333 493.666666667 539.333333333 494.333333333 516 495 c 0
 474.666666667 497 428.333333333 498.333333333 377 499 c 1
 378.333333333 473.666666667 379 445.666666667 379 415 c 0
 379 390.333333333 378 354 376 306 c 0
 376 305 376 305 376 303 c 0
 376 302 376 302 376 301 c 0
 374 244.333333333 373.333333333 201.666666667 374 173 c 0
 374.666666667 127.666666667 377.666666667 87.3333333333 383 52 c 0
 385.666666667 38.6666666667 383 26.3333333333 375 15 c 128
 367 3.66666666667 356.166666667 -3.16666666667 342.5 -5.5 c 128
 328.833333333 -7.83333333333 316.333333333 -4.83333333333 305 3.5 c 128
 293.666666667 11.8333333333 287 22.6666666667 285 36 c 0
 278.333333333 76 274.666666667 121 274 171 c 0
 273.333333333 201.666666667 274 246.333333333 276 305 c 0
 276 306 276 306 276 309 c 0
 278 356.333333333 279 391.666666667 279 415 c 0
 279 446.333333333 278.333333333 474.333333333 277 499 c 1
 239 499 206 498.666666667 178 498 c 0
 153.333333333 497.333333333 134 496.333333333 120 495 c 0
 113.333333333 494.333333333 108.333333333 493.666666667 105 493 c 0
 93.6666666667 488.333333333 82 487.833333333 70 491.5 c 128
 58 495.166666667 48.6666666667 502.333333333 42 513 c 0
 35.3333333333 524.333333333 33.5 536.833333333 36.5 550.5 c 128
 39.5 564.166666667 47 574.666666667 59 582 c 0
582 492 m 1
 582 492 l 1
 582 492 582 492 582 492 c 129
 582 492 582 492 582 492 c 1
EndSplineSet
Validated: 524325
EndChar

StartChar: U
Encoding: 85 85 20
Width: 579
Flags: HW
LayerCount: 2
Fore
SplineSet
153 526 m 0
 136.333333333 372.666666667 142.333333333 260.666666667 171 190 c 0
 180.333333333 166.666666667 191 151 203 143 c 0
 211 138.333333333 220 137.333333333 230 140 c 0
 246 144.666666667 263.166666667 156.833333333 281.5 176.5 c 128
 299.833333333 196.166666667 316.333333333 221.333333333 331 252 c 0
 351 290.666666667 365.666666667 333.666666667 375 381 c 1
 379 423 381.666666667 452.333333333 383 469 c 0
 384.333333333 497 384 518.666666667 382 534 c 0
 380 548 383.166666667 560.5 391.5 571.5 c 128
 399.833333333 582.5 410.833333333 588.833333333 424.5 590.5 c 128
 438.166666667 592.166666667 450.5 588.833333333 461.5 580.5 c 128
 472.5 572.166666667 479 561.333333333 481 548 c 0
 481 546.666666667 481.333333333 545.666666667 482 545 c 0
 486.666666667 537 489 528 489 518 c 0
 489 466 484 415.666666667 474 367 c 0
 472.666666667 347.666666667 471.333333333 332.333333333 470 321 c 0
 465.333333333 264.333333333 465 220.333333333 469 189 c 0
 472.333333333 153 481 128.333333333 495 115 c 0
 504.333333333 105.666666667 509 94 509 80 c 128
 509 66 504.166666667 54.1666666667 494.5 44.5 c 128
 484.833333333 34.8333333333 473 30 459 30 c 128
 445 30 433.333333333 35 424 45 c 0
 401.333333333 67 385.333333333 97 376 135 c 1
 339.333333333 86.3333333333 299.666666667 56 257 44 c 0
 218.333333333 33.3333333333 182.666666667 38 150 58 c 0
 119.333333333 77.3333333333 95.3333333333 109 78 153 c 0
 43.3333333333 239 35.3333333333 367 54 537 c 0
 55.3333333333 551 61.3333333333 562.333333333 72 571 c 128
 82.6666666667 579.666666667 94.8333333333 583.166666667 108.5 581.5 c 128
 122.166666667 579.833333333 133.333333333 573.666666667 142 563 c 128
 150.666666667 552.333333333 154.333333333 540 153 526 c 0
EndSplineSet
Validated: 524321
EndChar

StartChar: V
Encoding: 86 86 21
Width: 690
Flags: HW
LayerCount: 2
Fore
SplineSet
159 520 m 0
 157.666666667 508.666666667 163.333333333 490.333333333 176 465 c 0
 180.666666667 455.666666667 187.333333333 443.666666667 196 429 c 0
 197.333333333 427 199 424.333333333 201 421 c 2
 204 416 l 2
 205 414 205 414 206 412 c 0
 210.666666667 404.666666667 214.333333333 398.666666667 217 394 c 0
 225 380 231 368 235 358 c 0
 236.333333333 355.333333333 240.166666667 346.5 246.5 331.5 c 128
 252.833333333 316.5 259.333333333 301 266 285 c 128
 272.666666667 269 279 253.666666667 285 239 c 128
 291 224.333333333 294.333333333 216.666666667 295 216 c 0
 295.666666667 214.666666667 296.333333333 213 297 211 c 0
 305 191 312.333333333 173.333333333 319 158 c 1
 328.333333333 175.333333333 340 197.666666667 354 225 c 0
 360 236.333333333 367.666666667 250.666666667 377 268 c 2
 388 290 l 2
 393.333333333 300 397.333333333 307.666666667 400 313 c 0
 400.666666667 314.333333333 401.333333333 315.333333333 402 316 c 0
 470.666666667 448.666666667 512.666666667 526.333333333 528 549 c 0
 536 561 546.833333333 568.333333333 560.5 571 c 128
 574.166666667 573.666666667 586.666666667 571.166666667 598 563.5 c 128
 609.333333333 555.833333333 616.333333333 545.166666667 619 531.5 c 128
 621.666666667 517.833333333 619.333333333 505.333333333 612 494 c 0
 598.666666667 474 558 399.333333333 490 270 c 0
 489.333333333 268.666666667 489 267.666666667 489 267 c 2
 465 222 l 2
 456.333333333 204 449 189.333333333 443 178 c 0
 426.333333333 146 412.666666667 120.333333333 402 101 c 0
 388.666666667 76.3333333333 378.333333333 57.6666666667 371 45 c 0
 367 37.6666666667 363.666666667 31.6666666667 361 27 c 0
 358.333333333 23.6666666667 356 21 354 19 c 0
 348.666666667 12.3333333333 343.666666667 7.5 339 4.5 c 128
 334.333333333 1.5 327.333333333 -0.333333333333 318 -1 c 0
 306.666666667 -1.66666666667 298 -0.5 292 2.5 c 128
 286 5.5 280 11.3333333333 274 20 c 0
 272 22 270.166666667 24.5 268.5 27.5 c 128
 266.833333333 30.5 264.666666667 34.3333333333 262 39 c 0
 258 47 253 58.3333333333 247 73 c 0
 237 96.3333333333 222.666666667 129.666666667 204 173 c 0
 203 175 203 175 202 177 c 0
 202 177.666666667 199 185.333333333 193 200 c 128
 187 214.666666667 180.666666667 230 174 246 c 128
 167.333333333 262 160.833333333 277.333333333 154.5 292 c 128
 148.166666667 306.666666667 144.333333333 315.333333333 143 318 c 0
 140.333333333 324.666666667 136 333.666666667 130 345 c 0
 127.333333333 349 124 354.333333333 120 361 c 0
 119 363 119 363 118 365 c 0
 116.666666667 367.666666667 115.666666667 369.333333333 115 370 c 0
 113 373.333333333 111.333333333 376.333333333 110 379 c 0
 100.666666667 395 93 408.666666667 87 420 c 0
 77 438.666666667 70 456 66 472 c 0
 59.3333333333 494 57.3333333333 514.333333333 60 533 c 0
 61.3333333333 546.333333333 67.5 557.333333333 78.5 566 c 128
 89.5 574.666666667 101.833333333 578.166666667 115.5 576.5 c 128
 129.166666667 574.833333333 140.166666667 568.5 148.5 557.5 c 128
 156.833333333 546.5 160.333333333 534 159 520 c 0
EndSplineSet
Validated: 524321
EndChar

StartChar: W
Encoding: 87 87 22
Width: 655
Flags: HW
LayerCount: 2
Fore
SplineSet
134 526 m 0
 136 483.333333333 145 407.333333333 161 298 c 0
 167.666666667 251.333333333 174.333333333 212 181 180 c 1
 197 210 214 247.333333333 232 292 c 0
 232 293 232 293 232 294 c 2
 233 295 l 2
 233.666666667 298.333333333 234.666666667 301 236 303 c 0
 237.333333333 307.666666667 239 311.666666667 241 315 c 0
 243.666666667 319.666666667 246.333333333 324 249 328 c 0
 252.333333333 332 256 335.333333333 260 338 c 0
 268.666666667 344 278.333333333 347 289 347 c 0
 297 347 304.666666667 345.333333333 312 342 c 0
 316.666666667 340 321 337.333333333 325 334 c 0
 329 330 333 325.333333333 337 320 c 0
 341 315.333333333 344.666666667 309.666666667 348 303 c 0
 350 299 352.333333333 295 355 291 c 0
 355.666666667 289.666666667 356.333333333 288 357 286 c 2
 357 285 l 1
 358 284 l 2
 358.666666667 282.666666667 359.666666667 280.333333333 361 277 c 0
 361 276.333333333 361.333333333 275.666666667 362 275 c 2
 365 268 l 2
 367 263.333333333 369.166666667 258.333333333 371.5 253 c 128
 373.833333333 247.666666667 376.333333333 242 379 236 c 128
 381.666666667 230 383.666666667 225.666666667 385 223 c 0
 394.333333333 201.666666667 403.333333333 183.666666667 412 169 c 1
 417.333333333 193.666666667 423.666666667 232 431 284 c 0
 431.666666667 286.666666667 432.5 291.166666667 433.5 297.5 c 128
 434.5 303.833333333 435.333333333 309.833333333 436 315.5 c 128
 436.666666667 321.166666667 437 324.333333333 437 325 c 0
 446.333333333 384.333333333 454 429 460 459 c 0
 469.333333333 507.666666667 479.666666667 543.333333333 491 566 c 0
 497 578 506.666666667 586.166666667 520 590.5 c 128
 533.333333333 594.833333333 546.166666667 594 558.5 588 c 128
 570.833333333 582 579.166666667 572.333333333 583.5 559 c 128
 587.833333333 545.666666667 587 533 581 521 c 0
 573.666666667 506.333333333 566 479.333333333 558 440 c 0
 552 411.333333333 544.666666667 368 536 310 c 0
 536 309.333333333 535.666666667 306.166666667 535 300.5 c 128
 534.333333333 294.833333333 533.5 288.833333333 532.5 282.5 c 128
 531.5 276.166666667 530.666666667 271.666666667 530 269 c 0
 521.333333333 209 513.666666667 164.666666667 507 136 c 0
 502.333333333 114.666666667 497.666666667 97.3333333333 493 84 c 0
 485.666666667 63.3333333333 477 48 467 38 c 0
 457.666666667 28.6666666667 446.666666667 23.6666666667 434 23 c 0
 427.333333333 22.3333333333 420.333333333 23.3333333333 413 26 c 0
 407 28 401.333333333 31 396 35 c 0
 393 37 393 37 390 39 c 0
 388 41 388 41 385 44 c 0
 384.333333333 44 383.666666667 44.3333333333 383 45 c 0
 364.333333333 63 346.666666667 85 330 111 c 0
 318.666666667 129.666666667 306.666666667 153.333333333 294 182 c 1
 293 182 l 1
 272.333333333 136.666666667 250 97 226 63 c 1
 226 62 l 1
 225 61 l 2
 223 58.3333333333 221.333333333 56 220 54 c 0
 217.333333333 50 214.333333333 46.6666666667 211 44 c 0
 205.666666667 38 199.666666667 33.3333333333 193 30 c 0
 181.666666667 24.6666666667 169.833333333 23 157.5 25 c 128
 145.166666667 27 134.333333333 32.6666666667 125 42 c 128
 115.666666667 51.3333333333 107.333333333 66.6666666667 100 88 c 0
 96 102 91.6666666667 119.666666667 87 141 c 0
 79 178.333333333 70.6666666667 225.666666667 62 283 c 0
 45.3333333333 396.333333333 36 476 34 522 c 0
 33.3333333333 536 37.8333333333 548 47.5 558 c 128
 57.1666666667 568 68.8333333333 573.333333333 82.5 574 c 128
 96.1666666667 574.666666667 108 570.333333333 118 561 c 128
 128 551.666666667 133.333333333 540 134 526 c 0
EndSplineSet
Validated: 524321
EndChar

StartChar: X
Encoding: 88 88 23
Width: 593
Flags: HW
LayerCount: 2
Fore
SplineSet
127 549 m 0
 139.666666667 530.333333333 164 503.666666667 200 469 c 2
 201 468 l 2
 202.333333333 467.333333333 203 466.666666667 203 466 c 0
 229.666666667 440.666666667 249.333333333 420.666666667 262 406 c 0
 270.666666667 395.333333333 279.666666667 385 289 375 c 1
 338.333333333 432.333333333 385.666666667 489.333333333 431 546 c 0
 439.666666667 556.666666667 450.833333333 562.833333333 464.5 564.5 c 128
 478.166666667 566.166666667 490.333333333 562.666666667 501 554 c 128
 511.666666667 545.333333333 517.833333333 534.166666667 519.5 520.5 c 128
 521.166666667 506.833333333 517.666666667 494.666666667 509 484 c 0
 459 421.333333333 406.666666667 358.333333333 352 295 c 1
 359 287 l 2
 391 247 415.666666667 216.666666667 433 196 c 0
 460.333333333 164 485.666666667 136.333333333 509 113 c 0
 518.333333333 103 523 91.1666666667 523 77.5 c 128
 523 63.8333333333 518.166666667 52 508.5 42 c 128
 498.833333333 32 487.166666667 27 473.5 27 c 128
 459.833333333 27 448 32 438 42 c 0
 412.666666667 67.3333333333 385.333333333 97.3333333333 356 132 c 0
 338.666666667 152.666666667 315 181.666666667 285 219 c 1
 231.666666667 159 178 100.333333333 124 43 c 0
 114 33 102.166666667 27.8333333333 88.5 27.5 c 128
 74.8333333333 27.1666666667 63 31.8333333333 53 41.5 c 128
 43 51.1666666667 37.8333333333 62.8333333333 37.5 76.5 c 128
 37.1666666667 90.1666666667 41.6666666667 102 51 112 c 0
 109 172.666666667 166 234.666666667 222 298 c 1
 210 313.333333333 198 327.666666667 186 341 c 0
 175.333333333 353 158 370.666666667 134 394 c 0
 132 395.333333333 131 396.333333333 131 397 c 0
 111.666666667 415.666666667 97 430.333333333 87 441 c 0
 69.6666666667 459 55.6666666667 476.333333333 45 493 c 0
 37 504.333333333 34.3333333333 516.666666667 37 530 c 128
 39.6666666667 543.333333333 46.6666666667 554 58 562 c 128
 69.3333333333 570 81.6666666667 572.666666667 95 570 c 128
 108.333333333 567.333333333 119 560.333333333 127 549 c 0
EndSplineSet
Validated: 524321
EndChar

StartChar: Y
Encoding: 89 89 24
Width: 619
Flags: HW
LayerCount: 2
Fore
SplineSet
46 76 m 0
 55.3333333333 86 80.3333333333 115.333333333 121 164 c 0
 125.666666667 169.333333333 134.166666667 179.333333333 146.5 194 c 128
 158.833333333 208.666666667 173.666666667 226.5 191 247.5 c 128
 208.333333333 268.5 220.666666667 283.333333333 228 292 c 1
 222 300.666666667 215.333333333 309.666666667 208 319 c 0
 197.333333333 331 181.666666667 348.333333333 161 371 c 2
 158 374 l 2
 130.666666667 403.333333333 110.666666667 426 98 442 c 0
 75.3333333333 470 57.3333333333 497 44 523 c 0
 37.3333333333 535 36.1666666667 547.666666667 40.5 561 c 128
 44.8333333333 574.333333333 53 584.166666667 65 590.5 c 128
 77 596.833333333 89.6666666667 597.833333333 103 593.5 c 128
 116.333333333 589.166666667 126.333333333 581 133 569 c 0
 143 549 157.333333333 527.666666667 176 505 c 0
 187.333333333 490.333333333 205.666666667 469.333333333 231 442 c 2
 232 441 l 1
 234 439 l 2
 256 415 272.666666667 396.333333333 284 383 c 0
 289 377 289 377 294 371 c 1
 334.666666667 419 367.333333333 457.333333333 392 486 c 0
 413.333333333 510.666666667 429.666666667 529.333333333 441 542 c 0
 447.666666667 549.333333333 453 555 457 559 c 0
 461 563 461 563 464 566 c 0
 473.333333333 574 483.333333333 578.666666667 494 580 c 0
 507.333333333 581.333333333 519.5 577.666666667 530.5 569 c 128
 541.5 560.333333333 547.666666667 549.166666667 549 535.5 c 128
 550.333333333 521.833333333 546.666666667 509.666666667 538 499 c 128
 529.333333333 488.333333333 518.333333333 482 505 480 c 1
 515 481.333333333 522.666666667 484.333333333 528 489 c 1
 525.333333333 486.333333333 521 481.666666667 515 475 c 0
 504.333333333 463 488.666666667 445 468 421 c 0
 436 383.666666667 389 328 327 254 c 0
 326.333333333 253.333333333 325.666666667 252.333333333 325 251 c 0
 318.333333333 243 297.166666667 217.833333333 261.5 175.5 c 128
 225.833333333 133.166666667 204.666666667 108 198 100 c 0
 156 50 130.333333333 19.6666666667 121 9 c 0
 111.666666667 -1 100 -6.5 86 -7.5 c 128
 72 -8.5 60 -4.33333333333 50 5 c 128
 40 14.3333333333 34.5 25.8333333333 33.5 39.5 c 128
 32.5 53.1666666667 36.6666666667 65.3333333333 46 76 c 0
EndSplineSet
Validated: 524321
EndChar

StartChar: Z
Encoding: 90 90 25
Width: 657
Flags: HW
LayerCount: 2
Fore
SplineSet
97 596 m 0
 133 603.333333333 178.333333333 604 233 598 c 0
 242.333333333 596.666666667 256 595 274 593 c 0
 306.666666667 588.333333333 330.333333333 585.666666667 345 585 c 0
 347 585 360.333333333 585.333333333 385 586 c 0
 403 586.666666667 418 587 430 587 c 0
 457.333333333 587.666666667 479.333333333 587 496 585 c 0
 508.666666667 583 519.333333333 580.666666667 528 578 c 0
 534.666666667 575.333333333 540.666666667 572.333333333 546 569 c 0
 554.666666667 563.666666667 561.333333333 557 566 549 c 0
 576 532.333333333 577.666666667 514.666666667 571 496 c 0
 567.666666667 487.333333333 562.333333333 478.666666667 555 470 c 0
 548 463 548 463 539 454 c 0
 535.666666667 451.333333333 531.666666667 448 527 444 c 0
 524.333333333 442 523 440.666666667 523 440 c 0
 505.666666667 423.333333333 485 403.333333333 461 380 c 0
 456.333333333 375.333333333 445.166666667 364.5 427.5 347.5 c 128
 409.833333333 330.5 400 321 398 319 c 0
 347.333333333 270.333333333 307 230.333333333 277 199 c 0
 251.666666667 171.666666667 229 145.666666667 209 121 c 1
 214.333333333 121.666666667 220.666666667 122 228 122 c 0
 230 122.666666667 234.666666667 123.333333333 242 124 c 2
 252 124 l 2
 260.666666667 124.666666667 267 125 271 125 c 0
 315 125 315 125 404 125 c 0
 411 125 411 125 413 125 c 0
 467 124.333333333 508.666666667 124 538 124 c 0
 551.333333333 124 563 119.166666667 573 109.5 c 128
 583 99.8333333333 588 88 588 74 c 128
 588 60 583 48.1666666667 573 38.5 c 128
 563 28.8333333333 551.333333333 24 538 24 c 0
 508 24 466.333333333 24.3333333333 413 25 c 0
 410 25 410 25 404 25 c 0
 315 25 315 25 271 25 c 0
 269.666666667 25 265.666666667 24.6666666667 259 24 c 2
 254 24 l 2
 250.666666667 24 247 23.8333333333 243 23.5 c 128
 239 23.1666666667 236.333333333 23 235 23 c 0
 219.666666667 21.6666666667 206.333333333 20.6666666667 195 20 c 0
 171.666666667 19.3333333333 152.333333333 19.6666666667 137 21 c 0
 125.666666667 22.3333333333 116 24.3333333333 108 27 c 0
 102 29 96.3333333333 31.6666666667 91 35 c 0
 81.6666666667 41 74.6666666667 48.3333333333 70 57 c 0
 64 68.3333333333 62.6666666667 80.6666666667 66 94 c 0
 66.6666666667 96.6666666667 67.6666666667 99.6666666667 69 103 c 0
 71 106 71 106 73 109 c 0
 73.6666666667 111 75 113 77 115 c 0
 78.3333333333 117 80.6666666667 120 84 124 c 0
 86 126 88 128.666666667 90 132 c 0
 90.6666666667 132 91 132.333333333 91 133 c 2
 92 134 l 1
 122.666666667 176 160 220.333333333 204 267 c 0
 235.333333333 300.333333333 276.666666667 341.666666667 328 391 c 0
 330.666666667 393.666666667 340.833333333 403.5 358.5 420.5 c 128
 376.166666667 437.5 387 448 391 452 c 0
 405 465.333333333 417.333333333 477 428 487 c 1
 418 487 405 486.666666667 389 486 c 0
 361 485.333333333 344.333333333 485 339 485 c 0
 321.666666667 486.333333333 295.333333333 489.333333333 260 494 c 0
 243.333333333 496 230.666666667 497.666666667 222 499 c 0
 178 503.666666667 143.333333333 503.333333333 118 498 c 0
 104.666666667 494.666666667 92.1666666667 496.833333333 80.5 504.5 c 128
 68.8333333333 512.166666667 61.5 522.666666667 58.5 536 c 128
 55.5 549.333333333 57.8333333333 561.833333333 65.5 573.5 c 128
 73.1666666667 585.166666667 83.6666666667 592.666666667 97 596 c 0
EndSplineSet
Validated: 524321
EndChar

StartChar: greater
Encoding: 62 62 26
Width: 659
Flags: HW
LayerCount: 2
Fore
SplineSet
131 560 m 0
 155 545.333333333 183.333333333 531 216 517 c 0
 239.333333333 507.666666667 271 495.666666667 311 481 c 0
 314.333333333 479.666666667 318.333333333 478.333333333 323 477 c 0
 323.666666667 476.333333333 325.666666667 475.333333333 329 474 c 128
 332.333333333 472.666666667 334.333333333 472 335 472 c 0
 381.666666667 455.333333333 417.333333333 441.666666667 442 431 c 0
 442.666666667 430.333333333 449 428 461 424 c 0
 462.333333333 423.333333333 468.5 420.833333333 479.5 416.5 c 128
 490.5 412.166666667 497 409.333333333 499 408 c 2
 500 408 l 1
 518 401.333333333 531.333333333 396 540 392 c 0
 546 390 550.666666667 388.333333333 554 387 c 0
 556 386.333333333 557.5 385.666666667 558.5 385 c 128
 559.5 384.333333333 560.333333333 384 561 384 c 0
 562.333333333 383.333333333 563.5 382.666666667 564.5 382 c 128
 565.5 381.333333333 567.333333333 380 570 378 c 0
 571.333333333 377.333333333 572.666666667 376.333333333 574 375 c 128
 576 373 576 373 580 369 c 0
 582 366 582 366 584 363 c 0
 585.333333333 359.666666667 586.666666667 356 588 352 c 0
 589.333333333 346.666666667 590 340.666666667 590 334 c 0
 588.666666667 326.666666667 586.333333333 319.666666667 583 313 c 0
 570.333333333 291.666666667 541.333333333 267.666666667 496 241 c 0
 467.333333333 223.666666667 425.333333333 201 370 173 c 0
 360 168 360 168 348 162 c 0
 345.333333333 161.333333333 338.666666667 158.333333333 328 153 c 128
 317.333333333 147.666666667 311 144.333333333 309 143 c 0
 294.333333333 135.666666667 282 129.666666667 272 125 c 0
 245.333333333 111 223.666666667 99.3333333333 207 90 c 0
 187 79.3333333333 172 70.3333333333 162 63 c 0
 157.333333333 59.6666666667 154 57 152 55 c 0
 145.333333333 43.6666666667 136 36 124 32 c 128
 112 28 100.333333333 28.3333333333 89 33 c 0
 76.3333333333 38.3333333333 67.3333333333 47.5 62 60.5 c 128
 56.6666666667 73.5 56.6666666667 86.3333333333 62 99 c 0
 66 108.333333333 72.6666666667 117.333333333 82 126 c 0
 87.3333333333 132 94.3333333333 138 103 144 c 0
 117 153.333333333 135.333333333 164.666666667 158 178 c 0
 176 188 199 200 227 214 c 0
 237.666666667 218.666666667 250.333333333 225 265 233 c 0
 267 233.666666667 273.333333333 236.666666667 284 242 c 128
 294.666666667 247.333333333 301 250.666666667 303 252 c 0
 315 258 315 258 325 263 c 0
 376.333333333 288.333333333 415 308.666666667 441 324 c 1
 431.666666667 328 426 330.333333333 424 331 c 0
 412 335.666666667 405 338.333333333 403 339 c 0
 380.333333333 348.333333333 346.333333333 361.333333333 301 378 c 0
 299.666666667 378.666666667 297.333333333 379.5 294 380.5 c 128
 290.666666667 381.5 288.666666667 382 288 382 c 0
 283.333333333 384 279.333333333 385.666666667 276 387 c 0
 234.666666667 402.333333333 201.666666667 415 177 425 c 0
 139.666666667 441 107 457.333333333 79 474 c 0
 67.6666666667 480.666666667 60.1666666667 490.666666667 56.5 504 c 128
 52.8333333333 517.333333333 54.6666666667 530 62 542 c 128
 69.3333333333 554 79.6666666667 561.666666667 93 565 c 128
 106.333333333 568.333333333 119 566.666666667 131 560 c 0
EndSplineSet
Validated: 524321
EndChar

StartChar: p
Encoding: 112 112 27
Width: 563
Flags: HW
LayerCount: 2
Fore
SplineSet
387 522 m 1
 337 519.333333333 297.333333333 512.333333333 268 501 c 0
 246.666666667 492.333333333 230.833333333 481.333333333 220.5 468 c 128
 210.166666667 454.666666667 204.333333333 437.333333333 203 416 c 0
 202.333333333 402.666666667 202.666666667 393.666666667 204 389 c 0
 204.666666667 387 206.666666667 385 210 383 c 0
 228.666666667 371.666666667 247.333333333 364.666666667 266 362 c 0
 278.666666667 360.666666667 297.666666667 361 323 363 c 0
 330.333333333 363.666666667 335.666666667 364 339 364 c 0
 359.666666667 365.333333333 377.333333333 365.333333333 392 364 c 1
 391.333333333 374 390.666666667 388.333333333 390 407 c 0
 388 461 387 499.333333333 387 522 c 1
487 557 m 0
 487 527 488 478.333333333 490 411 c 0
 491.333333333 381 492.333333333 357.666666667 493 341 c 0
 495.666666667 222.333333333 491.666666667 130 481 64 c 0
 479 50.6666666667 472.333333333 40 461 32 c 128
 449.666666667 24 437.166666667 21.1666666667 423.5 23.5 c 128
 409.833333333 25.8333333333 399 32.5 391 43.5 c 128
 383 54.5 380 67 382 81 c 0
 390 128.333333333 394 189 394 263 c 1
 382 265.666666667 366 266 346 264 c 0
 343.333333333 264 338.333333333 263.666666667 331 263 c 0
 315.666666667 261.666666667 304 261 296 261 c 0
 280.666666667 260.333333333 266.666666667 261 254 263 c 0
 220 267 187.666666667 279 157 299 c 0
 133 313.666666667 117 334 109 360 c 0
 104.333333333 375.333333333 102.333333333 395.333333333 103 420 c 0
 105 464 118.666666667 501.666666667 144 533 c 0
 165.333333333 559 194.666666667 579.333333333 232 594 c 0
 260 605.333333333 293.333333333 613.333333333 332 618 c 0
 360 620.666666667 392.666666667 622 430 622 c 0
 441.333333333 622 451.5 618.5 460.5 611.5 c 128
 469.5 604.5 475.333333333 595.666666667 478 585 c 1
 484 577 487 567.666666667 487 557 c 0
EndSplineSet
Validated: 524321
EndChar

StartChar: l
Encoding: 108 108 28
Width: 572
Flags: HW
LayerCount: 2
Fore
SplineSet
497 570 m 0
 497 558.666666667 498 505.666666667 500 411 c 0
 500.666666667 378.333333333 501 350.666666667 501 328 c 0
 502.333333333 254.666666667 502.333333333 198 501 158 c 0
 500.333333333 132.666666667 499.333333333 112.333333333 498 97 c 0
 497.333333333 87.6666666667 496.333333333 79.6666666667 495 73 c 0
 493.666666667 68.3333333333 492.333333333 64 491 60 c 0
 487.666666667 52 483.333333333 45.3333333333 478 40 c 0
 470.666666667 32.6666666667 461 27.3333333333 449 24 c 0
 444.333333333 22.6666666667 438.333333333 21.6666666667 431 21 c 0
 421 19.6666666667 407.666666667 18.6666666667 391 18 c 0
 363 17.3333333333 326.666666667 17.6666666667 282 19 c 0
 198 21.6666666667 135.333333333 25 94 29 c 0
 80.6666666667 30.3333333333 69.5 36.5 60.5 47.5 c 128
 51.5 58.5 47.6666666667 70.8333333333 49 84.5 c 128
 50.3333333333 98.1666666667 56.5 109.333333333 67.5 118 c 128
 78.5 126.666666667 90.6666666667 130.333333333 104 129 c 0
 143.333333333 125 203.666666667 121.666666667 285 119 c 0
 327.666666667 117.666666667 362 117.333333333 388 118 c 0
 392 118.666666667 396 119 400 119 c 1
 400.666666667 130.333333333 401 144.333333333 401 161 c 0
 402.333333333 199.666666667 402.333333333 254.666666667 401 326 c 0
 401 348.666666667 400.666666667 376.333333333 400 409 c 0
 398 505.666666667 397.333333333 560.666666667 398 574 c 0
 398 587.333333333 403.166666667 598.666666667 413.5 608 c 128
 423.833333333 617.333333333 435.833333333 621.833333333 449.5 621.5 c 128
 463.166666667 621.166666667 474.666666667 615.833333333 484 605.5 c 128
 493.333333333 595.166666667 497.666666667 583.333333333 497 570 c 0
EndSplineSet
Validated: 524321
EndChar

StartChar: asciicircum
Encoding: 94 94 29
Width: 639
Flags: HW
LayerCount: 2
Fore
SplineSet
39 84 m 0
 45.6666666667 109.333333333 56.3333333333 136 71 164 c 0
 80.3333333333 180.666666667 94.3333333333 203.666666667 113 233 c 0
 114.333333333 235 115.333333333 236.333333333 116 237 c 0
 117 239 117 239 118 241 c 0
 120 244.333333333 122 247 124 249 c 0
 137.333333333 270.333333333 147.666666667 287.666666667 155 301 c 0
 168.333333333 326.333333333 183.333333333 362.333333333 200 409 c 0
 201.333333333 412.333333333 203.666666667 418.333333333 207 427 c 0
 224.333333333 476.333333333 240 515 254 543 c 0
 254 544 254 544 254 545 c 0
 254.666666667 545.666666667 255 546.666666667 255 548 c 0
 256.333333333 551.333333333 257.666666667 554.333333333 259 557 c 0
 265.666666667 569.666666667 275.333333333 578.666666667 288 584 c 0
 300.666666667 588.666666667 313.666666667 589 327 585 c 0
 333.666666667 582.333333333 340 578.666666667 346 574 c 0
 351.333333333 569.333333333 357 563 363 555 c 0
 366.333333333 550.333333333 369.666666667 545 373 539 c 0
 376.333333333 533.666666667 379.666666667 527.666666667 383 521 c 0
 384 519 384 519 386 515 c 0
 387 514 387 514 387 514 c 1
 387 513 l 1
 400.333333333 489.666666667 413 460 425 424 c 0
 432.333333333 401.333333333 442.333333333 368.666666667 455 326 c 0
 455 325.333333333 455.5 323.166666667 456.5 319.5 c 128
 457.5 315.833333333 458.666666667 311.833333333 460 307.5 c 128
 461.333333333 303.166666667 462 300 462 298 c 0
 478.666666667 239.333333333 493 195.666666667 505 167 c 0
 521 127 537.666666667 98 555 80 c 0
 565 70.6666666667 570 59 570 45 c 128
 570 31 565.166666667 19.1666666667 555.5 9.5 c 128
 545.833333333 -0.166666666667 534 -5 520 -5 c 128
 506 -5 494.333333333 0 485 10 c 0
 457.666666667 37.3333333333 433.333333333 77.3333333333 412 130 c 0
 399.333333333 162 384 209 366 271 c 0
 365.333333333 272.333333333 364.666666667 274.5 364 277.5 c 128
 363.333333333 280.5 362.5 283.5 361.5 286.5 c 128
 360 291 360 291 359 294 c 2
 358 298 l 2
 346.666666667 339.333333333 337.333333333 370.666666667 330 392 c 0
 324.666666667 406.666666667 319.666666667 420 315 432 c 1
 311 422 306.333333333 409 301 393 c 0
 297.666666667 384.333333333 295.333333333 378.333333333 294 375 c 0
 275.333333333 324.333333333 258.333333333 284.333333333 243 255 c 0
 235 239 223.333333333 219 208 195 c 0
 205 191 205 191 202 187 c 0
 201 185 201 185 200 183 c 2
 198 181 l 2
 197.333333333 179.666666667 197 178.666666667 197 178 c 0
 179.666666667 151.333333333 167 131 159 117 c 0
 148.333333333 96.3333333333 140.666666667 77.3333333333 136 60 c 0
 132.666666667 46 125 35.5 113 28.5 c 128
 101 21.5 88.3333333333 19.6666666667 75 23 c 128
 61.6666666667 26.3333333333 51.5 34 44.5 46 c 128
 37.5 58 35.6666666667 70.6666666667 39 84 c 0
EndSplineSet
Validated: 524321
EndChar

StartChar: k
Encoding: 107 107 30
Width: 556
Flags: HW
LayerCount: 2
Fore
SplineSet
464 553 m 0
 461.333333333 521.666666667 461.333333333 485.666666667 464 445 c 0
 465.333333333 419.666666667 468.666666667 381.333333333 474 330 c 0
 475.333333333 318.666666667 476.333333333 310 477 304 c 0
 482.333333333 248.666666667 485.333333333 204 486 170 c 0
 487.333333333 119.333333333 484.666666667 73.6666666667 478 33 c 0
 475.333333333 19 468.5 8 457.5 0 c 128
 446.5 -8 434.166666667 -10.8333333333 420.5 -8.5 c 128
 406.833333333 -6.16666666667 396 0.666666666667 388 12 c 128
 380 23.3333333333 377 35.6666666667 379 49 c 0
 385 83.6666666667 387.333333333 123 386 167 c 0
 385.333333333 186.333333333 384.333333333 207.333333333 383 230 c 1
 381 228.666666667 379.333333333 227.333333333 378 226 c 0
 350.666666667 200.666666667 321 173.333333333 289 144 c 0
 252.333333333 110.666666667 223 83.3333333333 201 62 c 0
 188.333333333 50.6666666667 178.666666667 41.6666666667 172 35 c 1
 174 37 175.166666667 38.5 175.5 39.5 c 128
 175.833333333 40.5 175.833333333 42 175.5 44 c 128
 175.166666667 46 175.333333333 49.3333333333 176 54 c 1
 174 40 167.666666667 28.6666666667 157 20 c 128
 146.333333333 11.3333333333 134.166666667 7.83333333333 120.5 9.5 c 128
 106.833333333 11.1666666667 95.6666666667 17.3333333333 87 28 c 128
 78.3333333333 38.6666666667 74.6666666667 51 76 65 c 0
 76.6666666667 67.6666666667 77 70.6666666667 77 74 c 128
 77 77.3333333333 77.5 79.8333333333 78.5 81.5 c 128
 79.5 83.1666666667 83.3333333333 87.6666666667 90 95 c 0
 91.3333333333 95.6666666667 92.3333333333 96.3333333333 93 97 c 0
 95 99.6666666667 98 103 102 107 c 0
 109.333333333 113.666666667 119.333333333 123 132 135 c 0
 154.666666667 156.333333333 184.333333333 184 221 218 c 0
 250.333333333 244.666666667 278 270 304 294 c 1
 279.333333333 316 253 340.333333333 225 367 c 0
 193.666666667 397 151.666666667 438.333333333 99 491 c 0
 89 501 84 512.833333333 84 526.5 c 128
 84 540.166666667 88.8333333333 552 98.5 562 c 128
 108.166666667 572 120 577 134 577 c 128
 148 577 160 572 170 562 c 0
 222 509.333333333 263.333333333 468.666666667 294 440 c 0
 320.666666667 414 346 390.333333333 370 369 c 1
 367.333333333 395 365.333333333 418.333333333 364 439 c 0
 361.333333333 484.333333333 361.333333333 525 364 561 c 0
 365.333333333 574.333333333 371.166666667 585.5 381.5 594.5 c 128
 391.833333333 603.5 404 607.5 418 606.5 c 128
 432 605.5 443.5 599.666666667 452.5 589 c 128
 461.5 578.333333333 465.333333333 566.333333333 464 553 c 0
EndSplineSet
Validated: 524321
EndChar

StartChar: one
Encoding: 49 49 31
Width: 699
Flags: HW
LayerCount: 2
Fore
SplineSet
290 16 m 1
 220 32.6666666667 163.666666667 66 121 116 c 0
 69.6666666667 175.333333333 47.3333333333 243.666666667 54 321 c 0
 60 400.333333333 94.6666666667 465.333333333 158 516 c 0
 226 570.666666667 314.333333333 596.333333333 423 593 c 0
 461 592.333333333 494.833333333 582.666666667 524.5 564 c 128
 554.166666667 545.333333333 578 520 596 488 c 0
 627.333333333 430.666666667 637 363.833333333 625 287.5 c 128
 613 211.166666667 582.666666667 147 534 95 c 0
 476.666666667 33.6666666667 406.333333333 3 323 3 c 0
 310.333333333 3 299.333333333 7.33333333333 290 16 c 1
160 349 m 1
 172.666666667 345 195 342.666666667 227 342 c 0
 253 341.333333333 290.666666667 342 340 344 c 0
 344.666666667 344 351.666666667 344.333333333 361 345 c 0
 421.666666667 347.666666667 464 348.666666667 488 348 c 0
 504 347.333333333 517.666666667 346.333333333 529 345 c 1
 529 382.333333333 522 414 508 440 c 0
 489.333333333 474.666666667 460 492.333333333 420 493 c 0
 336 495.666666667 269.666666667 477.333333333 221 438 c 0
 191 414 170.666666667 384.333333333 160 349 c 1
EndSplineSet
Validated: 524321
EndChar

StartChar: two
Encoding: 50 50 32
Width: 723
Flags: HW
LayerCount: 2
Fore
SplineSet
180 255 m 1
 186.666666667 226.333333333 198.666666667 201.333333333 216 180 c 0
 246 142 288 120.666666667 342 116 c 1
 352 121.333333333 362.666666667 123 374 121 c 0
 417.333333333 113 455.333333333 125.333333333 488 158 c 0
 517.333333333 188 537.333333333 227.666666667 548 277 c 1
 510.666666667 277 452 273.333333333 372 266 c 0
 286.666666667 258.666666667 222.666666667 255 180 255 c 1
364 15 m 0
 267.333333333 15 192 49 138 117 c 0
 89.3333333333 178.333333333 69 250.333333333 77 333 c 0
 80.3333333333 373.666666667 91.1666666667 411.666666667 109.5 447 c 128
 127.833333333 482.333333333 152 512.333333333 182 537 c 0
 251.333333333 595.666666667 339 618.333333333 445 605 c 0
 525.666666667 594.333333333 584.333333333 553 621 481 c 0
 652.333333333 421 661.666666667 352.333333333 649 275 c 0
 636.333333333 198.333333333 606.333333333 136 559 88 c 0
 509.666666667 37.3333333333 451.333333333 14.3333333333 384 19 c 1
 377.333333333 16.3333333333 370.666666667 15 364 15 c 0
EndSplineSet
Validated: 524321
EndChar

StartChar: d
Encoding: 100 100 33
Width: 626
Flags: HW
LayerCount: 2
Fore
SplineSet
443 533 m 1
 392.333333333 539.666666667 346.666666667 528.333333333 306 499 c 0
 284 483 265.666666667 462.833333333 251 438.5 c 128
 236.333333333 414.166666667 226.666666667 388.333333333 222 361 c 0
 213.333333333 303 228.666666667 254.333333333 268 215 c 0
 308 174.333333333 369.333333333 150 452 142 c 1
 456 192 456.333333333 255 453 331 c 0
 452.333333333 347.666666667 451 372.333333333 449 405 c 0
 445.666666667 463.666666667 443.666666667 506.333333333 443 533 c 1
485 628 m 0
 488 628 488 628 492 628 c 0
 506 628 517.833333333 623.166666667 527.5 613.5 c 128
 537.166666667 603.833333333 542 592 542 578 c 1
 543 575 l 1
 543 573 l 2
 543 539 545 485 549 411 c 0
 551 377.666666667 552.333333333 352.333333333 553 335 c 0
 557 246.333333333 556 173 550 115 c 1
 554.666666667 107.666666667 557 99.3333333333 557 90 c 0
 557 75.3333333333 551.333333333 63 540 53 c 1
 536 41.6666666667 528.833333333 33 518.5 27 c 128
 508.166666667 21 497 19 485 21 c 0
 471 23 460 30 452 42 c 1
 341.333333333 50.6666666667 256.333333333 84.6666666667 197 144 c 0
 166.333333333 174.666666667 144.666666667 210.166666667 132 250.5 c 128
 119.333333333 290.833333333 116.333333333 332.666666667 123 376 c 0
 129.666666667 416.666666667 143.833333333 454.833333333 165.5 490.5 c 128
 187.166666667 526.166666667 214.333333333 556 247 580 c 0
 317.666666667 630.666666667 397 646.666666667 485 628 c 0
EndSplineSet
Validated: 524321
EndChar

StartChar: plus
Encoding: 43 43 34
Width: 645
Flags: HW
LayerCount: 2
Fore
SplineSet
121 359 m 0
 145.666666667 355.666666667 173.666666667 354.333333333 205 355 c 0
 223.666666667 355.666666667 247 357 275 359 c 1
 276.333333333 430.333333333 274.333333333 492.666666667 269 546 c 0
 267 559.333333333 270.333333333 571.333333333 279 582 c 128
 287.666666667 592.666666667 299 598.833333333 313 600.5 c 128
 327 602.166666667 339.333333333 598.666666667 350 590 c 128
 360.666666667 581.333333333 366.666666667 570 368 556 c 0
 374 500.666666667 376.333333333 437.333333333 375 366 c 1
 397 367 397 367 419 368 c 0
 461.666666667 368.666666667 500 366 534 360 c 0
 547.333333333 358 558.166666667 351.333333333 566.5 340 c 128
 574.833333333 328.666666667 577.833333333 316.166666667 575.5 302.5 c 128
 573.166666667 288.833333333 566.333333333 278 555 270 c 128
 543.666666667 262 531.333333333 259.333333333 518 262 c 0
 490 266.666666667 457.333333333 268.666666667 420 268 c 0
 404.666666667 267.333333333 388.666666667 266.666666667 372 266 c 1
 371.333333333 260 371 251.333333333 371 240 c 0
 367.666666667 168 366 113.666666667 366 77 c 0
 366 63.6666666667 361.166666667 52 351.5 42 c 128
 341.833333333 32 330 27 316 27 c 128
 302 27 290.166666667 32 280.5 42 c 128
 270.833333333 52 266 63.6666666667 266 77 c 0
 266 115 267.666666667 170.666666667 271 244 c 0
 271 253 271 253 271 258 c 1
 247 256.666666667 225.666666667 255.666666667 207 255 c 0
 171 254.333333333 138.333333333 256 109 260 c 0
 95 261.333333333 83.8333333333 267.5 75.5 278.5 c 128
 67.1666666667 289.5 63.8333333333 301.833333333 65.5 315.5 c 128
 67.1666666667 329.166666667 73.3333333333 340.166666667 84 348.5 c 128
 94.6666666667 356.833333333 107 360.333333333 121 359 c 0
EndSplineSet
Validated: 524321
EndChar

StartChar: parenleft
Encoding: 40 40 35
Width: 629
Flags: HW
LayerCount: 2
Fore
SplineSet
398 94 m 1
 398.666666667 66.6666666667 399 41.3333333333 399 18 c 0
 399 4.66666666667 394.166666667 -7 384.5 -17 c 128
 374.833333333 -27 363 -32 349 -32 c 128
 335 -32 323.166666667 -27 313.5 -17 c 128
 303.833333333 -7 299 4.66666666667 299 18 c 0
 299 38.6666666667 298.666666667 60.6666666667 298 84 c 1
 260 91.3333333333 227 107.666666667 199 133 c 0
 161 168.333333333 139.666666667 211.666666667 135 263 c 0
 130.333333333 317 146 364 182 404 c 0
 210 435.333333333 247.666666667 456.333333333 295 467 c 1
 298.333333333 505 303.333333333 540.333333333 310 573 c 0
 312.666666667 587 319.833333333 597.666666667 331.5 605 c 128
 343.166666667 612.333333333 355.833333333 614.666666667 369.5 612 c 128
 383.166666667 609.333333333 393.666666667 602.166666667 401 590.5 c 128
 408.333333333 578.833333333 410.666666667 566.333333333 408 553 c 0
 402.666666667 528.333333333 398.666666667 501.666666667 396 473 c 1
 435.333333333 467.666666667 469.333333333 452.333333333 498 427 c 0
 536 393 556.333333333 350 559 298 c 0
 561.666666667 245.333333333 545 199.333333333 509 160 c 0
 481 128.666666667 444 106.666666667 398 94 c 1
391 373 m 1
 390.333333333 343.666666667 390.666666667 311.333333333 392 276 c 0
 392 255.333333333 392.666666667 229.333333333 394 198 c 1
 410.666666667 205.333333333 424.333333333 215 435 227 c 0
 452.333333333 245.666666667 460.333333333 267.666666667 459 293 c 0
 457.666666667 317 448.333333333 336.666666667 431 352 c 0
 419.666666667 362 406.333333333 369 391 373 c 1
294 189 m 1
 292.666666667 223.666666667 292 251.666666667 292 273 c 0
 290.666666667 305 290.333333333 334.333333333 291 361 c 1
 277 355 265.333333333 347 256 337 c 0
 240 319 233 297.333333333 235 272 c 0
 237 246 247.666666667 224.333333333 267 207 c 0
 275 199 284 193 294 189 c 1
EndSplineSet
Validated: 524321
EndChar

StartChar: numbersign
Encoding: 35 35 36
Width: 683
Flags: HW
LayerCount: 2
Fore
SplineSet
496 506 m 1
 497 505 497 505 498 504 c 1
 498 505 498 505 498 506 c 1
 497 506 497 506 496 506 c 1
541 7 m 2
 358 7 l 2
 347.333333333 7 325 5.66666666667 291 3 c 0
 268.333333333 1 250.333333333 -0.333333333333 237 -1 c 0
 205 -2.33333333333 177.666666667 -1.66666666667 155 1 c 0
 123 5 96.3333333333 13.3333333333 75 26 c 0
 65.6666666667 32 59.6666666667 37.3333333333 57 42 c 128
 54.3333333333 46.6666666667 52 55 50 67 c 0
 48.6666666667 71.6666666667 48 77.6666666667 48 85 c 0
 46.6666666667 97.6666666667 45.6666666667 115 45 137 c 0
 44.3333333333 176.333333333 44.3333333333 226.333333333 45 287 c 0
 46.3333333333 427.666666667 49.3333333333 514.333333333 54 547 c 0
 56 561 62.5 572 73.5 580 c 128
 84.5 588 96.6666666667 591 110 589 c 0
 118.666666667 588.333333333 126 585.666666667 132 581 c 0
 132.666666667 581 133.333333333 581.333333333 134 582 c 0
 139.333333333 584 145 586 151 588 c 0
 157.666666667 589.333333333 166.666666667 590.333333333 178 591 c 0
 194 593 216.333333333 594.333333333 245 595 c 0
 261 595.666666667 280 596.333333333 302 597 c 0
 303 597 303 597 311 597 c 128
 319 597 319 597 326 597 c 128
 333 597 333 597 334 597 c 0
 338 597.666666667 344.666666667 598.333333333 354 599 c 0
 356 599 361.333333333 599.5 370 600.5 c 128
 378.666666667 601.5 384 602 386 602 c 0
 405.333333333 603.333333333 422 604.666666667 436 606 c 0
 464.666666667 607.333333333 488.666666667 607 508 605 c 0
 521.333333333 603.666666667 533 601.666666667 543 599 c 0
 557.666666667 595 569.666666667 588.666666667 579 580 c 0
 587.666666667 572 593 562 595 550 c 0
 595.666666667 548 596 545.666666667 596 543 c 0
 596.666666667 539.666666667 597 535 597 529 c 0
 597.666666667 520.333333333 598 507.666666667 598 491 c 0
 598 451 598 451 598 380 c 0
 598 352 598 352 598 312 c 0
 597.333333333 254 597 223.333333333 597 220 c 0
 597.666666667 218 598.666666667 212.666666667 600 204 c 0
 600 202 600.833333333 196.166666667 602.5 186.5 c 128
 604.166666667 176.833333333 605 171.333333333 605 170 c 0
 606.333333333 160.666666667 607.333333333 152.333333333 608 145 c 0
 611.333333333 122.333333333 613 103.333333333 613 88 c 0
 613.666666667 77.3333333333 613 68 611 60 c 0
 609 45.3333333333 603.666666667 33 595 23 c 0
 584.333333333 11 570.666666667 5 554 5 c 0
 550.666666667 5 547 5.33333333333 543 6 c 0
 542.333333333 6 541.666666667 6.33333333333 541 7 c 2
EndSplineSet
Validated: 524321
EndChar

StartChar: percent
Encoding: 37 37 37
Width: 669
Flags: HW
LayerCount: 2
Fore
SplineSet
427 431 m 1
 411.666666667 431 395.666666667 431.666666667 379 433 c 0
 351 434.333333333 309.666666667 438 255 444 c 0
 231.666666667 446.666666667 214.333333333 448.666666667 203 450 c 0
 163 454 129 456 101 456 c 1
 102.333333333 448 101.333333333 440 98 432 c 0
 87.3333333333 402.666666667 84 344.666666667 88 258 c 0
 89.3333333333 230 91.6666666667 198.666666667 95 164 c 1
 123.666666667 191.333333333 156.333333333 220 193 250 c 0
 223.666666667 275.333333333 266.333333333 308.666666667 321 350 c 0
 322.333333333 351.333333333 328.5 356.166666667 339.5 364.5 c 128
 350.5 372.833333333 357.333333333 378 360 380 c 0
 387.333333333 400.666666667 409.666666667 417.666666667 427 431 c 1
43 555 m 0
 88.3333333333 557.666666667 144.666666667 555.666666667 212 549 c 0
 224.666666667 547.666666667 242.666666667 546 266 544 c 0
 318.666666667 538 358 534.333333333 384 533 c 0
 425.333333333 530.333333333 461.333333333 530.666666667 492 534 c 0
 492.666666667 534 493.666666667 534.333333333 495 535 c 0
 495.666666667 535 497.666666667 535.333333333 501 536 c 2
 506 538 l 2
 506.666666667 538 507.333333333 538.333333333 508 539 c 0
 514.666666667 540.333333333 520 541.666666667 524 543 c 0
 528 543.666666667 531.666666667 544 535 544 c 0
 538.333333333 544.666666667 541.666666667 544.666666667 545 544 c 0
 548.333333333 544 551.666666667 543.333333333 555 542 c 0
 562.333333333 540 569 536.666666667 575 532 c 0
 584.333333333 523.333333333 590.666666667 512.333333333 594 499 c 0
 596 492.333333333 597.666666667 484.333333333 599 475 c 0
 599.666666667 463 599.666666667 448 599 430 c 0
 598.333333333 422 597.666666667 412.666666667 597 402 c 0
 596.333333333 401.333333333 595.833333333 398.166666667 595.5 392.5 c 128
 595.166666667 386.833333333 595 383.333333333 595 382 c 0
 594.333333333 376.666666667 594 373.333333333 594 372 c 0
 594 367 594 367 594 354 c 0
 594 352.666666667 594.166666667 348 594.5 340 c 128
 594.833333333 332 595 327 595 325 c 0
 595.666666667 281.666666667 595.666666667 245.333333333 595 216 c 0
 595 174 594 139.666666667 592 113 c 0
 589.333333333 74.3333333333 584 47.6666666667 576 33 c 0
 571.333333333 24.3333333333 564.666666667 17.3333333333 556 12 c 0
 551.333333333 9.33333333333 546 7 540 5 c 0
 534 3.66666666667 526.666666667 2.66666666667 518 2 c 0
 507.333333333 1.33333333333 493 1.66666666667 475 3 c 0
 461.666666667 3.66666666667 444 5.33333333333 422 8 c 0
 417.333333333 8.66666666667 406.166666667 10 388.5 12 c 128
 370.833333333 14 361.333333333 15 360 15 c 0
 330 18.3333333333 304.333333333 21 283 23 c 0
 201 30.3333333333 143.333333333 30 110 22 c 1
 108 22 l 2
 105 21 105 21 102 20 c 128
 100 19.3333333333 98.3333333333 19 97 19 c 0
 93.6666666667 17.6666666667 90.3333333333 16.6666666667 87 16 c 0
 79 14.6666666667 72 13.6666666667 66 13 c 0
 60.6666666667 13 55.3333333333 13.3333333333 50 14 c 0
 40 16 31.3333333333 20 24 26 c 0
 14.6666666667 33.3333333333 8.66666666667 42.3333333333 6 53 c 0
 4.66666666667 57.6666666667 4 62.3333333333 4 67 c 1
 3 68 l 2
 3 69.3333333333 2.66666666667 74 2 82 c 128
 1.33333333333 90 0.666666666667 95.3333333333 0 98 c 0
 -1.33333333333 112 -2.33333333333 124.666666667 -3 136 c 0
 -7 180 -10 219 -12 253 c 0
 -16.6666666667 353.666666667 -11 425 5 467 c 0
 5.66666666667 469 6.66666666667 471 8 473 c 0
 0.666666666667 481 -3.33333333333 490.666666667 -4 502 c 0
 -4.66666666667 515.333333333 -0.5 527.333333333 8.5 538 c 128
 17.5 548.666666667 29 554.333333333 43 555 c 0
EndSplineSet
Validated: 524321
EndChar

StartChar: period
Encoding: 46 46 38
Width: 544
Flags: HW
LayerCount: 2
Fore
SplineSet
336 160 m 0
 300.666666667 163.333333333 273.666666667 177.666666667 255 203 c 0
 243.666666667 219 234.666666667 242 228 272 c 0
 224.666666667 291.333333333 225.166666667 311.5 229.5 332.5 c 128
 233.833333333 353.5 242 372 254 388 c 0
 269.333333333 410 288.833333333 424.166666667 312.5 430.5 c 128
 336.166666667 436.833333333 361 434.333333333 387 423 c 0
 401 416.333333333 414.5 406 427.5 392 c 128
 440.5 378 451 362.333333333 459 345 c 0
 469 325.666666667 474.333333333 306.666666667 475 288 c 0
 475.666666667 261.333333333 467.666666667 239 451 221 c 0
 422.333333333 190.333333333 394.666666667 173 368 169 c 1
 358.666666667 162.333333333 348 159.333333333 336 160 c 0
EndSplineSet
Validated: 524321
EndChar

StartChar: less
Encoding: 60 60 39
Width: 710
Flags: HW
LayerCount: 2
Fore
SplineSet
573 500 m 0
 551.666666667 494 528 484.666666667 502 472 c 0
 472 458 431 434.666666667 379 402 c 0
 377 400.666666667 371.666666667 397.333333333 363 392 c 128
 354.333333333 386.666666667 349.333333333 383.666666667 348 383 c 0
 336 375 325.666666667 368.666666667 317 364 c 0
 293.666666667 349.333333333 273.333333333 337.333333333 256 328 c 0
 254 327.333333333 250.666666667 325.666666667 246 323 c 2
 244 322 l 2
 242.666666667 322 241.333333333 321.666666667 240 321 c 128
 238.666666667 320.333333333 237.166666667 319.5 235.5 318.5 c 128
 233.833333333 317.5 232.333333333 317 231 317 c 0
 217 310.333333333 205 304.333333333 195 299 c 0
 193 298 193 298 191 297 c 1
 205.666666667 288.333333333 223 279.666666667 243 271 c 0
 271.666666667 259 317.666666667 242.333333333 381 221 c 0
 381.666666667 221 383.333333333 220.5 386 219.5 c 128
 388.666666667 218.5 390.333333333 218 391 218 c 0
 445 200 485 185.666666667 511 175 c 0
 555.666666667 157.666666667 591.666666667 140 619 122 c 0
 630.333333333 114 637.333333333 103.166666667 640 89.5 c 128
 642.666666667 75.8333333333 640.166666667 63.3333333333 632.5 52 c 128
 624.833333333 40.6666666667 614.166666667 33.6666666667 600.5 31 c 128
 586.833333333 28.3333333333 574.333333333 30.6666666667 563 38 c 0
 541.666666667 52.6666666667 512 67.3333333333 474 82 c 0
 449.333333333 92 411 105.666666667 359 123 c 2
 356 124 l 2
 354.666666667 124.666666667 353.333333333 125.166666667 352 125.5 c 128
 350.666666667 125.833333333 349.666666667 126 349 126 c 0
 283.666666667 148 235.333333333 165.666666667 204 179 c 0
 150.666666667 201.666666667 110 226 82 252 c 1
 81 252 l 2
 79 254 79 254 78 255 c 0
 75 258 75 258 72 261 c 0
 65.3333333333 269.666666667 61.3333333333 279.333333333 60 290 c 0
 58.6666666667 304 62 317 70 329 c 0
 74 335 79.3333333333 341 86 347 c 0
 94 354.333333333 105 362.333333333 119 371 c 0
 127.666666667 376.333333333 137.666666667 381.666666667 149 387 c 2
 209 417 l 2
 225 425 243.666666667 435.666666667 265 449 c 0
 273.666666667 454.333333333 283.666666667 460.666666667 295 468 c 0
 296.333333333 468.666666667 301.333333333 471.666666667 310 477 c 128
 318.666666667 482.333333333 324 485.666666667 326 487 c 0
 381.333333333 521.666666667 425.666666667 547 459 563 c 0
 490.333333333 577.666666667 519.666666667 588.666666667 547 596 c 0
 559.666666667 600 572.166666667 598.666666667 584.5 592 c 128
 596.833333333 585.333333333 604.833333333 575.333333333 608.5 562 c 128
 612.166666667 548.666666667 610.5 536 603.5 524 c 128
 596.5 512 586.333333333 504 573 500 c 0
EndSplineSet
Validated: 524321
EndChar

StartChar: asterisk
Encoding: 42 42 40
Width: 706
Flags: HW
LayerCount: 2
Fore
SplineSet
177 479 m 1
 204.333333333 455.666666667 247.666666667 419.666666667 307 371 c 0
 307 370.333333333 307.333333333 369.666666667 308 369 c 0
 366 321.666666667 409.333333333 285.666666667 438 261 c 0
 465.333333333 237 490.333333333 214.333333333 513 193 c 1
 510.333333333 274.333333333 509.333333333 319.666666667 510 329 c 128
 510.666666667 338.333333333 512.666666667 351.333333333 516 368 c 0
 516.666666667 374.666666667 518 381.666666667 520 389 c 2
 521 394 l 2
 521.666666667 396.666666667 522.333333333 399.833333333 523 403.5 c 128
 523.666666667 407.166666667 524 409.666666667 524 411 c 0
 526.666666667 424.333333333 529 435.666666667 531 445 c 0
 535 467.666666667 537 486 537 500 c 0
 537 503 537 503 537 505 c 0
 528.333333333 505.666666667 518 505.666666667 506 505 c 0
 480.666666667 503.666666667 432.666666667 499.666666667 362 493 c 0
 358.666666667 492.333333333 356 492 354 492 c 0
 291.333333333 486 245.666666667 482 217 480 c 0
 201.666666667 479.333333333 188.333333333 479 177 479 c 1
99 616 m 0
 116.333333333 615.333333333 166.333333333 616.333333333 249 619 c 0
 278.333333333 620.333333333 302.666666667 621.333333333 322 622 c 0
 384 623.333333333 433.666666667 623.333333333 471 622 c 0
 525.666666667 620 563.666666667 614 585 604 c 0
 590.333333333 601.333333333 595 598 599 594 c 0
 607.666666667 588.666666667 614.666666667 582 620 574 c 0
 631.333333333 554.666666667 637 530 637 500 c 0
 637 480 634.333333333 456 629 428 c 0
 627.666666667 418 625.333333333 405.666666667 622 391 c 0
 622 389.666666667 621.666666667 387.166666667 621 383.5 c 128
 620.333333333 379.833333333 619.666666667 376.666666667 619 374 c 2
 618 369 l 2
 616 361 614.666666667 354.333333333 614 349 c 0
 611.333333333 337 610 328.333333333 610 323 c 0
 609.333333333 317 610.333333333 274 613 194 c 0
 613.666666667 193.333333333 614 192.666666667 614 192 c 0
 615.333333333 146.666666667 616.333333333 115 617 97 c 0
 617 76 617 76 617 65 c 0
 617 58 617 58 617 54 c 0
 617 51 617 51 617 48 c 0
 615.666666667 37.3333333333 614 30.1666666667 612 26.5 c 128
 610 22.8333333333 604.666666667 18 596 12 c 0
 586.666666667 5.33333333333 575 0.333333333333 561 -3 c 0
 551.666666667 -5 540.666666667 -6 528 -6 c 0
 510.666666667 -6.66666666667 489 -5.66666666667 463 -3 c 0
 452.333333333 -1.66666666667 439.666666667 0 425 2 c 0
 423 2 417 2.83333333333 407 4.5 c 128
 397 6.16666666667 391.333333333 7 390 7 c 0
 379.333333333 8.33333333333 372.333333333 9 369 9 c 0
 363.666666667 9.66666666667 342.333333333 10 305 10 c 0
 276.333333333 9.33333333333 254 9.33333333333 238 10 c 0
 199.333333333 10 169 10.3333333333 147 11 c 0
 132.333333333 11.6666666667 120.666666667 12.6666666667 112 14 c 0
 106 14.6666666667 101 15.3333333333 97 16 c 0
 93.6666666667 16.6666666667 90.3333333333 17.6666666667 87 19 c 0
 81 21 75.3333333333 24 70 28 c 0
 68.6666666667 29.3333333333 66.8333333333 31 64.5 33 c 128
 62.1666666667 35 60.6666666667 36.3333333333 60 37 c 128
 59.3333333333 37.6666666667 58.3333333333 38.5 57 39.5 c 128
 55.6666666667 40.5 55 41.6666666667 55 43 c 128
 55 44.3333333333 54.6666666667 45.3333333333 54 46 c 128
 53.3333333333 46.6666666667 53 48.1666666667 53 50.5 c 128
 53 54 53 54 53 56.5 c 128
 53 58.1666666667 52.6666666667 61 52 65 c 2
 52 68 l 2
 52 68.6666666667 52.1666666667 69.8333333333 52.5 71.5 c 128
 52.8333333333 73.1666666667 53 75.3333333333 53 78 c 0
 53 81.3333333333 53.3333333333 87.3333333333 54 96 c 0
 54.6666666667 106 55 111.666666667 55 113 c 0
 55.6666666667 115 56 116.666666667 56 118 c 2
 56 119 l 2
 56 139.666666667 54.3333333333 163.666666667 51 191 c 0
 49.6666666667 207.666666667 46.3333333333 234 41 270 c 0
 37.6666666667 292 35.3333333333 309 34 321 c 0
 28 367.666666667 25 407.333333333 25 440 c 0
 25 485.333333333 30.3333333333 526.333333333 41 563 c 0
 42.3333333333 568.333333333 44.6666666667 573.333333333 48 578 c 0
 50.6666666667 589.333333333 56.8333333333 598.5 66.5 605.5 c 128
 76.1666666667 612.5 87 616 99 616 c 0
EndSplineSet
Validated: 524321
EndChar

StartChar: f
Encoding: 102 102 41
Width: 572
Flags: HW
LayerCount: 2
Fore
SplineSet
235 334 m 0
 247.666666667 333.333333333 267.666666667 333.666666667 295 335 c 0
 302 335 302 335 306 335 c 0
 342.666666667 335.666666667 371.666666667 335 393 333 c 1
 393 338.333333333 393.333333333 344.333333333 394 351 c 0
 394 355.666666667 394.666666667 368.166666667 396 388.5 c 128
 397.333333333 408.833333333 398 420.333333333 398 423 c 0
 399.333333333 448.333333333 400.333333333 468 401 482 c 0
 401 484 401 484 401 485 c 1
 385.666666667 483.666666667 369 483.333333333 351 484 c 0
 329 484 296 485.333333333 252 488 c 0
 216.666666667 490.666666667 191 492.333333333 175 493 c 0
 147.666666667 493.666666667 123.666666667 493 103 491 c 0
 89 489.666666667 76.6666666667 493.5 66 502.5 c 128
 55.3333333333 511.5 49.5 522.833333333 48.5 536.5 c 128
 47.5 550.166666667 51.3333333333 562.333333333 60 573 c 128
 68.6666666667 583.666666667 80 589.666666667 94 591 c 0
 118.666666667 593 146.666666667 593.666666667 178 593 c 0
 195.333333333 592.333333333 222 590.666666667 258 588 c 1
 259 588 l 1
 300.333333333 585.333333333 331.333333333 584 352 584 c 0
 382.666666667 583.333333333 409.666666667 585 433 589 c 0
 437 590 437 590 441 591 c 0
 448.333333333 591.666666667 455.666666667 591.333333333 463 590 c 0
 473.666666667 586.666666667 482.666666667 580.666666667 490 572 c 0
 495.333333333 566 498.666666667 558.333333333 500 549 c 0
 500.666666667 546.333333333 501.333333333 543 502 539 c 0
 502 533 502 533 502 523 c 0
 502 512.333333333 501.666666667 497.333333333 501 478 c 0
 500.333333333 463.333333333 499.333333333 443 498 417 c 0
 498 414.333333333 497.333333333 403 496 383 c 128
 494.666666667 363 494 350.333333333 494 345 c 0
 492.666666667 319 491.333333333 296.333333333 490 277 c 0
 484.666666667 161.666666667 484.333333333 87.3333333333 489 54 c 0
 491 40 487.833333333 27.5 479.5 16.5 c 128
 471.166666667 5.5 460.166666667 -1 446.5 -3 c 128
 432.833333333 -5 420.5 -1.83333333333 409.5 6.5 c 128
 398.5 14.8333333333 392 26 390 40 c 0
 384.666666667 74.6666666667 384 138.666666667 388 232 c 1
 370 234.666666667 343.666666667 235.666666667 309 235 c 0
 305 235 305 235 298 235 c 0
 268 233.666666667 245.333333333 233.333333333 230 234 c 0
 216.666666667 234.666666667 205.333333333 240.166666667 196 250.5 c 128
 186.666666667 260.833333333 182.166666667 272.833333333 182.5 286.5 c 128
 182.833333333 300.166666667 188.166666667 311.666666667 198.5 321 c 128
 208.833333333 330.333333333 221 334.666666667 235 334 c 0
EndSplineSet
Validated: 524321
EndChar

StartChar: parenright
Encoding: 41 41 42
Width: 771
Flags: HW
LayerCount: 2
Fore
SplineSet
282 330 m 1
 302.666666667 330 323.666666667 329.666666667 345 329 c 0
 371 328.333333333 396.666666667 327.666666667 422 327 c 1
 405.333333333 351.666666667 381 367.666666667 349 375 c 0
 328.333333333 380.333333333 312 376.333333333 300 363 c 0
 292.666666667 355 286.666666667 344 282 330 c 1
280 230 m 1
 282.666666667 218.666666667 286.333333333 208 291 198 c 0
 299.666666667 180 310.666666667 167.333333333 324 160 c 1
 336 165.333333333 348 166 360 162 c 0
 383.333333333 154 402.166666667 156.333333333 416.5 169 c 128
 430.833333333 181.666666667 440 200.666666667 444 226 c 1
 410.666666667 227.333333333 376.666666667 228.333333333 342 229 c 0
 320.666666667 229.666666667 300 230 280 230 c 1
34 322 m 0
 50 326.666666667 89.6666666667 329.666666667 153 331 c 0
 166 331 166 331 179 331 c 1
 187 371 202.666666667 404 226 430 c 0
 264 472.666666667 312.666666667 487 372 473 c 0
 433.333333333 458.333333333 479.666666667 425 511 373 c 0
 521 357.666666667 528.666666667 340.666666667 534 322 c 1
 600.666666667 318.666666667 643.666666667 314.666666667 663 310 c 0
 676.333333333 307.333333333 686.666666667 300.166666667 694 288.5 c 128
 701.333333333 276.833333333 703.5 264.333333333 700.5 251 c 128
 697.5 237.666666667 690.166666667 227.166666667 678.5 219.5 c 128
 666.833333333 211.833333333 654.333333333 209.666666667 641 213 c 0
 628.333333333 215.666666667 596 218.666666667 544 222 c 1
 538 167.333333333 517.333333333 124.666666667 482 94 c 0
 445.333333333 61.3333333333 401.666666667 50.3333333333 351 61 c 1
 339.666666667 55 327.666666667 53.3333333333 315 56 c 0
 265 68.6666666667 227 101.333333333 201 154 c 0
 189.666666667 177.333333333 182 203 178 231 c 1
 166 231 166 231 155 231 c 0
 127.666666667 230.333333333 105.666666667 229.666666667 89 229 c 0
 81 228.333333333 74.3333333333 227.666666667 69 227 c 2
 64 227 l 1
 51.3333333333 222.333333333 38.8333333333 223.166666667 26.5 229.5 c 128
 14.1666666667 235.833333333 5.83333333333 245.666666667 1.5 259 c 128
 -2.83333333333 272.333333333 -1.83333333333 285.166666667 4.5 297.5 c 128
 10.8333333333 309.833333333 20.6666666667 318 34 322 c 0
EndSplineSet
Validated: 524321
EndChar

StartChar: y
Encoding: 121 121 43
Width: 595
Flags: HW
LayerCount: 2
Fore
SplineSet
121 568 m 0
 128.333333333 554.666666667 142.666666667 535 164 509 c 0
 165 508 165 508 166 507 c 0
 187.333333333 481.666666667 203 461 213 445 c 0
 223.666666667 427.666666667 236.666666667 405.666666667 252 379 c 1
 257.333333333 383.666666667 263 389 269 395 c 0
 279.666666667 406.333333333 295 423.666666667 315 447 c 1
 319 450 l 1
 343.666666667 478.666666667 363 500 377 514 c 0
 401 538 424.666666667 557.666666667 448 573 c 0
 459.333333333 581 471.833333333 583.666666667 485.5 581 c 128
 499.166666667 578.333333333 509.833333333 571.166666667 517.5 559.5 c 128
 525.166666667 547.833333333 527.666666667 535.333333333 525 522 c 128
 522.333333333 508.666666667 515.333333333 498 504 490 c 0
 486 478 467.333333333 462.333333333 448 443 c 0
 435.333333333 431 417.333333333 411.333333333 394 384 c 1
 391 381 l 2
 369.666666667 356.333333333 353 338 341 326 c 0
 327.666666667 312.666666667 315.333333333 301 304 291 c 1
 325.333333333 254.333333333 345 223 363 197 c 0
 394.333333333 151.666666667 425.666666667 113.333333333 457 82 c 0
 467 72 472 60.1666666667 472 46.5 c 128
 472 32.8333333333 467 21.1666666667 457 11.5 c 128
 447 1.83333333333 435.166666667 -3 421.5 -3 c 128
 407.833333333 -3 396 1.66666666667 386 11 c 0
 350.666666667 47 315.666666667 90.3333333333 281 141 c 0
 257 175 228 221 194 279 c 0
 192.666666667 282.333333333 189.833333333 287.5 185.5 294.5 c 128
 181.166666667 301.5 177.166666667 308.333333333 173.5 315 c 128
 169.833333333 321.666666667 167.666666667 325.333333333 167 326 c 0
 151 353.333333333 137.666666667 375.666666667 127 393 c 0
 120.333333333 404.333333333 108 420.666666667 90 442 c 1
 88 445 l 2
 75.3333333333 459.666666667 65.6666666667 471.333333333 59 480 c 0
 47.6666666667 495.333333333 38.6666666667 509.666666667 32 523 c 0
 26 535.666666667 25.1666666667 548.5 29.5 561.5 c 128
 33.8333333333 574.5 42.1666666667 584.166666667 54.5 590.5 c 128
 66.8333333333 596.833333333 79.5 597.833333333 92.5 593.5 c 128
 105.5 589.166666667 115 580.666666667 121 568 c 0
EndSplineSet
Validated: 524321
EndChar

StartChar: colon
Encoding: 58 58 44
Width: 675
Flags: HW
LayerCount: 2
Fore
SplineSet
394 337 m 0
 396.666666667 344.333333333 400.333333333 351 405 357 c 0
 415 368.333333333 427.333333333 375.333333333 442 378 c 0
 451.333333333 379.333333333 460 378.666666667 468 376 c 0
 480.666666667 372 490.666666667 364.666666667 498 354 c 0
 506.666666667 340 510.333333333 325.166666667 509 309.5 c 128
 507.666666667 293.833333333 502.333333333 280 493 268 c 0
 486.333333333 260 478.333333333 254 469 250 c 0
 456.333333333 245.333333333 443.666666667 244.666666667 431 248 c 0
 419.666666667 251.333333333 410 257.666666667 402 267 c 0
 396.666666667 273 392.333333333 280.333333333 389 289 c 0
 381.666666667 305.666666667 383.333333333 321.666666667 394 337 c 0
363 472 m 0
 363 462 362 447.666666667 360 429 c 0
 360 424.333333333 358.666666667 409.666666667 356 385 c 1
 357.333333333 351.666666667 357.666666667 321.333333333 357 294 c 0
 355.666666667 258 353.333333333 226 350 198 c 1
 352.666666667 164.666666667 358.333333333 140 367 124 c 0
 372.333333333 114.666666667 378 109.333333333 384 108 c 0
 392 106.666666667 402 108 414 112 c 1
 418 116.666666667 420.333333333 119.333333333 421 120 c 0
 425.666666667 125.333333333 430 130.333333333 434 135 c 0
 440 141 445.666666667 146.333333333 451 151 c 0
 465 164.333333333 478.666666667 173 492 177 c 0
 504.666666667 181.666666667 517.166666667 180.833333333 529.5 174.5 c 128
 541.833333333 168.166666667 550.333333333 158.666666667 555 146 c 0
 559 133.333333333 558.166666667 121 552.5 109 c 128
 546.833333333 97 538 88.6666666667 526 84 c 1
 525 83 l 2
 523.666666667 81.6666666667 521.666666667 80 519 78 c 0
 517 76 517 76 515 74 c 0
 513 56 503.666666667 42.6666666667 487 34 c 0
 441 11.3333333333 400.333333333 3.33333333333 365 10 c 0
 336.333333333 16 312.666666667 30.6666666667 294 54 c 1
 254.666666667 11.3333333333 204.333333333 3.66666666667 143 31 c 0
 130.333333333 37 118 45 106 55 c 0
 99.3333333333 61 91 69.3333333333 81 80 c 1
 81 81 l 1
 71 91 63.6666666667 97.6666666667 59 101 c 0
 48.3333333333 109.666666667 42.1666666667 120.833333333 40.5 134.5 c 128
 38.8333333333 148.166666667 42.1666666667 160.5 50.5 171.5 c 128
 58.8333333333 182.5 69.8333333333 188.833333333 83.5 190.5 c 128
 97.1666666667 192.166666667 109.666666667 188.666666667 121 180 c 0
 129.666666667 173.333333333 140.666666667 163 154 149 c 1
 154 148 l 1
 168 133.333333333 178 124.666666667 184 122 c 0
 192.666666667 118 200 116 206 116 c 0
 209.333333333 115.333333333 212 115.666666667 214 117 c 0
 220 119 225.666666667 126 231 138 c 0
 239 154 245 175.333333333 249 202 c 1
 247.666666667 226 247.666666667 253.333333333 249 284 c 0
 249.666666667 311.333333333 252 345.666666667 256 387 c 1
 256 388 l 2
 255.333333333 401.333333333 254.666666667 416.333333333 254 433 c 0
 254 434.333333333 253.666666667 441.166666667 253 453.5 c 128
 252.333333333 465.833333333 252 473.333333333 252 476 c 0
 251.333333333 487.333333333 251 496 251 502 c 1
 177 505.333333333 116 507 68 507 c 0
 54.6666666667 507 43 512 33 522 c 128
 23 532 18 543.833333333 18 557.5 c 128
 18 571.166666667 23 582.833333333 33 592.5 c 128
 43 602.166666667 54.6666666667 607 68 607 c 0
 123.333333333 607 205.333333333 604.333333333 314 599 c 0
 422 593.666666667 502.666666667 591 556 591 c 0
 570 591 581.833333333 586.166666667 591.5 576.5 c 128
 601.166666667 566.833333333 606 555 606 541 c 128
 606 527 601.166666667 515.166666667 591.5 505.5 c 128
 581.833333333 495.833333333 570 491 556 491 c 0
 505.333333333 491 439.333333333 493 358 497 c 1
 362 489 363.666666667 480.666666667 363 472 c 0
EndSplineSet
Validated: 524321
EndChar

StartChar: c
Encoding: 99 99 45
Width: 604
Flags: HW
LayerCount: 2
Fore
SplineSet
92 589 m 0
 105 589 105 589 131 589 c 0
 166.333333333 589.666666667 193.333333333 589.666666667 212 589 c 0
 252 587.666666667 287 583.666666667 317 577 c 0
 355.666666667 569 390 555.333333333 420 536 c 0
 466 507.333333333 498.833333333 464.833333333 518.5 408.5 c 128
 538.166666667 352.166666667 541.333333333 295 528 237 c 128
 514.666666667 179 486.333333333 133 443 99 c 0
 417.666666667 79 384.333333333 63.6666666667 343 53 c 0
 319.666666667 47.6666666667 287.666666667 43 247 39 c 0
 244.333333333 38.3333333333 240.666666667 37.6666666667 236 37 c 2
 223 35 l 2
 209 33.6666666667 197.333333333 32.6666666667 188 32 c 0
 152 28.6666666667 122.666666667 32.6666666667 100 44 c 0
 88 50.6666666667 79.8333333333 60.5 75.5 73.5 c 128
 71.1666666667 86.5 72 99.1666666667 78 111.5 c 128
 84 123.833333333 93.5 132.166666667 106.5 136.5 c 128
 119.5 140.833333333 132.333333333 140 145 134 c 0
 151 130.666666667 163 129.666666667 181 131 c 0
 187.666666667 131.666666667 197 133 209 135 c 0
 216.333333333 135.666666667 221 136 223 136 c 0
 228.333333333 136.666666667 232.666666667 137.333333333 236 138 c 0
 272.666666667 142 300.333333333 146.333333333 319 151 c 0
 346.333333333 157.666666667 367.333333333 166.666666667 382 178 c 0
 406.666666667 197.333333333 423 225.5 431 262.5 c 128
 439 299.5 437 336 425 372 c 128
 413 408 393.666666667 434.666666667 367 452 c 0
 331 474.666666667 278.333333333 487 209 489 c 0
 191.666666667 489.666666667 166 490 132 490 c 0
 114 489.333333333 100.666666667 489 92 489 c 0
 78.6666666667 489 67 493.833333333 57 503.5 c 128
 47 513.166666667 42 525 42 539 c 128
 42 553 47 564.833333333 57 574.5 c 128
 67 584.166666667 78.6666666667 589 92 589 c 0
EndSplineSet
Validated: 524321
EndChar

StartChar: z
Encoding: 122 122 46
Width: 740
Flags: HW
LayerCount: 2
Fore
SplineSet
372 104 m 1
 372.666666667 82 373 60 373 38 c 0
 373 24.6666666667 368.166666667 13 358.5 3 c 128
 348.833333333 -7 337.166666667 -12 323.5 -12 c 128
 309.833333333 -12 298 -7 288 3 c 128
 278 13 273 24.6666666667 273 38 c 0
 273 62.6666666667 272.333333333 88.6666666667 271 116 c 1
 216.333333333 122 175.666666667 146.333333333 149 189 c 0
 137.666666667 207.666666667 129.666666667 228.333333333 125 251 c 1
 95 249 70.3333333333 247.333333333 51 246 c 0
 37 245.333333333 24.8333333333 249.5 14.5 258.5 c 128
 4.16666666667 267.5 -1.5 278.833333333 -2.5 292.5 c 128
 -3.5 306.166666667 0.666666666667 318.166666667 10 328.5 c 128
 19.3333333333 338.833333333 30.6666666667 344.666666667 44 346 c 0
 64.6666666667 347.333333333 93.6666666667 349 131 351 c 1
 144.333333333 398.333333333 168.666666667 436.333333333 204 465 c 0
 220.666666667 477.666666667 238.333333333 487.666666667 257 495 c 1
 260.333333333 533.666666667 266 569.666666667 274 603 c 0
 277.333333333 617 284.833333333 627.5 296.5 634.5 c 128
 308.166666667 641.5 320.666666667 643.333333333 334 640 c 128
 347.333333333 636.666666667 357.666666667 629.166666667 365 617.5 c 128
 372.333333333 605.833333333 374.333333333 593.333333333 371 580 c 0
 365.666666667 556 361.333333333 530.333333333 358 503 c 1
 363 502 363 502 368 501 c 0
 410.666666667 492.333333333 444.666666667 466.666666667 470 424 c 0
 481.333333333 406.666666667 490 387.333333333 496 366 c 1
 541.333333333 364.666666667 584.666666667 362 626 358 c 0
 639.333333333 356.666666667 650.5 350.666666667 659.5 340 c 128
 668.5 329.333333333 672.333333333 317.166666667 671 303.5 c 128
 669.666666667 289.833333333 663.5 278.666666667 652.5 270 c 128
 641.5 261.333333333 629.333333333 257.666666667 616 259 c 0
 581.333333333 262.333333333 544.666666667 264.333333333 506 265 c 1
 503.333333333 234.333333333 495.333333333 207 482 183 c 0
 458 139 422.333333333 113 375 105 c 1
 374 104 l 1
 372 104 l 1
355 364 m 1
 366.333333333 364.666666667 377.666666667 365 389 365 c 1
 379.666666667 383.666666667 368 395.666666667 354 401 c 1
 354 389.666666667 354.333333333 377.333333333 355 364 c 1
361 264 m 1
 361.666666667 254.666666667 362.666666667 242.333333333 364 227 c 0
 364 219 364.333333333 211.666666667 365 205 c 1
 377 209 386.666666667 217.666666667 394 231 c 0
 399.333333333 240.333333333 403 252 405 266 c 1
 391 265.333333333 376.333333333 264.666666667 361 264 c 1
261 260 m 1
 250.333333333 259.333333333 239 258.666666667 227 258 c 1
 228.333333333 252 230.666666667 247 234 243 c 0
 240.666666667 231.666666667 250.666666667 223.666666667 264 219 c 1
 262.666666667 236.333333333 261.666666667 250 261 260 c 1
255 359 m 1
 255 367 255 367 255 375 c 1
 250.333333333 369.666666667 246.333333333 364.333333333 243 359 c 1
 249 359 249 359 255 359 c 1
EndSplineSet
Validated: 524321
EndChar

StartChar: seven
Encoding: 55 55 47
Width: 714
Flags: HW
LayerCount: 2
Fore
SplineSet
509 123 m 1
 507.666666667 125.666666667 506.666666667 128 506 130 c 0
 482.666666667 182.666666667 461.333333333 230.333333333 442 273 c 0
 427.333333333 303.666666667 413.333333333 331.666666667 400 357 c 0
 375.333333333 405.666666667 353.666666667 443.333333333 335 470 c 0
 334.333333333 472 333.333333333 473.666666667 332 475 c 1
 319.333333333 453.666666667 306.5 429.5 293.5 402.5 c 128
 280.5 375.5 262 335 238 281 c 1
 238 280 l 2
 237.333333333 279.333333333 237 278.666666667 237 278 c 0
 215 227.333333333 198 189.666666667 186 165 c 0
 175 143 175 143 165 123 c 1
 177.666666667 121 191 120 205 120 c 0
 229.666666667 119.333333333 267 120.666666667 317 124 c 0
 319 124 319 124 321 124 c 0
 373 128 412.333333333 129.666666667 439 129 c 0
 464.333333333 129 487.666666667 127 509 123 c 1
384 249 m 0
 383.333333333 243 382.333333333 237.666666667 381 233 c 0
 379 225.666666667 376 219 372 213 c 0
 362.666666667 200.333333333 350.333333333 193.333333333 335 192 c 0
 319 190.666666667 305 195.333333333 293 206 c 0
 291.666666667 207.333333333 290.333333333 209 289 211 c 2
 288 211 l 1
 272 221 263.666666667 235 263 253 c 0
 263 260.333333333 264.333333333 267.666666667 267 275 c 0
 269 279 271.5 282.833333333 274.5 286.5 c 128
 277.5 290.166666667 281 293.666666667 285 297 c 0
 291.666666667 301.666666667 299.666666667 305.333333333 309 308 c 0
 314.333333333 310 319.333333333 311 324 311 c 0
 328.666666667 311.666666667 333.333333333 311.666666667 338 311 c 0
 346.666666667 309 354.666666667 305 362 299 c 0
 366 295.666666667 369.333333333 292 372 288 c 0
 378 281.333333333 381.666666667 273.666666667 383 265 c 0
 384.333333333 259.666666667 384.666666667 254.333333333 384 249 c 0
335 603 m 0
 351 598.333333333 366.666666667 588 382 572 c 0
 393.333333333 560 405.333333333 545 418 527 c 0
 438.666666667 496.333333333 462.333333333 455 489 403 c 0
 502.333333333 376.333333333 516.666666667 347 532 315 c 0
 552.666666667 272.333333333 574.666666667 224 598 170 c 0
 605.333333333 152 613.666666667 132.333333333 623 111 c 2
 627 102 l 2
 629.666666667 95.3333333333 632.333333333 88.8333333333 635 82.5 c 128
 637.666666667 76.1666666667 639.333333333 72.3333333333 640 71 c 0
 645.333333333 57.6666666667 645.5 44.6666666667 640.5 32 c 128
 635.5 19.3333333333 626.666666667 10.3333333333 614 5 c 0
 593.333333333 -3.66666666667 575 0 559 16 c 1
 549 12.6666666667 538.666666667 12.6666666667 528 16 c 0
 503.333333333 24 473 28.6666666667 437 30 c 0
 413.666666667 30 377.333333333 28.3333333333 328 25 c 0
 326 24.3333333333 324.666666667 24 324 24 c 0
 270.666666667 20 230 18.6666666667 202 20 c 0
 165.333333333 21.3333333333 132.333333333 26 103 34 c 1
 87 27.3333333333 71.6666666667 28.3333333333 57 37 c 0
 45 44.3333333333 37.5 54.8333333333 34.5 68.5 c 128
 31.5 82.1666666667 33.6666666667 94.6666666667 41 106 c 0
 59 135.333333333 77.3333333333 169.333333333 96 208 c 0
 107.333333333 232 123.666666667 268.666666667 145 318 c 0
 145.666666667 319.333333333 146.333333333 320.333333333 147 321 c 0
 171 376.333333333 189.666666667 418 203 446 c 0
 226.333333333 492.666666667 249.666666667 533.666666667 273 569 c 1
 277 582.333333333 285 592.333333333 297 599 c 128
 309 605.666666667 321.666666667 607 335 603 c 0
EndSplineSet
Validated: 524321
EndChar

StartChar: eight
Encoding: 56 56 48
Width: 705
Flags: HW
LayerCount: 2
Fore
SplineSet
415 571 m 0
 451.666666667 504.333333333 493 420.333333333 539 319 c 0
 596.333333333 191 628.333333333 102.333333333 635 53 c 0
 637 39 633.833333333 26.5 625.5 15.5 c 128
 617.166666667 4.5 606.333333333 -2 593 -4 c 0
 583.666666667 -5.33333333333 575 -4 567 0 c 1
 532.333333333 2 494 3 452 3 c 0
 411 2 411 2 329 0 c 0
 317 -0.666666666667 308.333333333 -1 303 -1 c 0
 210.333333333 -4.33333333333 137 -4.33333333333 83 -1 c 1
 68.3333333333 -9 53.3333333333 -9.33333333333 38 -2 c 0
 25.3333333333 4 16.6666666667 13.3333333333 12 26 c 128
 7.33333333333 38.6666666667 8 51.3333333333 14 64 c 0
 31.3333333333 102.666666667 54 144.333333333 82 189 c 0
 98.6666666667 215.666666667 124.666666667 254.333333333 160 305 c 0
 160 305.666666667 160.333333333 306.333333333 161 307 c 0
 198.333333333 361 225.666666667 401.666666667 243 429 c 0
 270.333333333 473.666666667 292 515 308 553 c 0
 313.333333333 565 321.666666667 573.666666667 333 579 c 0
 337 583.666666667 342 587.333333333 348 590 c 0
 360 596.666666667 372.5 598.166666667 385.5 594.5 c 128
 398.5 590.833333333 408.333333333 583 415 571 c 0
EndSplineSet
Validated: 524321
EndChar

StartChar: nine
Encoding: 57 57 49
Width: 649
Flags: HW
LayerCount: 2
Fore
SplineSet
148 104 m 1
 179.333333333 108 213 110.666666667 249 112 c 0
 290.333333333 114 352.333333333 114.666666667 435 114 c 0
 447 114 447 114 455 114 c 1
 449 129 449 129 443 144 c 0
 423 192.666666667 394 253 356 325 c 0
 348.666666667 339 332.333333333 369.666666667 307 417 c 1
 307.666666667 417 303 426.666666667 293 446 c 1
 277.666666667 410 257.666666667 363 233 305 c 0
 206.333333333 243 178 176 148 104 c 1
31 84 m 0
 63 160 99.6666666667 246.666666667 141 344 c 0
 169 410 191.333333333 462 208 500 c 0
 217.333333333 522 224.666666667 539 230 551 c 0
 233.333333333 558.333333333 236 563.666666667 238 567 c 0
 239 569 239 569 240 571 c 0
 245.333333333 581.666666667 248.833333333 588 250.5 590 c 128
 252.166666667 592 255.333333333 593.666666667 260 595 c 0
 264 595.666666667 267.333333333 596.333333333 270 597 c 0
 282.666666667 601.666666667 295.333333333 601.333333333 308 596 c 0
 314 593.333333333 319.333333333 589.666666667 324 585 c 0
 329.333333333 581 334.666666667 575.333333333 340 568 c 0
 346 559.333333333 353 547.333333333 361 532 c 0
 363.666666667 528 366.333333333 523.333333333 369 518 c 2
 396 463 l 2
 420.666666667 416.333333333 437 385.666666667 445 371 c 0
 483.666666667 296.333333333 513.666666667 233.333333333 535 182 c 0
 553 140 567 101 577 65 c 0
 581 51.6666666667 579.666666667 38.8333333333 573 26.5 c 128
 566.333333333 14.1666666667 556.333333333 6.33333333333 543 3 c 0
 525 -2.33333333333 509 1.33333333333 495 14 c 1
 475 14 475 14 434 14 c 0
 353.333333333 14.6666666667 293.333333333 14.3333333333 254 13 c 0
 186 9.66666666667 124.333333333 2 69 -10 c 0
 55 -12.6666666667 42.3333333333 -10.1666666667 31 -2.5 c 128
 19.6666666667 5.16666666667 12.3333333333 15.6666666667 9 29 c 0
 5 50.3333333333 12 67.3333333333 30 80 c 0
 30.6666666667 81.3333333333 31 82.6666666667 31 84 c 0
EndSplineSet
Validated: 524321
EndChar

StartChar: three
Encoding: 51 51 50
Width: 664
Flags: HW
LayerCount: 2
Fore
SplineSet
318 433 m 1
 296 425.666666667 277 414.666666667 261 400 c 0
 231 372 214 336.666666667 210 294 c 0
 206 252.666666667 215.666666667 216.333333333 239 185 c 0
 260.333333333 157 290 139.333333333 328 132 c 0
 328.666666667 132.666666667 329.666666667 133.333333333 331 134 c 1
 330.333333333 135.333333333 329.666666667 136.333333333 329 137 c 0
 323.666666667 145.666666667 320.333333333 157.666666667 319 173 c 0
 318.333333333 183.666666667 318 197.666666667 318 215 c 0
 318 230.333333333 317.333333333 253.666666667 316 285 c 0
 316 299.666666667 315.666666667 310.666666667 315 318 c 0
 314.333333333 364.666666667 315.333333333 403 318 433 c 1
341 29 m 0
 263 36.3333333333 202.333333333 68.3333333333 159 125 c 0
 120.333333333 176.333333333 104 235.666666667 110 303 c 0
 116.666666667 371.666666667 144.333333333 428.333333333 193 473 c 0
 247.666666667 523 317.333333333 546.666666667 402 544 c 0
 468 542 519 512.666666667 555 456 c 0
 585 408 598 352 594 288 c 0
 590 223.333333333 569.333333333 168.333333333 532 123 c 0
 492.666666667 75.6666666667 442.333333333 49.3333333333 381 44 c 1
 369.666666667 32.6666666667 356.333333333 27.6666666667 341 29 c 0
EndSplineSet
Validated: 524321
EndChar

StartChar: underscore
Encoding: 95 95 51
Width: 709
Flags: HW
LayerCount: 2
Fore
SplineSet
513 498 m 0
 511 498 509.333333333 497.666666667 508 497 c 0
 504.666666667 497 501 496.666666667 497 496 c 0
 495.666666667 496 492 495.833333333 486 495.5 c 128
 480 495.166666667 476.666666667 494.666666667 476 494 c 0
 468 493.333333333 462.333333333 493 459 493 c 0
 421 493 364 495.666666667 288 501 c 0
 220 505 220 505 186 507 c 0
 166 507.666666667 147.333333333 508 130 508 c 1
 129.333333333 452 129 378.666666667 129 288 c 0
 129 223.333333333 129.666666667 170 131 128 c 0
 131 113 131 113 131 100 c 1
 146 100 146 100 166 100 c 0
 208 99.3333333333 266.333333333 99 341 99 c 0
 410 99 410 99 508 99 c 0
 514 99 514 99 531 99 c 1
 528.333333333 116.333333333 526 139 524 167 c 0
 522 197 520.666666667 243.666666667 520 307 c 0
 520 311 520 311 520 320 c 0
 519.333333333 389.333333333 518 437.333333333 516 464 c 0
 515.333333333 477.333333333 514.333333333 488.666666667 513 498 c 0
83 607 m 0
 115 608.333333333 150.666666667 608.333333333 190 607 c 0
 214 605.666666667 249 603.666666667 295 601 c 0
 368.333333333 595.666666667 422.666666667 593 458 593 c 0
 459 593 459 593 460 593 c 0
 462 593.666666667 464.333333333 594 467 594 c 0
 467.666666667 594 471 594.333333333 477 595 c 128
 483 595.666666667 486.666666667 596 488 596 c 0
 492 596.666666667 496 597 500 597 c 0
 513.333333333 598.333333333 524 599 532 599 c 0
 542 599 542 599 548 599 c 0
 552 598.333333333 555.666666667 597.666666667 559 597 c 128
 562.333333333 596.333333333 565.666666667 595.333333333 569 594 c 0
 575 591.333333333 580.333333333 587.666666667 585 583 c 0
 592.333333333 575.666666667 598 566 602 554 c 0
 604.666666667 547.333333333 607 539 609 529 c 0
 611.666666667 513.666666667 614 494 616 470 c 0
 618 442 619.333333333 392.333333333 620 321 c 0
 620 312 620 312 620 308 c 0
 620.666666667 246.666666667 622 201.666666667 624 173 c 0
 626.666666667 133.666666667 630.166666667 108.833333333 634.5 98.5 c 128
 638.833333333 88.1666666667 639.666666667 77.6666666667 637 67 c 1
 639 61 640 55 640 49 c 0
 640 35 635.166666667 23.1666666667 625.5 13.5 c 128
 615.833333333 3.83333333333 604 -1 590 -1 c 0
 582 -1 582 -1 558 -1 c 2
 548 -1 l 2
 537 -1 537 -1 525 -1 c 128
 513 -1 513 -1 508 -1 c 0
 411 -1 411 -1 341 -1 c 0
 266.333333333 -1 207.666666667 -0.666666666667 165 0 c 0
 139.666666667 0 120 0.333333333333 106 1 c 0
 98 1 91.6666666667 1.33333333333 87 2 c 0
 83.6666666667 2 81 2.33333333333 79 3 c 0
 69.6666666667 4.33333333333 63.1666666667 5.83333333333 59.5 7.5 c 128
 55.8333333333 9.16666666667 51 13.6666666667 45 21 c 0
 40.3333333333 27 37.5 31.5 36.5 34.5 c 128
 35.5 37.5 34.3333333333 44 33 54 c 0
 33 58.6666666667 32.6666666667 64.6666666667 32 72 c 0
 31.3333333333 85.3333333333 31 103.666666667 31 127 c 0
 29.6666666667 168.333333333 29 222 29 288 c 0
 28.3333333333 439.333333333 29 528 31 554 c 0
 31.6666666667 564 35 573 41 581 c 0
 49.6666666667 597.666666667 63.6666666667 606.333333333 83 607 c 0
EndSplineSet
Validated: 524321
EndChar

StartChar: six
Encoding: 54 54 52
Width: 688
Flags: HW
LayerCount: 2
Fore
SplineSet
320 135 m 1
 328 136.333333333 335.666666667 135.666666667 343 133 c 0
 376.333333333 122.333333333 408.666666667 128.333333333 440 151 c 0
 473.333333333 175.666666667 496.666666667 210.666666667 510 256 c 0
 524 302.666666667 522 345.333333333 504 384 c 0
 484 428 444.666666667 459.666666667 386 479 c 0
 342.666666667 493.666666667 305.333333333 489.333333333 274 466 c 0
 243.333333333 443.333333333 222.666666667 408.666666667 212 362 c 0
 201.333333333 313.333333333 205 268.333333333 223 227 c 0
 241.666666667 183 274 152.333333333 320 135 c 1
329 263 m 0
 327 264 327 264 325 265 c 0
 312.333333333 273.666666667 304.666666667 285 302 299 c 0
 298.666666667 315 302.333333333 329.333333333 313 342 c 0
 313 342.666666667 313.333333333 343.333333333 314 344 c 0
 316.666666667 349.333333333 320.333333333 354 325 358 c 0
 333.666666667 366.666666667 344 371.666666667 356 373 c 0
 372.666666667 375 387 369.666666667 399 357 c 0
 405.666666667 350.333333333 410 342.333333333 412 333 c 0
 413.333333333 327.666666667 414 322.333333333 414 317 c 0
 414 291.666666667 403.333333333 273.333333333 382 262 c 0
 374.666666667 258 366.666666667 255.666666667 358 255 c 0
 348 254.333333333 338.333333333 257 329 263 c 0
288 40 m 0
 214 66.6666666667 161.666666667 115.666666667 131 187 c 0
 104.333333333 249 99 314.666666667 115 384 c 0
 131 454.666666667 164.333333333 509 215 547 c 0
 274.333333333 590.333333333 341.666666667 599.333333333 417 574 c 0
 503.666666667 545.333333333 563 495.666666667 595 425 c 0
 623.666666667 363.666666667 627.333333333 297.666666667 606 227 c 0
 586 161 550.333333333 109 499 71 c 0
 440.333333333 27.6666666667 378.333333333 16.6666666667 313 38 c 1
 304.333333333 36.6666666667 296 37.3333333333 288 40 c 0
EndSplineSet
Validated: 524321
EndChar

StartChar: t
Encoding: 116 116 53
Width: 739
Flags: HW
LayerCount: 2
Fore
SplineSet
63 114 m 0
 103.666666667 103.333333333 150 97 202 95 c 0
 226 94.3333333333 251.666666667 94 279 94 c 1
 277.666666667 122 274 167.333333333 268 230 c 0
 266.666666667 247.333333333 265.333333333 260.333333333 264 269 c 0
 258.666666667 327.666666667 256.333333333 376.333333333 257 415 c 0
 257 469.666666667 262 520 272 566 c 0
 275.333333333 579.333333333 282.666666667 589.666666667 294 597 c 128
 305.333333333 604.333333333 317.833333333 606.5 331.5 603.5 c 128
 345.166666667 600.5 355.666666667 593.166666667 363 581.5 c 128
 370.333333333 569.833333333 372.666666667 557.333333333 370 544 c 0
 361.333333333 505.333333333 357 462.333333333 357 415 c 0
 356.333333333 379.666666667 358.666666667 334 364 278 c 0
 364.666666667 269.333333333 366 256.333333333 368 239 c 0
 374 175 377.333333333 128.333333333 378 99 c 1
 390.666666667 99.6666666667 409.333333333 100.666666667 434 102 c 0
 518 108 580 111 620 111 c 0
 634 111 645.833333333 106.166666667 655.5 96.5 c 128
 665.166666667 86.8333333333 670 75 670 61 c 128
 670 47 665.166666667 35.1666666667 655.5 25.5 c 128
 645.833333333 15.8333333333 634 11 620 11 c 0
 582.666666667 11 523 8.33333333333 441 3 c 0
 405.666666667 0.333333333333 378.333333333 -1.66666666667 359 -3 c 0
 296.333333333 -6.33333333333 242.666666667 -7 198 -5 c 0
 139.333333333 -2.33333333333 86.3333333333 4.66666666667 39 16 c 0
 25.6666666667 20 15.3333333333 27.8333333333 8 39.5 c 128
 0.666666666667 51.1666666667 -1.33333333333 63.6666666667 2 77 c 128
 5.33333333333 90.3333333333 13 100.666666667 25 108 c 128
 37 115.333333333 49.6666666667 117.333333333 63 114 c 0
EndSplineSet
Validated: 524321
EndChar

StartChar: j
Encoding: 106 106 54
Width: 659
Flags: HW
LayerCount: 2
Fore
SplineSet
337 483 m 0
 336.333333333 471 335.333333333 458.333333333 334 445 c 0
 332.666666667 425 329.333333333 397 324 361 c 0
 317.333333333 307.666666667 313.666666667 270 313 248 c 0
 311.666666667 214.666666667 314.666666667 188.333333333 322 169 c 0
 328.666666667 151 340.666666667 137.666666667 358 129 c 0
 382.666666667 115.666666667 419.333333333 109 468 109 c 0
 481.333333333 109 493 104.166666667 503 94.5 c 128
 513 84.8333333333 518 73 518 59 c 128
 518 45 513 33.1666666667 503 23.5 c 128
 493 13.8333333333 481.333333333 9 468 9 c 0
 403.333333333 9 351.333333333 19.3333333333 312 40 c 0
 272 60.6666666667 244 92 228 134 c 0
 216 165.333333333 211 204.666666667 213 252 c 0
 213.666666667 276.666666667 217.666666667 317.333333333 225 374 c 0
 229.666666667 408.666666667 233 435.333333333 235 454 c 0
 235.666666667 466 236.333333333 477 237 487 c 0
 237 489.666666667 237.333333333 492.333333333 238 495 c 1
 210 496.333333333 166.333333333 498 107 500 c 0
 101 500.666666667 95.6666666667 501 91 501 c 0
 77.6666666667 501.666666667 66.3333333333 507 57 517 c 128
 47.6666666667 527 43.1666666667 538.833333333 43.5 552.5 c 128
 43.8333333333 566.166666667 49.1666666667 577.833333333 59.5 587.5 c 128
 69.8333333333 597.166666667 81.6666666667 601.666666667 95 601 c 0
 97 601 102.333333333 600.666666667 111 600 c 0
 197.666666667 596.666666667 262.333333333 594.333333333 305 593 c 0
 393 590.333333333 471 589 539 589 c 0
 553 589 564.833333333 584.166666667 574.5 574.5 c 128
 584.166666667 564.833333333 589 553 589 539 c 128
 589 525 584.166666667 513.166666667 574.5 503.5 c 128
 564.833333333 493.833333333 553 489 539 489 c 0
 478.333333333 489 410.666666667 490 336 492 c 1
 336.666666667 489.333333333 337 486.333333333 337 483 c 0
EndSplineSet
Validated: 524321
EndChar

StartChar: ampersand
Encoding: 38 38 55
Width: 492
Flags: HW
LayerCount: 2
Fore
SplineSet
119 589 m 0
 120 589 120 589 122 589 c 0
 159.333333333 587.666666667 187 586 205 584 c 0
 261 578.666666667 307 567 343 549 c 0
 365.666666667 537.666666667 383.666666667 519.666666667 397 495 c 0
 405 480.333333333 411.666666667 461.666666667 417 439 c 0
 428.333333333 392.333333333 424 352.333333333 404 319 c 0
 387.333333333 290.333333333 360.666666667 268.666666667 324 254 c 0
 298 243.333333333 266.666666667 236.333333333 230 233 c 0
 208 231 180.333333333 230 147 230 c 0
 142.333333333 230 138 230.666666667 134 232 c 1
 132.666666667 216 132 200.333333333 132 185 c 0
 131.333333333 141.666666667 133.666666667 103.666666667 139 71 c 0
 141.666666667 57 139 44.5 131 33.5 c 128
 123 22.5 112.166666667 15.8333333333 98.5 13.5 c 128
 84.8333333333 11.1666666667 72.3333333333 14 61 22 c 128
 49.6666666667 30 43 40.6666666667 41 54 c 0
 34.3333333333 93.3333333333 31.3333333333 137.333333333 32 186 c 0
 32.6666666667 214.666666667 35 257.666666667 39 315 c 0
 40.3333333333 331 41.3333333333 343.333333333 42 352 c 0
 46.6666666667 422 47 477.666666667 43 519 c 0
 41.6666666667 531.666666667 44.5 543 51.5 553 c 128
 58.5 563 67.6666666667 569.333333333 79 572 c 1
 89.6666666667 584 103 589.666666667 119 589 c 0
EndSplineSet
Validated: 524321
EndChar

StartChar: four
Encoding: 52 52 56
Width: 661
Flags: HW
LayerCount: 2
Fore
SplineSet
294 37 m 0
 238 37 187.666666667 61.6666666667 143 111 c 0
 94.3333333333 165 66 229.666666667 58 305 c 0
 49.3333333333 390.333333333 71 460 123 514 c 0
 183 574.666666667 271.666666667 600.333333333 389 591 c 0
 470.333333333 584.333333333 528.333333333 546.666666667 563 478 c 0
 591.666666667 422 599 356.666666667 585 282 c 0
 571 210 541.333333333 150.333333333 496 103 c 0
 442 46.3333333333 379.666666667 23 309 33 c 0
 303.666666667 33.6666666667 298.666666667 35 294 37 c 0
362 481 m 0
 356 459 352.666666667 433 352 403 c 0
 352 383.666666667 353 353.666666667 355 313 c 2
 355 312 l 2
 356.333333333 276.666666667 357 250 357 232 c 0
 357 200.666666667 355 172.666666667 351 148 c 0
 350.333333333 143.333333333 349 139 347 135 c 0
 348.333333333 133.666666667 349.666666667 132.666666667 351 132 c 0
 377.666666667 135.333333333 402 148.666666667 424 172 c 0
 456 204.666666667 477 247.333333333 487 300 c 128
 497 352.666666667 492.666666667 397 474 433 c 0
 456 467.666666667 425 487 381 491 c 0
 375 491.666666667 369.333333333 492 364 492 c 1
 364 488 363.333333333 484.333333333 362 481 c 0
EndSplineSet
Validated: 524321
EndChar

StartChar: slash
Encoding: 47 47 57
Width: 599
Flags: HW
LayerCount: 2
Fore
SplineSet
40 81 m 0
 57.3333333333 101.666666667 76.6666666667 125.333333333 98 152 c 0
 109.333333333 166.666666667 123.666666667 184.666666667 141 206 c 0
 143.666666667 209.333333333 147.333333333 213.666666667 152 219 c 0
 154 221.666666667 157.666666667 226.333333333 163 233 c 0
 171.666666667 243.666666667 179 252.666666667 185 260 c 0
 235.666666667 323.333333333 277.333333333 374.333333333 310 413 c 0
 357.333333333 468.333333333 402 517 444 559 c 0
 453.333333333 568.333333333 465 573 479 573 c 128
 493 573 504.833333333 568.166666667 514.5 558.5 c 128
 524.166666667 548.833333333 529 537.166666667 529 523.5 c 128
 529 509.833333333 524.333333333 498 515 488 c 0
 475 448 432 401.333333333 386 348 c 0
 354 310 313 259.666666667 263 197 c 0
 257 190.333333333 249.666666667 181.333333333 241 170 c 0
 240.333333333 169.333333333 239 167.833333333 237 165.5 c 128
 235 163.166666667 233.333333333 161.333333333 232 160 c 2
 230 157 l 2
 226 151.666666667 222.333333333 147 219 143 c 0
 201.666666667 121.666666667 187.333333333 103.666666667 176 89 c 0
 154 62.3333333333 134.333333333 38.3333333333 117 17 c 0
 107.666666667 6.33333333333 96.1666666667 0.333333333333 82.5 -1 c 128
 68.8333333333 -2.33333333333 56.6666666667 1.5 46 10.5 c 128
 35.3333333333 19.5 29.5 30.8333333333 28.5 44.5 c 128
 27.5 58.1666666667 31.3333333333 70.3333333333 40 81 c 0
EndSplineSet
Validated: 524321
EndChar

StartChar: hyphen
Encoding: 45 45 58
Width: 653
Flags: HW
LayerCount: 2
Fore
SplineSet
92 393 m 0
 121.333333333 389 155.333333333 387.333333333 194 388 c 0
 217.333333333 388.666666667 253 390.666666667 301 394 c 0
 307 394 307 394 310 394 c 0
 358.666666667 397.333333333 396.333333333 399.333333333 423 400 c 0
 466.333333333 400 505.333333333 397.666666667 540 393 c 0
 554 391 565.166666667 384.5 573.5 373.5 c 128
 581.833333333 362.5 585 350.166666667 583 336.5 c 128
 581 322.833333333 574.5 311.833333333 563.5 303.5 c 128
 552.5 295.166666667 540 292 526 294 c 0
 496.666666667 298 463 300 425 300 c 0
 399.666666667 299.333333333 363.666666667 297.666666667 317 295 c 0
 315 294.333333333 312 294 308 294 c 0
 258 290.666666667 220.666666667 288.666666667 196 288 c 0
 152.666666667 287.333333333 114 289.333333333 80 294 c 0
 66 295.333333333 54.8333333333 301.5 46.5 312.5 c 128
 38.1666666667 323.5 34.8333333333 335.833333333 36.5 349.5 c 128
 38.1666666667 363.166666667 44.3333333333 374.333333333 55 383 c 128
 65.6666666667 391.666666667 78 395 92 393 c 0
EndSplineSet
Validated: 524321
EndChar

StartChar: five
Encoding: 53 53 59
Width: 642
Flags: HW
LayerCount: 2
Fore
SplineSet
289 47 m 0
 217.666666667 50.3333333333 160 81.3333333333 116 140 c 0
 76 193.333333333 58 254 62 322 c 0
 66 395.333333333 95.6666666667 454 151 498 c 0
 211.666666667 546 292.333333333 565 393 555 c 0
 454.333333333 549 502 517 536 459 c 0
 564.666666667 409 576.333333333 352.333333333 571 289 c 0
 565 221.666666667 540.333333333 166 497 122 c 0
 447 71.3333333333 381 46 299 46 c 0
 295.666666667 46 292.333333333 46.3333333333 289 47 c 0
EndSplineSet
Validated: 524321
EndChar

StartChar: semicolon
Encoding: 59 59 60
Width: 693
Flags: HW
LayerCount: 2
Fore
SplineSet
394 461 m 0
 390 421 388 381.333333333 388 342 c 0
 388 286 392 238.666666667 400 200 c 0
 408.666666667 158.666666667 420.666666667 132 436 120 c 0
 441.333333333 116 447 114.333333333 453 115 c 0
 465 115 479.666666667 120 497 130 c 0
 509 136.666666667 521.666666667 138 535 134 c 128
 548.333333333 130 558.333333333 122 565 110 c 128
 571.666666667 98 573.166666667 85.3333333333 569.5 72 c 128
 565.833333333 58.6666666667 558 48.6666666667 546 42 c 0
 514 24 483.666666667 15 455 15 c 0
 425 14.3333333333 398 23 374 41 c 0
 357.333333333 55 343 73 331 95 c 1
 322.333333333 78.3333333333 311.333333333 64.6666666667 298 54 c 0
 274 33.3333333333 245.333333333 23 212 23 c 0
 188 23 165.666666667 27 145 35 c 0
 117.666666667 44.3333333333 96 59 80 79 c 0
 71.3333333333 89.6666666667 67.8333333333 101.833333333 69.5 115.5 c 128
 71.1666666667 129.166666667 77.3333333333 140.333333333 88 149 c 128
 98.6666666667 157.666666667 110.833333333 161.166666667 124.5 159.5 c 128
 138.166666667 157.833333333 149.333333333 151.666666667 158 141 c 0
 168 129 186 123 212 123 c 0
 221.333333333 123 228.333333333 125.333333333 233 130 c 0
 239.666666667 135.333333333 245.333333333 144.666666667 250 158 c 0
 260.666666667 186.666666667 265 230.333333333 263 289 c 0
 262.333333333 313 260.333333333 344 257 382 c 0
 257 383.333333333 256.833333333 385.5 256.5 388.5 c 128
 256.166666667 391.5 256 394.5 256 397.5 c 128
 256 402 256 402 256 406 c 2
 255 409 l 2
 254.333333333 419 253.666666667 427.333333333 253 434 c 0
 251.666666667 452.666666667 251 467.333333333 251 478 c 0
 251 481 251 481 251 484 c 0
 183.666666667 485.333333333 126 481.666666667 78 473 c 0
 64 470.333333333 51.3333333333 472.833333333 40 480.5 c 128
 28.6666666667 488.166666667 21.6666666667 498.833333333 19 512.5 c 128
 16.3333333333 526.166666667 19 538.666666667 27 550 c 128
 35 561.333333333 45.6666666667 568.333333333 59 571 c 0
 101 579 148.333333333 583.333333333 201 584 c 0
 239 584.666666667 286 583.333333333 342 580 c 0
 356 579.333333333 376 578 402 576 c 0
 480 570 537 567 573 567 c 0
 587 567 598.833333333 562.166666667 608.5 552.5 c 128
 618.166666667 542.833333333 623 531.166666667 623 517.5 c 128
 623 503.833333333 618.166666667 492 608.5 482 c 128
 598.833333333 472 587 467 573 467 c 0
 534.333333333 467 475 470 395 476 c 0
 394 476 394 476 393 476 c 1
 394.333333333 471.333333333 394.666666667 466.333333333 394 461 c 0
114 315 m 0
 114 317 114.333333333 318.666666667 115 320 c 2
 115 321 l 2
 114.333333333 322.333333333 114 323.666666667 114 325 c 0
 114 328.333333333 114.333333333 331.666666667 115 335 c 0
 118.333333333 353 128.333333333 365.666666667 145 373 c 0
 150.333333333 375 155.666666667 376.333333333 161 377 c 0
 165 377 165 377 169 377 c 0
 181 376.333333333 191.666666667 371.833333333 201 363.5 c 128
 210.333333333 355.166666667 215.666666667 345 217 333 c 0
 218.333333333 324.333333333 217.333333333 316 214 308 c 0
 213.333333333 305.333333333 213 302.666666667 213 300 c 0
 210.333333333 286 203.5 275 192.5 267 c 128
 181.5 259 169.166666667 256 155.5 258 c 128
 141.833333333 260 131 266.666666667 123 278 c 128
 115 289.333333333 112 301.666666667 114 315 c 0
EndSplineSet
Validated: 524321
EndChar

StartChar: at
Encoding: 64 64 61
Width: 677
Flags: HW
LayerCount: 2
Fore
SplineSet
478 491 m 1
 453 491 453 491 415 491 c 0
 384 491 384 491 341 491 c 0
 336 491 336 491 329 491 c 2
 328 491 l 1
 327 491 l 1
 326 491 l 1
 325 491 l 1
 323 491 l 1
 322 491 l 1
 321 491 l 1
 320 491 l 1
 319 491 l 2
 308 491 308 491 305 491 c 0
 293.666666667 491 272.333333333 492.666666667 241 496 c 0
 228.333333333 497.333333333 218 498.333333333 210 499 c 0
 190.666666667 500.333333333 174.666666667 500.666666667 162 500 c 0
 156 499.333333333 151 498.666666667 147 498 c 0
 145 497.333333333 143.333333333 496.666666667 142 496 c 0
 141.333333333 496 140.666666667 495.666666667 140 495 c 0
 135.333333333 492.333333333 130.333333333 490.666666667 125 490 c 1
 119.666666667 457.333333333 117.333333333 409.666666667 118 347 c 0
 118 338 118 338 118 322 c 0
 118 262 117 217.666666667 115 189 c 0
 114.333333333 183.666666667 113.333333333 176.333333333 112 167 c 0
 111.333333333 165.666666667 110.666666667 163.333333333 110 160 c 128
 109 155 109 155 108 150 c 2
 107 145 l 2
 105.666666667 138.333333333 104.666666667 132.666666667 104 128 c 0
 104 125 104 125 104 123 c 2
 105 123 l 2
 112.333333333 123 129.333333333 122.666666667 156 122 c 0
 186 121.333333333 214.333333333 120.666666667 241 120 c 0
 274.333333333 119.333333333 303.666666667 118.666666667 329 118 c 0
 392.333333333 116.666666667 442 116.333333333 478 117 c 0
 487 117 487 117 495 117 c 1
 485 171.666666667 479.333333333 239.333333333 478 320 c 0
 477.333333333 346 477.333333333 384.666666667 478 436 c 0
 478 474 478 474 478 491 c 1
86 579 m 0
 87.3333333333 580.333333333 89.3333333333 581.666666667 92 583 c 0
 108.666666667 592.333333333 130 598 156 600 c 0
 172.666666667 600.666666667 193.333333333 600 218 598 c 0
 226.666666667 597.333333333 237.666666667 596.333333333 251 595 c 0
 279.666666667 592.333333333 297.666666667 591 305 591 c 0
 308 591 308 591 318 591 c 0
 319 591 319 591 321.5 591 c 128
 324 591 324 591 326 591 c 2
 328 591 l 2
 335 591 335 591 340 591 c 0
 384 591 384 591 415 591 c 0
 447 591 472.666666667 590.666666667 492 590 c 0
 504 589.333333333 513.666666667 588.666666667 521 588 c 0
 526.333333333 587.333333333 530.666666667 586.666666667 534 586 c 128
 537.333333333 585.333333333 540.666666667 584.333333333 544 583 c 0
 551.333333333 580.333333333 557.666666667 576.333333333 563 571 c 0
 569.666666667 564.333333333 574.333333333 556.333333333 577 547 c 0
 578.333333333 543 579.166666667 538.666666667 579.5 534 c 128
 579.833333333 529.333333333 579.666666667 524 579 518 c 0
 579 514 579 514 579 509 c 2
 578 507 l 1
 578 505 l 2
 578 486 578 486 578 435 c 0
 577.333333333 385 577.333333333 347 578 321 c 0
 579.333333333 240.333333333 585.333333333 174.333333333 596 123 c 1
 597 121 l 1
 597 120 l 2
 597.666666667 119.333333333 598 118.666666667 598 118 c 0
 599 116 599 116 600 114 c 0
 600.666666667 111.333333333 601.333333333 109 602 107 c 0
 604.666666667 99 606.333333333 92 607 86 c 0
 607.666666667 78.6666666667 607.333333333 72 606 66 c 0
 603.333333333 52.6666666667 596.666666667 41.6666666667 586 33 c 0
 580.666666667 29 574.666666667 26 568 24 c 0
 564.666666667 23.3333333333 560.666666667 22.3333333333 556 21 c 0
 550.666666667 20.3333333333 543.666666667 19.6666666667 535 19 c 0
 521 17.6666666667 502.333333333 17 479 17 c 0
 442.333333333 16.3333333333 391.666666667 16.6666666667 327 18 c 0
 301 18.6666666667 271.333333333 19.3333333333 238 20 c 0
 232 20 221.833333333 20.1666666667 207.5 20.5 c 128
 193.166666667 20.8333333333 180.333333333 21.3333333333 169 22 c 2
 153 22 l 2
 127.666666667 22.6666666667 112 23 106 23 c 0
 105 23 105 23 104 23 c 128
 103 23 103 23 100.5 23 c 128
 98 23 98 23 97 23 c 0
 91 22.3333333333 85.6666666667 22 81 22 c 0
 71.6666666667 22 63.3333333333 22.6666666667 56 24 c 0
 49.3333333333 24.6666666667 43 26.3333333333 37 29 c 0
 25.6666666667 34.3333333333 17 42.6666666667 11 54 c 0
 3.66666666667 66.6666666667 0.333333333333 83 1 103 c 0
 1.66666666667 114.333333333 3.33333333333 128 6 144 c 0
 6.66666666667 149.333333333 7.66666666667 155.666666667 9 163 c 0
 9 163.666666667 9.33333333333 165.666666667 10 169 c 128
 11 174 11 174 12 179 c 128
 12.6666666667 182.333333333 13 184.666666667 13 186 c 0
 14.3333333333 191.333333333 15 195 15 197 c 0
 17 223 18 264.333333333 18 321 c 0
 18 338 18 338 18 346 c 0
 17.3333333333 386 18 418.333333333 20 443 c 0
 22 479.666666667 26.3333333333 512.333333333 33 541 c 0
 35.6666666667 553 42 562.5 52 569.5 c 128
 62 576.5 73.3333333333 579.666666667 86 579 c 0
240 324 m 0
 242.666666667 332.666666667 247.333333333 341.333333333 254 350 c 0
 262.666666667 361.333333333 273.833333333 367.666666667 287.5 369 c 128
 301.166666667 370.333333333 313.666666667 366.666666667 325 358 c 0
 328.333333333 355.333333333 331.333333333 352 334 348 c 0
 336.666666667 346 339.333333333 343.666666667 342 341 c 0
 355.333333333 326.333333333 358.666666667 309.666666667 352 291 c 0
 349.333333333 283 344.666666667 276 338 270 c 0
 334.666666667 267.333333333 331 265 327 263 c 0
 325 261.666666667 323.333333333 260.666666667 322 260 c 0
 318 258.666666667 313.666666667 257.666666667 309 257 c 0
 306.333333333 256.333333333 303.666666667 256 301 256 c 2
 300 255 l 1
 286.666666667 251.666666667 273.833333333 253.333333333 261.5 260 c 128
 249.166666667 266.666666667 241.333333333 276.666666667 238 290 c 0
 234.666666667 301.333333333 235.333333333 312.666666667 240 324 c 0
EndSplineSet
Validated: 524321
EndChar

StartChar: bar
Encoding: 124 124 62
Width: 1000
VWidth: 0
Flags: H
LayerCount: 2
Fore
SplineSet
506.352358936 746.694188016 m 0
 532.876706516 740.510412775 549.877963258 713.171988644 543.694188016 686.647641064 c 0
 538.994887114 666.490716587 533.989426618 643.154585779 530.966358707 622.260926465 c 2
 526.989776775 208.69640559 l 1
 522.954792034 113.874264169 l 2
 521.796876514 86.6632494423 498.085278895 64.8872924456 470.874264169 66.0452079658 c 0
 443.663249442 67.2031234861 421.887292446 90.9147211048 423.045207966 118.125735831 c 2
 427.010223225 211.30359441 l 1
 431.00231123 626.480747007 l 2
 431.016935048 628.001624014 431.187986208 630.778621357 431.461529349 632.77789979 c 0
 435.156068935 659.780636113 441.06791266 686.885199829 446.305811984 709.352358936 c 0
 452.489587225 735.876706516 479.828011356 752.877963258 506.352358936 746.694188016 c 0
EndSplineSet
Validated: 524321
EndChar

StartChar: exclam
Encoding: 33 33 63
Width: 1443
VWidth: 2048
Flags: HW
LayerCount: 2
Fore
SplineSet
369.495117188 517.950195312 m 4
 369.168945312 520.563476562 369.004882812 523.176757812 369.004882812 525.790039062 c 4
 369.004882812 536.569335938 372.271484375 546.206054688 378.805664062 554.700195312 c 4
 386.64453125 565.806640625 397.26171875 572.830078125 410.655273438 575.76953125 c 4
 446.26171875 580.99609375 486.278320312 583.609375 530.705078125 583.609375 c 4
 538.055664062 583.609375 538.055664062 583.609375 545.405273438 583.609375 c 4
 574.151367188 583.609375 617.598632812 581.9765625 675.745117188 578.709960938 c 4
 683.912109375 578.056640625 689.955078125 577.73046875 693.875 577.73046875 c 4
 743.528320312 574.462890625 782.565429688 572.666992188 810.984375 572.33984375 c 4
 853.125 572.33984375 890.69140625 575.1171875 923.684570312 580.669921875 c 4
 926.952148438 581.323242188 930.21875 581.650390625 933.484375 581.650390625 c 4
 942.958007812 581.650390625 952.10546875 578.546875 960.924804688 572.33984375 c 4
 972.03125 564.5 978.891601562 553.719726562 981.504882812 540 c 4
 981.831054688 536.733398438 981.995117188 533.629882812 981.995117188 530.690429688 c 4
 981.995117188 520.563476562 978.891601562 511.08984375 972.684570312 502.26953125 c 4
 964.518554688 490.836914062 953.412109375 484.140625 939.365234375 482.180664062 c 4
 901.14453125 475.646484375 858.678710938 472.379882812 811.96484375 472.379882812 c 4
 785.831054688 472.379882812 755.125 473.359375 719.844726562 475.319335938 c 5
 719.844726562 471.890625 719.844726562 471.890625 719.844726562 468.950195312 c 4
 720.171875 465.356445312 720.334960938 459.640625 720.334960938 451.799804688 c 132
 720.334960938 443.959960938 720.171875 433.99609375 719.844726562 421.91015625 c 4
 719.844726562 360.49609375 721.151367188 311.66015625 723.765625 275.400390625 c 4
 728.337890625 213.986328125 737.6484375 168.580078125 751.694335938 139.180664062 c 4
 758.228515625 125.787109375 764.598632812 116.966796875 770.805664062 112.719726562 c 4
 775.37890625 110.106445312 781.421875 109.453125 788.934570312 110.759765625 c 4
 789.915039062 111.740234375 789.915039062 111.740234375 790.89453125 112.719726562 c 4
 794.162109375 115.333007812 798.8984375 121.376953125 805.10546875 130.849609375 c 5
 805.10546875 131.830078125 l 5
 807.065429688 134.443359375 808.37109375 136.240234375 809.025390625 137.219726562 c 4
 817.844726562 149.959960938 825.194335938 159.596679688 831.075195312 166.129882812 c 4
 844.46875 179.5234375 859.168945312 188.180664062 875.174804688 192.099609375 c 4
 879.421875 193.080078125 883.668945312 193.569335938 887.915039062 193.569335938 c 4
 896.408203125 193.569335938 904.73828125 191.120117188 912.905273438 186.219726562 c 4
 924.665039062 179.359375 932.178710938 168.90625 935.444335938 154.859375 c 4
 936.424804688 150.61328125 936.915039062 146.3671875 936.915039062 142.120117188 c 4
 936.915039062 133.953125 934.955078125 126.11328125 931.03515625 118.599609375 c 4
 924.828125 107.494140625 915.681640625 99.98046875 903.594726562 96.0595703125 c 5
 900.981445312 93.4462890625 897.224609375 88.3828125 892.325195312 80.8701171875 c 4
 891.671875 80.216796875 890.365234375 78.5830078125 888.405273438 75.9697265625 c 5
 884.509765625 69.9921875 l 5
 877.420898438 60.1591796875 871.361328125 52.384765625 866.331054688 46.66796875 c 4
 855.583007812 36.3779296875 829.931640625 17.66015625 810.984375 13.740234375 c 4
 800.205078125 11.126953125 789.751953125 9.8193359375 779.625 9.8193359375 c 4
 757.412109375 9.8193359375 736.831054688 16.0263671875 717.884765625 28.4404296875 c 4
 695.018554688 42.486328125 676.234375 64.7001953125 661.53515625 95.080078125 c 5
 654.021484375 75.806640625 644.711914062 59.3095703125 633.60546875 45.58984375 c 4
 618.905273438 27.623046875 601.265625 15.7001953125 580.684570312 9.8193359375 c 4
 571.865234375 7.533203125 563.044921875 6.390625 554.224609375 6.390625 c 4
 541.484375 6.390625 528.418945312 8.83984375 515.025390625 13.740234375 c 4
 477.458007812 27.1328125 434.9921875 60.7802734375 387.625 114.680664062 c 4
 379.458007812 123.827148438 375.375 134.606445312 375.375 147.01953125 c 4
 375.375 148 375.538085938 149.143554688 375.865234375 150.450195312 c 4
 376.518554688 164.169921875 382.071289062 175.766601562 392.525390625 185.240234375 c 4
 401.671875 193.733398438 412.288085938 197.98046875 424.375 197.98046875 c 4
 426.334960938 197.98046875 426.334960938 197.98046875 428.78515625 197.98046875 c 4
 442.831054688 196.672851562 454.265625 190.793945312 463.084960938 180.33984375 c 4
 499.344726562 139.505859375 527.765625 115.66015625 548.344726562 108.799804688 c 4
 550.305664062 107.494140625 551.938476562 106.83984375 553.245117188 106.83984375 c 4
 554.551757812 107.494140625 555.53125 108.473632812 556.184570312 109.780273438 c 4
 565.004882812 120.559570312 572.681640625 141.629882812 579.21484375 172.990234375 c 4
 584.44140625 201.083007812 589.178710938 238.9765625 593.424804688 286.669921875 c 4
 594.078125 296.796875 594.731445312 308.719726562 595.384765625 322.440429688 c 4
 595.384765625 327.013671875 595.711914062 332.73046875 596.365234375 339.58984375 c 6
 597.344726562 343.509765625 l 6
 597.344726562 347.430664062 597.344726562 347.430664062 597.344726562 351.594726562 c 132
 597.344726562 355.759765625 597.344726562 355.759765625 597.344726562 357.719726562 c 4
 599.305664062 391.693359375 601.265625 417.172851562 603.224609375 434.16015625 c 4
 605.184570312 452.780273438 607.634765625 468.459960938 610.575195312 481.200195312 c 5
 586.401367188 482.505859375 564.3515625 483.16015625 544.424804688 483.16015625 c 4
 537.075195312 483.16015625 537.075195312 483.16015625 529.724609375 483.16015625 c 4
 491.504882812 483.16015625 457.205078125 480.873046875 426.825195312 476.299804688 c 4
 424.211914062 475.973632812 421.598632812 475.809570312 418.984375 475.809570312 c 4
 408.53125 475.809570312 398.731445312 478.913085938 389.584960938 485.120117188 c 4
 378.151367188 493.287109375 371.455078125 504.23046875 369.495117188 517.950195312 c 4
EndSplineSet
Validated: 524289
EndChar

StartChar: Q
Encoding: 81 81 64
Width: 1411
VWidth: 2048
Flags: HW
LayerCount: 2
Fore
SplineSet
399.5 268.5 m 0
 392.5 293.5 389 317.666992188 389 341 c 0
 389 379.333007812 398.333007812 415 417 448 c 0
 450.333007812 505.333007812 508.666992188 545.833007812 592 569.5 c 0
 621.333007812 577.833007812 647.5 583.666992188 670.5 587 c 0
 683.5 588.666992188 695.833007812 589.5 707.5 589.5 c 0
 728.833007812 589.5 748 586.666992188 765 581 c 0
 826.333007812 560.666992188 868 513.833007812 890 440.5 c 0
 900 408.166992188 905 374.333007812 905 339 c 0
 905 309 901.333007812 278 894 246 c 0
 886.333007812 213.333007812 875.333007812 183.333007812 861 156 c 1
 866.333007812 152 872.166992188 147.833007812 878.5 143.5 c 0
 899.5 127.833007812 919.666992188 117.333007812 939 112 c 0
 952 108 962 99.8330078125 969 87.5 c 0
 973 79.8330078125 975 71.8330078125 975 63.5 c 0
 975 58.8330078125 974.333007812 53.8330078125 973 48.5 c 0
 968.666992188 34.8330078125 960.333007812 24.5 948 17.5 c 0
 940.333007812 13.5 932.5 11.5 924.5 11.5 c 0
 919.5 11.5 914.5 12.1669921875 909.5 13.5 c 0
 879.5 22.5 849.333007812 37.8330078125 819 59.5 c 0
 811.333007812 64.8330078125 804.5 70 798.5 75 c 1
 775.833007812 55.3330078125 751.333007812 41.6669921875 725 34 c 1
 720.333007812 21 711.5 11.5 698.5 5.5 c 0
 691.166992188 2.1669921875 683.833007812 0.5 676.5 0.5 c 2
 659.5 3.5 l 1
 598.833007812 25.5 544.416992188 61 496.25 110 c 128
 448.083007812 159 415.833007812 211.833007812 399.5 268.5 c 0
498.5 297.5 m 0
 506.833007812 268.166992188 521.75 239.5 543.25 211.5 c 128
 564.75 183.5 590.166992188 159.166992188 619.5 138.5 c 1
 627.166992188 139.166992188 634 138.5 640 136.5 c 0
 652.333007812 132.166992188 664 130 675 130 c 0
 691.333007812 130 706.333007812 134.5 720 143.5 c 1
 709 153.166992188 698.666992188 161.5 689 168.5 c 0
 670 182.833007812 652.333007812 193.333007812 636 200 c 0
 623 205.333007812 613.666992188 214.5 608 227.5 c 0
 605.333007812 234.166992188 604 240.833007812 604 247.5 c 0
 604 253.833007812 605.333007812 260.166992188 608 266.5 c 0
 613 279.5 622 288.666992188 635 294 c 0
 641.666992188 296.666992188 648.333007812 298 655 298 c 128
 661.666992188 298 668.333007812 296.666992188 675 294 c 0
 699.666992188 284.333007812 724.833007812 269.666992188 750.5 250 c 0
 760.833007812 242.333007812 770.833007812 234.166992188 780.5 225.5 c 1
 785.833007812 239.166992188 790.166992188 253.5 793.5 268.5 c 0
 799.166992188 293.833007812 802 318 802 341 c 0
 802 365.666992188 798.833007812 389 792.5 411 c 0
 780.166992188 450 760.333007812 474.166992188 733 483.5 c 0
 726 485.5 717.666992188 486.5 708 486.5 c 0
 686 486.5 656.833007812 481.5 620.5 471.5 c 0
 563.166992188 455.166992188 525 430.166992188 506 396.5 c 0
 496.333007812 379.833007812 491.5 361.5 491.5 341.5 c 0
 491.5 327.833007812 493.833007812 313.166992188 498.5 297.5 c 0
EndSplineSet
Validated: 524289
EndChar

StartChar: backslash
Encoding: 92 92 65
Width: 599
Flags: HW
LayerCount: 2
Fore
SplineSet
517.5 81 m 4
 500.166992188 101.666992188 480.833007812 125.333007812 459.5 152 c 4
 448.166992188 166.666992188 433.833007812 184.666992188 416.5 206 c 4
 413.833007812 209.333007812 410.166992188 213.666992188 405.5 219 c 4
 403.5 221.666992188 399.833007812 226.333007812 394.5 233 c 4
 385.833007812 243.666992188 378.5 252.666992188 372.5 260 c 4
 321.833007812 323.333007812 280.166992188 374.333007812 247.5 413 c 4
 200.166992188 468.333007812 155.5 517 113.5 559 c 4
 104.166992188 568.333007812 92.5 573 78.5 573 c 132
 64.5 573 52.6669921875 568.166992188 43 558.5 c 132
 33.3330078125 548.833007812 28.5 537.166992188 28.5 523.5 c 132
 28.5 509.833007812 33.1669921875 498 42.5 488 c 4
 82.5 448 125.5 401.333007812 171.5 348 c 4
 203.5 310 244.5 259.666992188 294.5 197 c 4
 300.5 190.333007812 307.833007812 181.333007812 316.5 170 c 4
 317.166992188 169.333007812 318.5 167.833007812 320.5 165.5 c 132
 322.5 163.166992188 324.166992188 161.333007812 325.5 160 c 6
 327.5 157 l 6
 331.5 151.666992188 335.166992188 147 338.5 143 c 4
 355.833007812 121.666992188 370.166992188 103.666992188 381.5 89 c 4
 403.5 62.3330078125 423.166992188 38.3330078125 440.5 17 c 4
 449.833007812 6.3330078125 461.333007812 0.3330078125 475 -1 c 132
 488.666992188 -2.3330078125 500.833007812 1.5 511.5 10.5 c 132
 522.166992188 19.5 528 30.8330078125 529 44.5 c 132
 530 58.1669921875 526.166992188 70.3330078125 517.5 81 c 4
EndSplineSet
Validated: 524329
EndChar

StartChar: e
Encoding: 101 101 66
Width: 637
Flags: HW
LayerCount: 2
Fore
SplineSet
155.78125 487 m 1
 191.114257812 498.333007812 244.448242188 502.666992188 315.78125 500 c 0
 344.448242188 498.666992188 380.78125 496 424.78125 492 c 0
 426.114257812 491.333007812 432.114257812 490.666992188 442.78125 490 c 1
 445.448242188 470.666992188 447.448242188 449.666992188 448.78125 427 c 0
 449.448242188 405.666992188 450.114257812 377.333007812 450.78125 342 c 1
 428.78125 334.666992188 395.114257812 333.666992188 349.78125 339 c 0
 343.78125 339.666992188 334.78125 341 322.78125 343 c 0
 282.114257812 348.333007812 252.114257812 351 232.78125 351 c 0
 218.78125 351 206.948242188 346.166992188 197.28125 336.5 c 128
 187.614257812 326.833007812 182.78125 315 182.78125 301 c 128
 182.78125 287 187.614257812 275.166992188 197.28125 265.5 c 128
 206.948242188 255.833007812 218.78125 251 232.78125 251 c 0
 247.448242188 251 272.78125 248.333007812 308.78125 243 c 0
 321.448242188 241.666992188 331.114257812 240.666992188 337.78125 240 c 0
 371.114257812 236 399.448242188 234.666992188 422.78125 236 c 0
 433.448242188 236.666992188 443.448242188 237.666992188 452.78125 239 c 1
 452.78125 235.666992188 453.114257812 232.333007812 453.78125 229 c 0
 453.78125 224.333007812 453.948242188 219.666992188 454.28125 215 c 128
 454.614257812 210.333007812 455.448242188 202.333007812 456.78125 191 c 2
 457.78125 184 l 2
 458.448242188 180 459.114257812 175.666992188 459.78125 171 c 128
 460.448242188 166.333007812 461.114257812 163 461.78125 161 c 0
 463.114257812 151.666992188 464.114257812 143.666992188 464.78125 137 c 0
 466.114257812 125 467.114257812 115 467.78125 107 c 1
 460.448242188 106.333007812 452.114257812 105.666992188 442.78125 105 c 0
 412.78125 103 372.114257812 102.333007812 320.78125 103 c 0
 294.114257812 103.666992188 262.448242188 104.333007812 225.78125 105 c 0
 221.78125 105 212.28125 105.333007812 197.28125 106 c 128
 182.28125 106.666992188 173.78125 107 171.78125 107 c 0
 153.78125 107.666992188 141.448242188 108 134.78125 108 c 0
 120.78125 108 108.948242188 103 99.28125 93 c 128
 89.6142578125 83 84.78125 71.1669921875 84.78125 57.5 c 128
 84.78125 43.8330078125 89.6142578125 32 99.28125 22 c 128
 108.948242188 12 120.78125 7 134.78125 7 c 0
 143.78125 7 143.78125 7 168.78125 7 c 0
 170.78125 7 179.28125 6.6669921875 194.28125 6 c 128
 209.28125 5.3330078125 219.114257812 5 223.78125 5 c 0
 260.448242188 4.3330078125 292.114257812 3.6669921875 318.78125 3 c 0
 372.78125 2.3330078125 415.78125 3 447.78125 5 c 0
 468.448242188 6.3330078125 485.448242188 8 498.78125 10 c 0
 507.448242188 11.3330078125 514.78125 13.3330078125 520.78125 16 c 0
 532.78125 20 542.114257812 26 548.78125 34 c 0
 557.448242188 43.3330078125 563.114257812 55 565.78125 69 c 0
 567.114257812 77 567.78125 86 567.78125 96 c 0
 567.78125 110 566.448242188 127.666992188 563.78125 149 c 0
 563.114257812 157 562.114257812 166 560.78125 176 c 0
 560.114257812 177.333007812 559.614257812 179.833007812 559.28125 183.5 c 128
 558.948242188 187.166992188 558.448242188 190.5 557.78125 193.5 c 128
 557.114257812 196.5 556.78125 199.333007812 556.78125 202 c 2
 555.78125 206 l 2
 554.448242188 214 553.78125 218.666992188 553.78125 220 c 0
 553.78125 224.666992188 553.448242188 229 552.78125 233 c 0
 552.114257812 253 551.448242188 283.333007812 550.78125 324 c 0
 550.114257812 372 549.114257812 408.333007812 547.78125 433 c 0
 545.78125 473.666992188 541.78125 510.666992188 535.78125 544 c 0
 535.114257812 547.333007812 534.114257812 551 532.78125 555 c 0
 530.114257812 561.666992188 525.948242188 567.5 520.28125 572.5 c 128
 514.614257812 577.5 508.448242188 581.333007812 501.78125 584 c 0
 495.78125 585 495.78125 585 489.78125 586 c 0
 485.114257812 586 474.78125 586.833007812 458.78125 588.5 c 128
 442.78125 590.166992188 434.448242188 591 433.78125 591 c 0
 388.448242188 595.666992188 350.448242188 598.666992188 319.78125 600 c 0
 235.78125 603.333007812 170.448242188 597.333007812 123.78125 582 c 0
 117.78125 580 117.78125 580 114.78125 579 c 0
 104.78125 575.666992188 96.4482421875 571.333007812 89.78125 566 c 0
 71.78125 551.333007812 64.4482421875 532.666992188 67.78125 510 c 0
 70.4482421875 496.666992188 77.28125 486 88.28125 478 c 128
 99.28125 470 111.78125 467 125.78125 469 c 0
 137.78125 471 147.78125 477 155.78125 487 c 1
EndSplineSet
Validated: 524329
EndChar

StartChar: r
Encoding: 114 114 67
Width: 578
Flags: HW
LayerCount: 2
Fore
SplineSet
228.00390625 246 m 1
 215.337890625 238 207.670898438 233.333007812 205.00390625 232 c 0
 165.00390625 206.666992188 134.00390625 185 112.00390625 167 c 0
 77.337890625 139.666992188 51.00390625 112.333007812 33.00390625 85 c 0
 25.6708984375 73.6669921875 23.337890625 61.1669921875 26.00390625 47.5 c 128
 28.6708984375 33.8330078125 35.6708984375 23.1669921875 47.00390625 15.5 c 128
 58.337890625 7.8330078125 70.837890625 5.5 84.50390625 8.5 c 128
 98.1708984375 11.5 108.670898438 18.6669921875 116.00390625 30 c 0
 128.670898438 48.6669921875 148.00390625 68.3330078125 174.00390625 89 c 0
 194.00390625 104.333007812 222.00390625 123.666992188 258.00390625 147 c 0
 260.670898438 149 268.00390625 153.666992188 280.00390625 161 c 128
 292.00390625 168.333007812 299.00390625 172.666992188 301.00390625 174 c 0
 317.670898438 184.666992188 331.337890625 193.666992188 342.00390625 201 c 0
 344.670898438 203 347.00390625 204.666992188 349.00390625 206 c 1
 345.00390625 137.333007812 343.00390625 82.6669921875 343.00390625 42 c 0
 343.00390625 28 347.837890625 16.1669921875 357.50390625 6.5 c 128
 367.170898438 -3.1669921875 379.00390625 -8 393.00390625 -8 c 128
 407.00390625 -8 418.837890625 -3.1669921875 428.50390625 6.5 c 128
 438.170898438 16.1669921875 443.00390625 28 443.00390625 42 c 0
 443.00390625 83.3330078125 445.670898438 146.333007812 451.00390625 231 c 0
 454.337890625 286.333007812 456.670898438 327.666992188 458.00390625 355 c 0
 460.00390625 399.666992188 460.337890625 440 459.00390625 476 c 1
 469.00390625 476 478.337890625 479 487.00390625 485 c 128
 495.670898438 491 501.670898438 499 505.00390625 509 c 0
 509.670898438 521.666992188 509.00390625 534.333007812 503.00390625 547 c 128
 497.00390625 559.666992188 487.670898438 568.333007812 475.00390625 573 c 0
 459.670898438 578.333007812 442.670898438 582.333007812 424.00390625 585 c 0
 416.00390625 588.333007812 408.00390625 589.666992188 400.00390625 589 c 0
 398.670898438 589 397.337890625 588.666992188 396.00390625 588 c 0
 367.337890625 590 338.00390625 588.666992188 308.00390625 584 c 0
 270.00390625 578.666992188 221.337890625 565.666992188 162.00390625 545 c 0
 129.337890625 533.666992188 103.50390625 516.666992188 84.50390625 494 c 128
 65.50390625 471.333007812 54.6708984375 447.333007812 52.00390625 422 c 128
 49.337890625 396.666992188 54.837890625 371 68.50390625 345 c 128
 82.1708984375 319 103.670898438 296.666992188 133.00390625 278 c 0
 158.337890625 262.666992188 190.00390625 252 228.00390625 246 c 1
336.00390625 347 m 0
 312.00390625 341.666992188 285.170898438 340.5 255.50390625 343.5 c 128
 225.837890625 346.5 202.670898438 353 186.00390625 363 c 0
 172.00390625 371.666992188 162.337890625 381 157.00390625 391 c 0
 153.00390625 398.333007812 151.337890625 405.166992188 152.00390625 411.5 c 128
 152.670898438 417.833007812 155.670898438 424 161.00390625 430 c 0
 169.00390625 438.666992188 180.00390625 445.333007812 194.00390625 450 c 0
 248.00390625 468.666992188 291.00390625 480.666992188 323.00390625 486 c 0
 334.337890625 487.333007812 346.00390625 488.333007812 358.00390625 489 c 1
 360.00390625 451 360.00390625 407.666992188 358.00390625 359 c 1
 354.00390625 357.666992188 350.00390625 355.666992188 346.00390625 353 c 0
 344.00390625 351.666992188 341.337890625 350 338.00390625 348 c 0
 337.337890625 347.333007812 336.670898438 347 336.00390625 347 c 0
EndSplineSet
Validated: 524329
EndChar

StartChar: equal
Encoding: 61 61 68
Width: 612
Flags: HW
LayerCount: 2
Fore
SplineSet
557.31640625 355.182617188 m 4
 529.31640625 351.849609375 496.982421875 349.849609375 460.31640625 349.182617188 c 4
 428.31640625 349.182617188 428.31640625 349.182617188 365.31640625 349.182617188 c 5
 377.31640625 333.849609375 391.649414062 318.182617188 408.31640625 302.182617188 c 4
 425.649414062 284.849609375 451.31640625 261.182617188 485.31640625 231.182617188 c 4
 485.982421875 230.516601562 487.482421875 229.182617188 489.81640625 227.182617188 c 132
 492.149414062 225.182617188 494.482421875 223.016601562 496.81640625 220.682617188 c 132
 499.149414062 218.349609375 500.982421875 216.849609375 502.31640625 216.182617188 c 4
 535.649414062 186.849609375 561.649414062 163.182617188 580.31640625 145.182617188 c 4
 589.649414062 135.182617188 594.31640625 123.349609375 594.31640625 109.682617188 c 132
 594.31640625 96.0166015625 589.482421875 84.1826171875 579.81640625 74.1826171875 c 132
 570.149414062 64.1826171875 558.31640625 59.1826171875 544.31640625 59.1826171875 c 132
 530.31640625 59.1826171875 518.649414062 64.1826171875 509.31640625 74.1826171875 c 4
 492.649414062 90.849609375 468.31640625 113.182617188 436.31640625 141.182617188 c 4
 434.982421875 141.849609375 433.149414062 143.349609375 430.81640625 145.682617188 c 132
 428.482421875 148.016601562 426.149414062 150.182617188 423.81640625 152.182617188 c 132
 421.482421875 154.182617188 419.982421875 155.182617188 419.31640625 155.182617188 c 4
 383.31640625 187.182617188 355.982421875 212.516601562 337.31640625 231.182617188 c 4
 326.31640625 242.182617188 326.31640625 242.182617188 316.31640625 252.182617188 c 5
 312.982421875 248.182617188 308.982421875 244.182617188 304.31640625 240.182617188 c 4
 302.31640625 238.182617188 302.31640625 238.182617188 298.31640625 234.182617188 c 132
 295.649414062 231.516601562 292.81640625 228.849609375 289.81640625 226.182617188 c 132
 286.81640625 223.516601562 283.81640625 220.516601562 280.81640625 217.182617188 c 132
 277.81640625 213.849609375 274.81640625 210.849609375 271.81640625 208.182617188 c 132
 268.81640625 205.516601562 266.149414062 203.016601562 263.81640625 200.682617188 c 132
 261.482421875 198.349609375 259.31640625 196.516601562 257.31640625 195.182617188 c 6
 255.31640625 193.182617188 l 6
 222.649414062 161.182617188 196.982421875 134.849609375 178.31640625 114.182617188 c 4
 152.31640625 86.1826171875 131.31640625 60.1826171875 115.31640625 36.1826171875 c 4
 107.31640625 24.849609375 96.6494140625 17.6826171875 83.31640625 14.6826171875 c 132
 69.982421875 11.6826171875 57.482421875 14.0166015625 45.81640625 21.6826171875 c 132
 34.1494140625 29.349609375 26.982421875 40.0166015625 24.31640625 53.6826171875 c 132
 21.6494140625 67.349609375 24.31640625 79.849609375 32.31640625 91.1826171875 c 4
 50.982421875 119.849609375 74.982421875 150.182617188 104.31640625 182.182617188 c 4
 124.31640625 204.182617188 151.649414062 231.516601562 186.31640625 264.182617188 c 6
 190.31640625 268.182617188 l 6
 194.31640625 272.182617188 194.31640625 272.182617188 200.31640625 278.182617188 c 132
 206.31640625 284.182617188 206.31640625 284.182617188 212.81640625 290.682617188 c 132
 217.149414062 295.016601562 221.31640625 299.016601562 225.31640625 302.682617188 c 132
 229.31640625 306.349609375 232.31640625 309.182617188 234.31640625 311.182617188 c 4
 246.31640625 323.182617188 246.31640625 323.182617188 256.31640625 333.182617188 c 5
 254.31640625 337.849609375 253.31640625 342.849609375 253.31640625 348.182617188 c 5
 233.31640625 347.182617188 233.31640625 347.182617188 213.31640625 346.182617188 c 4
 169.31640625 343.516601562 130.982421875 338.516601562 98.31640625 331.182617188 c 4
 93.6494140625 329.849609375 88.6494140625 329.182617188 83.31640625 329.182617188 c 4
 82.31640625 329.182617188 82.31640625 329.182617188 81.31640625 329.182617188 c 4
 67.982421875 321.849609375 54.6494140625 320.516601562 41.31640625 325.182617188 c 132
 27.982421875 329.849609375 18.31640625 338.349609375 12.31640625 350.682617188 c 132
 6.31640625 363.016601562 5.31640625 375.516601562 9.31640625 388.182617188 c 4
 13.31640625 399.516601562 19.982421875 408.849609375 29.31640625 416.182617188 c 4
 35.982421875 421.516601562 43.6494140625 425.182617188 52.31640625 427.182617188 c 4
 58.31640625 428.516601562 65.982421875 429.182617188 75.31640625 429.182617188 c 6
 76.31640625 429.182617188 l 5
 112.982421875 437.182617188 156.649414062 442.849609375 207.31640625 446.182617188 c 4
 240.649414062 448.182617188 284.982421875 449.182617188 340.31640625 449.182617188 c 4
 348.31640625 449.182617188 348.31640625 449.182617188 364.31640625 449.182617188 c 4
 447.649414062 448.516601562 508.649414062 450.182617188 547.31640625 454.182617188 c 4
 560.649414062 455.516601562 572.649414062 451.849609375 583.31640625 443.182617188 c 132
 593.982421875 434.516601562 599.982421875 423.349609375 601.31640625 409.682617188 c 132
 602.649414062 396.016601562 598.982421875 383.849609375 590.31640625 373.182617188 c 132
 581.649414062 362.516601562 570.649414062 356.516601562 557.31640625 355.182617188 c 4
EndSplineSet
Validated: 524321
EndChar

StartChar: q
Encoding: 113 113 69
Width: 1411
VWidth: 2048
Flags: HW
LayerCount: 2
Fore
SplineSet
964.5 268.5 m 0
 971.5 293.5 975 317.666992188 975 341 c 0
 975 379.333007812 965.666992188 415 947 448 c 0
 913.666992188 505.333007812 855.333007812 545.833007812 772 569.5 c 0
 742.666992188 577.833007812 716.5 583.666992188 693.5 587 c 0
 680.5 588.666992188 668.166992188 589.5 656.5 589.5 c 0
 635.166992188 589.5 616 586.666992188 599 581 c 0
 537.666992188 560.666992188 496 513.833007812 474 440.5 c 0
 464 408.166992188 459 374.333007812 459 339 c 0
 459 309 462.666992188 278 470 246 c 0
 477.666992188 213.333007812 488.666992188 183.333007812 503 156 c 1
 497.666992188 152 491.833007812 147.833007812 485.5 143.5 c 0
 464.5 127.833007812 444.333007812 117.333007812 425 112 c 0
 412 108 402 99.8330078125 395 87.5 c 0
 391 79.8330078125 389 71.8330078125 389 63.5 c 0
 389 58.8330078125 389.666992188 53.8330078125 391 48.5 c 0
 395.333007812 34.8330078125 403.666992188 24.5 416 17.5 c 0
 423.666992188 13.5 431.5 11.5 439.5 11.5 c 0
 444.5 11.5 449.5 12.1669921875 454.5 13.5 c 0
 484.5 22.5 514.666992188 37.8330078125 545 59.5 c 0
 552.666992188 64.8330078125 559.5 70 565.5 75 c 1
 588.166992188 55.3330078125 612.666992188 41.6669921875 639 34 c 1
 643.666992188 21 652.5 11.5 665.5 5.5 c 0
 672.833007812 2.1669921875 680.166992188 0.5 687.5 0.5 c 2
 704.5 3.5 l 1
 765.166992188 25.5 819.583007812 61 867.75 110 c 128
 915.916992188 159 948.166992188 211.833007812 964.5 268.5 c 0
865.5 297.5 m 0
 857.166992188 268.166992188 842.25 239.5 820.75 211.5 c 128
 799.25 183.5 773.833007812 159.166992188 744.5 138.5 c 1
 736.833007812 139.166992188 730 138.5 724 136.5 c 0
 711.666992188 132.166992188 700 130 689 130 c 0
 672.666992188 130 657.666992188 134.5 644 143.5 c 1
 655 153.166992188 665.333007812 161.5 675 168.5 c 0
 694 182.833007812 711.666992188 193.333007812 728 200 c 0
 741 205.333007812 750.333007812 214.5 756 227.5 c 0
 758.666992188 234.166992188 760 240.833007812 760 247.5 c 0
 760 253.833007812 758.666992188 260.166992188 756 266.5 c 0
 751 279.5 742 288.666992188 729 294 c 0
 722.333007812 296.666992188 715.666992188 298 709 298 c 128
 702.333007812 298 695.666992188 296.666992188 689 294 c 0
 664.333007812 284.333007812 639.166992188 269.666992188 613.5 250 c 0
 603.166992188 242.333007812 593.166992188 234.166992188 583.5 225.5 c 1
 578.166992188 239.166992188 573.833007812 253.5 570.5 268.5 c 0
 564.833007812 293.833007812 562 318 562 341 c 0
 562 365.666992188 565.166992188 389 571.5 411 c 0
 583.833007812 450 603.666992188 474.166992188 631 483.5 c 0
 638 485.5 646.333007812 486.5 656 486.5 c 0
 678 486.5 707.166992188 481.5 743.5 471.5 c 0
 800.833007812 455.166992188 839 430.166992188 858 396.5 c 0
 867.666992188 379.833007812 872.5 361.5 872.5 341.5 c 0
 872.5 327.833007812 870.166992188 313.166992188 865.5 297.5 c 0
EndSplineSet
EndChar

StartChar: zero
Encoding: 48 48 70
Width: 631
Flags: HW
LayerCount: 2
Fore
SplineSet
137 153 m 0
 137 165.574925676 149.02785039 193.062397658 167.93221555 200.892842096 c 1
 205.136100563 254.720039459 235.300571558 307.951037744 312.808160742 296.576069395 c 0
 347.18756713 291.53056787 511 263.504051158 511 159 c 0
 511 148.192106338 505.514314269 136.945771774 499.284271247 130.715728753 c 2
 497.284271247 128.715728753 l 2
 481.877466613 113.308924118 456.122533387 113.308924118 440.715728753 128.715728753 c 0
 432.53611842 136.895339085 429 142.084412912 429 162.692941507 c 1
 429 162.692941507 354.702980733 209.570666854 301.191839258 217.423930605 c 0
 273.958668199 221.420654823 259.801952299 186.509252108 212.03502519 127.764564369 c 0
 204.664849404 118.700580117 193.001693466 113 181 113 c 2
 177 113 l 2
 155.211487933 113 137 131.211487933 137 153 c 0
251.777793254 444.812377406 m 0
 253.155625681 439.367285071 256.032893898 419.718675098 253.117091808 411.50742856 c 1
 273.710448842 358.260165039 321.984646031 339 381 339 c 1
 381 339 395.590472767 358.099915357 399.356814756 365.995753547 c 0
 413.083246137 407.17504769 412.377284343 393.622959436 419.052668078 413.649110641 c 0
 425.942800574 434.319508128 448.978713153 445.837464418 469.649110641 438.947331922 c 0
 490.319508128 432.057199426 501.837464418 409.021286847 494.947331922 388.350889359 c 2
 482.947331922 352.350889359 l 2
 481.250322473 347.259861013 477.980076111 341.619480845 473.934210817 337.380958662 c 2
 473.934210817 337.380958662 456.227336768 259 381 259 c 0
 297.010261692 259 171 303.627315855 171 427 c 2
 170.867932785 422.319402082 l 1
 170.867932785 422.319402082 153.15521454 461.117535174 203.187622594 473.777793254 c 0
 224.310383001 479.122720842 246.432865666 465.935137812 251.777793254 444.812377406 c 0
294 112 m 1
 309.333333333 119.333333333 324.333333333 119.333333333 339 112 c 0
 349.666666667 106.666666667 359.666666667 105.333333333 369 108 c 0
 379 110.666666667 389.333333333 118.333333333 400 131 c 0
 427.333333333 161.666666667 446 206 456 264 c 0
 466.666666667 324 463.666666667 375 447 417 c 0
 432.333333333 454.333333333 408.333333333 474.333333333 375 477 c 0
 307.666666667 481.666666667 255.333333333 467 218 433 c 0
 185.333333333 403.666666667 168 364.333333333 166 315 c 0
 164.666666667 265 179 219.666666667 209 179 c 0
 231 149 259.333333333 126.666666667 294 112 c 1
325 0 m 0
 242.333333333 14.6666666667 177 54.3333333333 129 119 c 0
 84.3333333333 178.333333333 63.3333333333 245 66 319 c 0
 69.3333333333 395.666666667 97.3333333333 458.333333333 150 507 c 0
 208.666666667 560.333333333 286 583.666666667 382 577 c 0
 419.333333333 574.333333333 451.5 562.166666667 478.5 540.5 c 128
 505.5 518.833333333 526 489.666666667 540 453 c 0
 563.333333333 393.666666667 568.333333333 325 555 247 c 0
 541.666666667 170.333333333 515.333333333 109.666666667 476 65 c 0
 452 37.6666666667 425.333333333 20 396 12 c 0
 384 8.66666666667 372 7 360 7 c 1
 348.666666667 0.333333333333 337 -2 325 0 c 0
EndSplineSet
EndChar

StartChar: bracketleft
Encoding: 91 91 71
Width: 1443
VWidth: 2048
Flags: HW
LayerCount: 2
Fore
SplineSet
720.334960938 451.799804688 m 128
 720.334960938 443.959960938 720.171875 433.99609375 719.844726562 421.91015625 c 0
 719.844726562 360.49609375 721.151367188 311.66015625 723.765625 275.400390625 c 0
 728.337890625 213.986328125 737.6484375 168.580078125 751.694335938 139.180664062 c 0
 758.228515625 125.787109375 764.598632812 116.966796875 770.805664062 112.719726562 c 0
 775.37890625 110.106445312 781.421875 109.453125 788.934570312 110.759765625 c 0
 789.915039062 111.740234375 789.915039062 111.740234375 790.89453125 112.719726562 c 0
 794.162109375 115.333007812 798.8984375 121.376953125 805.10546875 130.849609375 c 1
 805.10546875 131.830078125 l 1
 807.065429688 134.443359375 808.37109375 136.240234375 809.025390625 137.219726562 c 0
 817.844726562 149.959960938 825.194335938 159.596679688 831.075195312 166.129882812 c 0
 844.46875 179.5234375 859.168945312 188.180664062 875.174804688 192.099609375 c 0
 879.421875 193.080078125 883.668945312 193.569335938 887.915039062 193.569335938 c 0
 896.408203125 193.569335938 904.73828125 191.120117188 912.905273438 186.219726562 c 0
 924.665039062 179.359375 932.178710938 168.90625 935.444335938 154.859375 c 0
 936.424804688 150.61328125 936.915039062 146.3671875 936.915039062 142.120117188 c 0
 936.915039062 133.953125 934.955078125 126.11328125 931.03515625 118.599609375 c 0
 924.828125 107.494140625 915.681640625 99.98046875 903.594726562 96.0595703125 c 1
 900.981445312 93.4462890625 897.224609375 88.3828125 892.325195312 80.8701171875 c 0
 891.671875 80.216796875 890.365234375 78.5830078125 888.405273438 75.9697265625 c 1
 884.509765625 69.9921875 l 1
 877.420898438 60.1591796875 871.361328125 52.384765625 866.331054688 46.66796875 c 0
 855.583007812 36.3779296875 829.931640625 17.66015625 810.984375 13.740234375 c 0
 800.205078125 11.126953125 789.751953125 9.8193359375 779.625 9.8193359375 c 0
 757.412109375 9.8193359375 736.831054688 16.0263671875 717.884765625 28.4404296875 c 0
 695.018554688 42.486328125 676.234375 64.7001953125 661.53515625 95.080078125 c 1
 654.021484375 75.806640625 644.711914062 59.3095703125 633.60546875 45.58984375 c 0
 618.905273438 27.623046875 601.265625 15.7001953125 580.684570312 9.8193359375 c 0
 571.865234375 7.533203125 563.044921875 6.390625 554.224609375 6.390625 c 0
 541.484375 6.390625 528.418945312 8.83984375 515.025390625 13.740234375 c 0
 477.458007812 27.1328125 434.9921875 60.7802734375 387.625 114.680664062 c 0
 379.458007812 123.827148438 375.375 134.606445312 375.375 147.01953125 c 0
 375.375 148 375.538085938 149.143554688 375.865234375 150.450195312 c 0
 376.518554688 164.169921875 382.071289062 175.766601562 392.525390625 185.240234375 c 0
 401.671875 193.733398438 412.288085938 197.98046875 424.375 197.98046875 c 0
 426.334960938 197.98046875 426.334960938 197.98046875 428.78515625 197.98046875 c 0
 442.831054688 196.672851562 454.265625 190.793945312 463.084960938 180.33984375 c 0
 499.344726562 139.505859375 527.765625 115.66015625 548.344726562 108.799804688 c 0
 550.305664062 107.494140625 551.938476562 106.83984375 553.245117188 106.83984375 c 0
 554.551757812 107.494140625 555.53125 108.473632812 556.184570312 109.780273438 c 0
 565.004882812 120.559570312 572.681640625 141.629882812 579.21484375 172.990234375 c 0
 584.44140625 201.083007812 589.178710938 238.9765625 593.424804688 286.669921875 c 0
 594.078125 296.796875 594.731445312 308.719726562 595.384765625 322.440429688 c 0
 595.384765625 327.013671875 595.711914062 332.73046875 596.365234375 339.58984375 c 2
 597.344726562 343.509765625 l 2
 597.344726562 347.430664062 597.344726562 347.430664062 597.344726562 351.594726562 c 128
 597.344726562 355.759765625 597.344726562 355.759765625 597.344726562 357.719726562 c 0
 599.305664062 391.693359375 601.265625 417.172851562 603.224609375 434.16015625 c 0
 619.272780876 586.621783604 720.334960938 631.801525302 720.334960938 451.799804688 c 128
EndSplineSet
EndChar

StartChar: question
Encoding: 63 63 72
Width: 1000
VWidth: 0
Flags: H
LayerCount: 2
Fore
SplineSet
162.002929688 46.5126953125 m 4
 161.737304688 68.298828125 179.725585938 86.7314453125 201.512695312 86.9970703125 c 6
 288.518554688 88.0576171875 l 5
 250.327148438 134.771484375 224 170.359375 224 241 c 6
 224 327 l 6
 224 483.725585938 368.103515625 607 512 607 c 4
 627.364257812 607 692 501.09765625 692 409 c 6
 692 348.212890625 l 6
 688.413085938 257.131835938 640.955078125 189.110351562 617.258789062 128.446289062 c 4
 616.89453125 127.514648438 647.952148438 99.0126953125 648.952148438 98.98828125 c 6
 732.952148438 96.98828125 l 6
 754.734375 96.4697265625 772.506835938 77.830078125 771.98828125 56.0478515625 c 4
 771.469726562 34.265625 752.830078125 16.4931640625 731.047851562 17.01171875 c 6
 647.047851562 19.01171875 l 6
 645.930664062 19.0380859375 643.876953125 19.185546875 642.403320312 19.3935546875 c 6
 642.403320312 19.3935546875 516 -6.068359375 516 73 c 4
 516 105.133789062 533.84765625 134.78515625 542.741210938 157.553710938 c 4
 571.356445312 230.810546875 609.641601562 289.905273438 612 349.787109375 c 6
 612 409 l 6
 612 471.00390625 569.717773438 527 512 527 c 4
 409.501953125 527 304 433.474609375 304 327 c 6
 304 241 l 6
 304 169.501953125 354.750976562 154.978515625 401.284179688 67.8427734375 c 4
 402.330078125 65.8837890625 405.364257812 57.798828125 405.8359375 52.6240234375 c 4
 407.918945312 29.7265625 389.478515625 9.283203125 366.487304688 9.0029296875 c 6
 202.487304688 7.0029296875 l 6
 180.701171875 6.7373046875 162.268554688 24.7255859375 162.002929688 46.5126953125 c 4
EndSplineSet
EndChar
